<?xml version="1.0" encoding="utf-8"?>
<!-- Generator: Adobe Illustrator 16.0.0, SVG Export Plug-In . SVG Version: 6.00 Build 0)  -->
<!DOCTYPE svg PUBLIC "-//W3C//DTD SVG 1.1//EN" "http://www.w3.org/Graphics/SVG/1.1/DTD/svg11.dtd">
<svg version="1.1" id="Слой_1" xmlns="http://www.w3.org/2000/svg" xmlns:xlink="http://www.w3.org/1999/xlink" x="0px" y="0px"
	 width="512px" height="512px" viewBox="0 0 512 512" enable-background="new 0 0 512 512" xml:space="preserve">
<g id="_x34__hairstyle_x2C__style_x2C__suit_x2C__man_x2C__people_x2C__businessman_x2C__male">
	<g>
		<polygon fill="#E6E9ED" points="256.016,348.744 164.014,292.74 164.014,316.746 185.715,384.93 256.008,356.743 326.308,384.93 
			348.01,316.746 348.01,292.74 		"/>
	</g>
	<g>
		<path fill="#FFCE54" d="M382.711,76.011c20.483,45.6,13.28,95.994,13.28,95.994s-3.117-45.759-31.756-63.996L382.711,76.011z"/>
	</g>
	<g>
		<path fill="#FFCE54" d="M382.711,76.011l-18.476,31.998c-72.082-45.836-131.515,77.757-243.024,44.799
			c-4.484-1.36-9.046-2.961-13.679-4.801c0,0,8.476-143.991,148.467-143.991C330.152,4.016,365.837,38.334,382.711,76.011z"/>
	</g>
	<g opacity="0.2">
		<g>
			<path d="M382.711,76.011C365.837,38.334,330.152,4.016,256,4.016c-2.609,0-5.078,0.148-7.601,0.246
				c68.41,2.527,102.095,35.541,118.313,71.749c7.147,15.909,10.875,32.361,12.766,47.095
				c14.546,20.925,16.514,48.899,16.514,48.899S403.194,121.61,382.711,76.011z"/>
		</g>
	</g>
	<g opacity="0.5">
		<g>
			<path fill="#FFFFFF" d="M123.157,153.365c0,0,8.632-143.936,141.241-149.104c-2.773-0.102-5.507-0.246-8.397-0.246
				c-139.991,0-148.467,143.991-148.467,143.991C112.165,149.847,123.157,153.365,123.157,153.365z"/>
		</g>
	</g>
	<g opacity="0.2">
		<path d="M256,355.993c27.295,0,63.316-22.248,92.01-56.168v-7.085l-91.994,56.004l-92.002-56.004v7.21
			C192.699,333.839,228.721,355.993,256,355.993z"/>
	</g>
	<g>
		<path fill="#EAC6BB" d="M395.991,172.005l-0.883,15.999c-9.116,85.197-88.955,159.99-139.108,159.99
			c-53.278,0-139.991-84.393-139.991-175.989v-20.873c117.243,36.622,176.145-88.959,248.227-43.123
			C392.874,126.246,395.991,172.005,395.991,172.005z"/>
	</g>
	<g opacity="0.2">
		<g>
			<path d="M364.235,108.009c-14.179-9.015-27.842-11.335-41.544-9.628c8.405,1.137,16.881,4.116,25.546,9.628
				c28.639,18.237,31.755,63.996,31.755,63.996l-0.883,15.999c-8.663,80.964-81.151,152.397-131.382,159.303
				c2.828,0.422,5.602,0.688,8.273,0.688c50.153,0,129.992-74.793,139.108-159.99l0.883-15.999
				C395.991,172.005,392.874,126.246,364.235,108.009z"/>
		</g>
	</g>
	<g opacity="0.5">
		<g>
			<path fill="#FFFFFF" d="M132.007,172.005v-16.882c-5.226-1.035-10.53-2.28-15.999-3.991v20.873
				c0,91.597,86.713,175.989,139.991,175.989c2.492,0,5.102-0.327,7.727-0.688C210.221,339.456,132.007,259.007,132.007,172.005z"/>
		</g>
	</g>
	<g>
		<path fill="#5D9CEC" d="M499.985,427.989c0,31.997,0,79.995,0,79.995H303.997l11.437-15.999l40.56-55.997l-7.999-23.998
			l39.998-55.997l-17.164-17.155c18.078,7.922,69.48,28.835,81.16,33.154C483.986,383.914,499.985,395.991,499.985,427.989z"/>
	</g>
	<g>
		<polygon fill="#5D9CEC" points="303.997,507.984 286.834,507.984 326.558,383.352 347.994,315.996 387.992,355.993 
			347.994,411.99 355.993,435.988 		"/>
	</g>
	<g opacity="0.2">
		<polygon fill="#FFFFFF" points="303.997,507.984 286.834,507.984 326.558,383.352 347.994,315.996 387.992,355.993 
			347.994,411.99 355.993,435.988 		"/>
	</g>
	<g>
		<path fill="#5D9CEC" d="M12.015,427.989c0,31.997,0,79.995,0,79.995h195.988l-11.437-15.999l-40.561-55.997l8-23.998
			l-39.998-55.997l17.163-17.155c-18.077,7.922-69.48,28.835-81.159,33.154C28.014,383.914,12.015,395.991,12.015,427.989z"/>
	</g>
	<g>
		<polygon fill="#5D9CEC" points="208.003,507.984 225.166,507.984 185.442,383.352 164.006,315.996 124.008,355.993 
			164.006,411.99 156.006,435.988 		"/>
	</g>
	<g opacity="0.2">
		<polygon fill="#FFFFFF" points="208.003,507.984 225.166,507.984 185.442,383.352 164.006,315.996 124.008,355.993 
			164.006,411.99 156.006,435.988 		"/>
	</g>
	<g opacity="0.2">
		<path d="M156.006,435.988l8-23.998l-39.998-55.997l17.163-17.155c-3.547,1.548-8.39,3.609-13.944,5.938l-11.218,11.217
			l39.997,55.997l-8,23.998l51.997,71.996h8l-11.437-15.999L156.006,435.988z"/>
	</g>
	<g>
		<g opacity="0.3">
			<path fill="#FFFFFF" d="M116.009,355.993l11.218-11.217c-22.78,9.546-57.825,23.748-67.214,27.216
				c-31.999,11.922-47.997,23.999-47.997,55.997c0,31.997,0,79.995,0,79.995h15.999c0-16.827,0-43.63,0-63.996
				c0-31.998,16-44.075,47.997-55.996c7.094-2.625,28.819-11.359,48.857-19.601L116.009,355.993z"/>
		</g>
	</g>
	<g opacity="0.2">
		<path d="M355.993,435.988l-7.999-23.998l39.998-55.997l-17.164-17.155c3.548,1.548,8.391,3.609,13.945,5.938l11.218,11.217
			l-39.998,55.997l8,23.998l-51.996,71.996h-8l11.437-15.999L355.993,435.988z"/>
	</g>
	<g opacity="0.5">
		<g opacity="0.3">
			<path d="M395.991,355.993l-11.218-11.217c22.779,9.546,57.824,23.748,67.215,27.216c31.998,11.922,47.997,23.999,47.997,55.997
				c0,31.997,0,79.995,0,79.995h-15.999c0-16.827,0-43.63,0-63.996c0-31.998-15.999-44.075-47.998-55.996
				c-7.093-2.625-28.818-11.359-48.855-19.601L395.991,355.993z"/>
		</g>
	</g>
	<g>
		<polygon fill="#CCD1D9" points="256,355.993 326.308,384.132 291.998,491.985 286.834,507.984 225.166,507.984 220.002,491.985 
			185.708,384.18 		"/>
	</g>
	<g>
		<polygon fill="#ED5565" points="275.998,395.991 236.001,395.991 222.924,369.227 256,355.993 289.084,369.227 		"/>
	</g>
	<g opacity="0.3">
		<polygon fill="#FFFFFF" points="226.501,376.539 236.001,395.991 244.001,395.991 233.204,373.892 		"/>
	</g>
	<g opacity="0.3">
		<polygon points="285.498,376.539 275.998,395.991 267.999,395.991 278.796,373.892 		"/>
	</g>
	<g>
		<polygon fill="#ED5565" points="283.998,506.734 228.001,506.734 228.001,435.988 244.001,395.991 267.999,395.991 
			283.998,435.988 		"/>
	</g>
	<g opacity="0.3">
		<polygon fill="#FFFFFF" points="252,395.991 244.001,395.991 228.001,435.988 228.001,506.734 236.001,506.734 236.001,435.988 		
			"/>
	</g>
	<g opacity="0.3">
		<polygon points="260,395.991 267.999,395.991 283.998,435.988 283.998,491.782 279.232,506.734 275.998,506.734 275.998,435.988 
					"/>
	</g>
	<g opacity="0.3">
		<polygon points="255.274,356.291 185.708,384.18 188.309,392.352 256.008,364.743 323.887,391.757 326.308,384.132 
			256.75,356.291 256.016,356.743 		"/>
	</g>
	<g>
		<g>
			<path fill="#3A3847" d="M499.985,511.984H12.015c-2.211,0-4-1.789-4-4v-79.995c0-34.373,17.78-47.513,50.598-59.746
				c12.414-4.555,27.78-10.632,41.123-16.257l6.695-2.945c2.023-0.875,4.375,0.063,5.257,2.094c0.867,2.031-0.07,4.382-2.101,5.249
				l-6.719,2.969c-13.476,5.672-28.975,11.804-41.474,16.39c-30.74,11.453-45.38,22.202-45.38,52.247v75.995h479.971v-75.995
				c0-30.045-14.64-40.794-45.396-52.247c-9.609-3.562-28.671-10.812-48.201-19.365c-2.022-0.884-2.944-3.242-2.062-5.273
				c0.891-2.016,3.289-2.93,5.266-2.055c19.351,8.476,38.239,15.663,47.786,19.194c32.825,12.233,50.605,25.373,50.605,59.746
				v79.995C503.984,510.195,502.196,511.984,499.985,511.984z"/>
		</g>
		<g>
			<path fill="#3A3847" d="M256,351.994c-54.247,0-143.991-84.12-143.991-179.989c0-2.211,1.789-4,4-4c2.21,0,4,1.789,4,4
				c0,88.687,84.838,171.989,135.992,171.989c45.669,0,126.055-71.589,135.133-156.416c0.234-2.203,2.366-3.75,4.397-3.551
				c2.203,0.235,3.789,2.207,3.555,4.402C390.07,272.671,310.833,351.994,256,351.994z"/>
		</g>
		<g>
			<path fill="#3A3847" d="M395.991,176.005c-0.047,0-0.093-0.004-0.148-0.004c-2.039-0.074-3.703-1.68-3.844-3.723
				c-0.031-0.438-3.343-43.978-29.911-60.895c-10.266-6.526-20.641-9.698-31.71-9.698c-21.795,0-44.278,12.534-68.074,25.803
				c-29.412,16.397-62.753,34.982-102.985,34.982c-12.952,0-26.155-1.961-39.24-5.828c-4.593-1.39-9.304-3.043-14.022-4.918
				c-1.602-0.637-2.617-2.229-2.515-3.952C103.626,146.296,113.884,0.016,256,0.016c64.402,0,108.267,25.018,130.359,74.358
				c20.718,46.123,13.889,96.092,13.593,98.197C399.671,174.548,397.976,176.005,395.991,176.005z M111.759,145.358
				c3.586,1.355,7.148,2.57,10.617,3.621c12.319,3.644,24.756,5.491,36.943,5.491c38.154,0,70.527-18.046,99.088-33.97
				c24.732-13.788,48.099-26.815,71.972-26.815c12.64,0,24.421,3.582,36.006,10.949c13.577,8.647,21.726,22.818,26.584,35.919
				c-0.813-17.854-4.085-41.044-13.905-62.902C358.368,31.443,316.965,8.016,256,8.016
				C130.656,8.016,113.759,124.789,111.759,145.358z"/>
		</g>
		<g>
			<path fill="#3A3847" d="M364.235,112.009c-0.68,0-1.367-0.172-2-0.535c-1.913-1.105-2.57-3.551-1.461-5.465l18.476-31.997
				c1.102-1.914,3.555-2.56,5.461-1.465c1.914,1.105,2.57,3.551,1.461,5.464l-18.476,31.998
				C366.962,111.29,365.61,112.009,364.235,112.009z"/>
		</g>
		<g>
			<path fill="#3A3847" d="M275.998,399.991h-39.997c-1.515,0-2.898-0.859-3.578-2.211l-8-15.999
				c-0.984-1.977-0.188-4.383,1.789-5.367c1.984-0.977,4.375-0.188,5.367,1.789l6.89,13.789h35.061l6.89-13.789
				c0.992-1.977,3.398-2.757,5.367-1.789c1.977,0.984,2.773,3.391,1.789,5.367l-7.999,15.999
				C278.897,399.132,277.515,399.991,275.998,399.991z"/>
		</g>
		<g>
			<path fill="#3A3847" d="M228.001,439.988c-0.492,0-1-0.094-1.484-0.281c-2.054-0.828-3.046-3.155-2.226-5.202l15.999-39.998
				c0.82-2.055,3.148-3.046,5.195-2.234c2.055,0.829,3.047,3.156,2.227,5.203l-15.999,39.997
				C231.087,439.036,229.587,439.988,228.001,439.988z"/>
		</g>
		<g>
			<path fill="#3A3847" d="M283.998,439.988c-1.586,0-3.086-0.952-3.711-2.516l-15.999-39.997c-0.82-2.047,0.173-4.374,2.227-5.203
				c2.039-0.82,4.375,0.18,5.195,2.234l15.999,39.998c0.82,2.047-0.172,4.374-2.227,5.202
				C284.998,439.895,284.49,439.988,283.998,439.988z"/>
		</g>
		<g>
			<path fill="#3A3847" d="M315.434,495.985c-0.82,0-1.641-0.25-2.344-0.766c-1.788-1.289-2.194-3.797-0.897-5.577l39.356-54.341
				l-7.352-22.046c-0.405-1.219-0.203-2.547,0.54-3.594l38.028-53.23l-37.599-37.607c-1.563-1.563-1.563-4.094,0-5.656
				c1.562-1.562,4.093-1.562,5.655,0l39.998,39.998c1.383,1.383,1.563,3.562,0.429,5.156l-38.817,54.34l7.359,22.061
				c0.406,1.219,0.194,2.563-0.556,3.609l-40.56,55.997C317.895,495.406,316.668,495.985,315.434,495.985z"/>
		</g>
		<g>
			<path fill="#3A3847" d="M291.998,495.985c-0.398,0-0.813-0.063-1.211-0.188c-2.109-0.671-3.273-2.921-2.602-5.022l55.997-175.997
				c0.664-2.094,2.937-3.281,5.022-2.594c2.109,0.673,3.273,2.922,2.602,5.031l-55.996,175.981
				C295.271,494.899,293.692,495.985,291.998,495.985z"/>
		</g>
		<g>
			<path fill="#3A3847" d="M315.997,383.992c-0.493,0-1-0.094-1.484-0.281l-59.997-23.999c-2.054-0.828-3.047-3.155-2.227-5.202
				c0.82-2.055,3.156-3.063,5.195-2.234l59.996,23.998c2.055,0.828,3.047,3.156,2.227,5.203
				C319.082,383.039,317.582,383.992,315.997,383.992z"/>
		</g>
		<g>
			<path fill="#3A3847" d="M196.566,495.985c-1.235,0-2.461-0.579-3.242-1.656l-40.561-55.997c-0.75-1.046-0.96-2.391-0.554-3.609
				l7.359-22.061l-38.818-54.34c-1.133-1.595-0.953-3.773,0.43-5.156l39.998-39.998c1.563-1.562,4.093-1.562,5.656,0
				c1.563,1.563,1.563,4.094,0,5.656l-37.599,37.607l38.029,53.23c0.742,1.047,0.945,2.375,0.539,3.594l-7.351,22.046l39.357,54.341
				c1.297,1.78,0.891,4.288-0.898,5.577C198.207,495.735,197.386,495.985,196.566,495.985z"/>
		</g>
		<g>
			<path fill="#3A3847" d="M220.002,495.985c-1.695,0-3.274-1.086-3.813-2.789l-55.997-175.981
				c-0.672-2.109,0.492-4.358,2.602-5.031c2.094-0.688,4.358,0.5,5.023,2.594l55.997,175.997c0.672,2.102-0.492,4.352-2.601,5.022
				C220.814,495.922,220.4,495.985,220.002,495.985z"/>
		</g>
		<g>
			<path fill="#3A3847" d="M196.004,383.992c-1.586,0-3.086-0.953-3.711-2.516c-0.82-2.047,0.172-4.375,2.227-5.203l59.996-23.998
				c2.047-0.828,4.375,0.18,5.195,2.234c0.82,2.047-0.172,4.374-2.227,5.202l-59.997,23.999
				C197.004,383.898,196.496,383.992,196.004,383.992z"/>
		</g>
		<g>
			<path fill="#3A3847" d="M256,495.985c-2.211,0-4-1.789-4-4V419.99c0-2.211,1.789-4,4-4s4,1.789,4,4v71.995
				C260,494.196,258.211,495.985,256,495.985z"/>
		</g>
	</g>
</g>
</svg>
