<?xml version="1.0" encoding="utf-8"?>
<!-- Generator: Adobe Illustrator 16.0.0, SVG Export Plug-In . SVG Version: 6.00 Build 0)  -->
<!DOCTYPE svg PUBLIC "-//W3C//DTD SVG 1.1//EN" "http://www.w3.org/Graphics/SVG/1.1/DTD/svg11.dtd">
<svg version="1.1" id="Слой_1" xmlns="http://www.w3.org/2000/svg" xmlns:xlink="http://www.w3.org/1999/xlink" x="0px" y="0px"
	 width="512px" height="512px" viewBox="0 0 512 512" enable-background="new 0 0 512 512" xml:space="preserve">
<g id="_x39__hairstyle_x2C__style_x2C__shirt_x2C__man_x2C__people_x2C__mustache_x2C__bald">
	<g>
		<path fill="#EAC6BB" d="M347.994,307.996c0,5.844,9.922,13.437,23.998,21.202v0.078v82.714c0,0,8,55.996-115.992,55.996
			c-123.993,0-115.993-55.996-115.993-55.996v-82.714v-0.078c14.077-7.766,23.999-15.358,23.999-21.202v-31.998
			c28.639,33.92,64.715,55.997,91.994,55.997s63.355-22.077,91.994-55.997V307.996z"/>
	</g>
	<g>
		<path fill="#EAC6BB" d="M256,4.016c-77.276,0-139.991,60.395-139.991,151.99v17.374c0,0,6.398,51.021,48.239,39.502
			c41.833-11.52,67.277-30.64,83.276-15.276c5.757,5.519,8.476,11.437,8.476,17.197c0-5.761,2.719-11.679,8.477-17.197
			c15.999-15.363,41.441,3.757,83.275,15.276c41.841,11.519,48.239-39.502,48.239-39.502v-17.374
			C395.991,64.41,333.276,4.016,256,4.016z"/>
	</g>
	<g opacity="0.5">
		<g>
			<path fill="#FFFFFF" d="M132.007,173.38v-17.374c0-88.393,58.458-147.562,131.992-151.6c-2.663-0.145-5.296-0.391-7.999-0.391
				c-77.276,0-139.991,60.395-139.991,151.99v17.374c0,0,6.117,47.825,44.661,40.201C136.296,207.39,132.007,173.38,132.007,173.38z
				"/>
		</g>
	</g>
	<g opacity="0.2">
		<g>
			<path d="M379.992,173.38v-17.374c0-88.393-58.457-147.562-131.992-151.6c2.664-0.145,5.296-0.391,8-0.391
				c77.276,0,139.991,60.395,139.991,151.99v17.374c0,0-6.117,47.825-44.661,40.201C375.703,207.39,379.992,173.38,379.992,173.38z"
				/>
		</g>
	</g>
	<g>
		<path fill="#EAC6BB" d="M304.153,252.16C273.678,244.239,256,229.682,256,214.803c0,14.879-17.679,29.437-48.154,37.357
			c-13.999,3.602-53.59-8.671-70.636-14.831L151.686,260c3.922,5.602,8.078,10.96,12.32,15.998
			c28.639,33.92,64.715,55.997,91.994,55.997s63.355-22.077,91.994-55.997c4.242-5.038,8.398-10.396,12.319-15.998l14.476-22.671
			C357.743,243.489,318.152,255.762,304.153,252.16z"/>
	</g>
	<g opacity="0.2">
		<path d="M347.994,283.998v-8c-28.639,33.92-64.715,55.997-91.994,55.997s-63.355-22.077-91.994-55.997v8
			c28.639,33.92,64.715,55.997,91.994,55.997S319.355,317.918,347.994,283.998z"/>
	</g>
	<g opacity="0.5">
		<g>
			<path fill="#FFFFFF" d="M180.005,275.998c-4.242-5.038-8.398-10.396-12.32-15.998l-10.242-16.046
				c-7.906-2.359-15.1-4.77-20.233-6.625L151.686,260c3.922,5.602,8.078,10.96,12.32,15.998
				c28.639,33.92,64.715,55.997,91.994,55.997c2.586,0,5.272-0.266,7.999-0.648C237.931,327.644,205.933,306.7,180.005,275.998z"/>
		</g>
	</g>
	<g opacity="0.2">
		<g>
			<path d="M331.995,275.998c4.242-5.038,8.397-10.396,12.319-15.998l10.242-16.046c7.906-2.359,15.101-4.77,20.232-6.625
				L360.313,260c-3.921,5.602-8.077,10.96-12.319,15.998c-28.639,33.92-64.715,55.997-91.994,55.997c-2.586,0-5.273-0.266-8-0.648
				C274.069,327.644,306.067,306.7,331.995,275.998z"/>
		</g>
	</g>
	<g>
		<path fill="#EAC6BB" d="M499.985,419.99c0,31.997,0,87.994,0,87.994H411.99V348.15c15.28,6.483,30.077,12.163,39.998,15.843
			C483.986,375.914,499.985,387.992,499.985,419.99z"/>
	</g>
	<g>
		<path fill="#FFCE54" d="M140.007,329.276v82.714c0,0-8,55.996,115.993,55.996c123.992,0,115.992-55.996,115.992-55.996v-82.714
			v-0.078c11.601,6.477,26.077,13.117,39.998,18.952v159.834H100.01V348.15c13.921-5.835,28.396-12.476,39.998-18.952V329.276z"/>
	</g>
	<g opacity="0.2">
		<path d="M256,467.986c123.992,0,115.992-55.996,115.992-55.996v-3.733c-1.062,13.054-12.904,51.729-115.992,51.729
			c-103.087,0-114.931-38.676-115.993-51.729v3.733C140.007,411.99,132.007,467.986,256,467.986z"/>
	</g>
	<g>
		<path fill="#EAC6BB" d="M100.01,348.15v159.834H12.015c0,0,0-55.997,0-87.994c0-31.998,15.999-44.076,47.997-55.997
			C69.934,360.313,84.729,354.634,100.01,348.15z"/>
	</g>
	<g opacity="0.5">
		<path fill="#FFFFFF" d="M76.011,379.992c6.375-2.359,14.765-5.563,23.999-9.25V348.15c-15.28,6.483-30.076,12.163-39.998,15.843
			c-31.999,11.921-47.997,23.999-47.997,55.997c0,31.997,0,87.994,0,87.994h15.999c0-18.983,0-50.747,0-71.996
			C28.014,403.991,44.013,391.913,76.011,379.992z"/>
	</g>
	<g opacity="0.5">
		<path fill="#FFFFFF" d="M116.009,364.235c8.054-3.383,16.233-7.038,23.999-10.765v-24.116v-0.078
			c-11.601,6.484-26.077,13.125-39.998,18.96v22.585C105.15,368.758,110.54,366.556,116.009,364.235z"/>
	</g>
	<g>
		<path fill="#ED5565" d="M247.524,197.605c5.757,5.519,8.476,11.437,8.476,17.197c0,14.879-17.679,29.437-48.154,37.357
			c-13.999,3.602-32.638,1.762-49.684-4.397c-33.756-12.242-61.59-41.201-36.794-77.758c0,0,1.039,54.396,42.88,42.877
			C206.081,201.362,231.525,182.242,247.524,197.605z"/>
	</g>
	<g>
		<path fill="#ED5565" d="M390.711,170.005c27.201,40.158-9.195,71.195-47.114,80.874c-13.999,3.602-28.163,4.16-39.443,1.281
			C273.678,244.239,256,229.682,256,214.803c0-5.761,2.719-11.679,8.477-17.197c15.999-15.363,41.441,3.757,83.275,15.276
			C389.593,224.4,390.711,170.005,390.711,170.005z"/>
	</g>
	<g opacity="0.3">
		<g>
			<path fill="#FFFFFF" d="M142.648,228.928c-9.047-8.719-14.773-19.417-14.718-31.549c-6.218-12.531-6.562-27.326-6.562-27.326
				c-16,23.6-10.078,44.075,5.281,58.875c18.288,17.718,49.81,27.225,73.339,24.588C179.56,251.609,157.014,242.845,142.648,228.928
				z"/>
		</g>
	</g>
	<g opacity="0.2">
		<g>
			<path d="M390.633,170.053c0,0-0.345,14.795-6.563,27.326c0.055,12.132-5.672,22.83-14.718,31.549
				c-14.366,13.917-36.912,22.682-57.34,24.588c23.529,2.637,55.051-6.87,73.339-24.588
				C400.71,214.128,406.632,193.652,390.633,170.053z"/>
		</g>
	</g>
	<g>
		<g opacity="0.5">
			<path fill="#FFFFFF" d="M164.006,283.998v23.998c0,5.844-9.922,13.437-23.999,21.202v0.078v24.108
				c5.648-2.711,11.109-5.461,15.999-8.188c14.078-7.766,23.999-15.358,23.999-21.201v-23.007
				C174.497,295.74,169.13,290.068,164.006,283.998z"/>
		</g>
	</g>
	<g opacity="0.2">
		<path d="M435.988,379.992c-6.374-2.359-14.765-5.563-23.998-9.25V348.15c15.28,6.483,30.077,12.163,39.998,15.843
			c31.998,11.921,47.997,23.999,47.997,55.997c0,31.997,0,87.994,0,87.994h-15.999c0-18.983,0-50.747,0-71.996
			C483.986,403.991,467.987,391.913,435.988,379.992z"/>
	</g>
	<g opacity="0.2">
		<path d="M395.991,364.235c-8.054-3.383-16.233-7.038-23.999-10.765v-24.116v-0.078c11.601,6.484,26.077,13.125,39.998,18.96
			v22.585C406.85,368.758,401.46,366.556,395.991,364.235z"/>
	</g>
	<g opacity="0.3">
		<g opacity="0.5">
			<path d="M347.994,283.998v23.998c0,5.844,9.922,13.437,23.998,21.202v0.078v24.108c-5.647-2.711-11.108-5.461-15.999-8.188
				c-14.076-7.766-23.998-15.358-23.998-21.201v-23.007C337.503,295.74,342.869,290.068,347.994,283.998z"/>
		</g>
	</g>
	<g>
		<g>
			<path fill="#3A3847" d="M499.985,511.984H12.015c-2.211,0-4-1.789-4-4V419.99c0-34.373,17.78-47.514,50.598-59.747
				c9.602-3.562,24.296-9.179,39.833-15.772c15.789-6.616,29.475-13.108,39.607-18.772c21.335-11.749,21.952-17.123,21.952-17.702
				c0-2.21,1.789-4,4-4c2.21,0,4,1.79,4,4c0,4.438-2.703,11.828-26.069,24.702c-10.515,5.874-24.108,12.319-40.38,19.14
				c-15.663,6.648-30.482,12.318-40.153,15.905c-30.749,11.452-45.388,22.201-45.388,52.247v83.994h479.971V419.99
				c0-30.046-14.64-40.795-45.396-52.247c-9.663-3.587-24.483-9.257-40.162-15.905c-16.256-6.82-29.85-13.266-40.388-19.155
				c-23.343-12.858-26.046-20.249-26.046-24.687c0-2.21,1.789-4,4-4s4,1.79,4,4c0,0.579,0.617,5.953,21.929,17.695
				c10.155,5.671,23.842,12.163,39.615,18.771c15.553,6.602,30.247,12.219,39.841,15.78c32.825,12.233,50.605,25.374,50.605,59.747
				v87.994C503.984,510.195,502.196,511.984,499.985,511.984z"/>
		</g>
		<g>
			<path fill="#3A3847" d="M395.991,160.006c-2.211,0-3.999-1.789-3.999-4C391.992,70.254,334.8,8.016,256,8.016
				s-135.992,62.238-135.992,147.99c0,2.211-1.789,4-4,4c-2.211,0-4-1.789-4-4c0-90.385,60.559-155.99,143.991-155.99
				c83.433,0,143.991,65.605,143.991,155.99C399.991,158.217,398.203,160.006,395.991,160.006z"/>
		</g>
		<g>
			<path fill="#3A3847" d="M256,335.995c-28.295,0-65.605-22.538-95.049-57.419c-4.492-5.327-8.703-10.804-12.539-16.284
				c-1.273-1.809-0.828-4.301,0.977-5.569c1.813-1.262,4.313-0.832,5.57,0.984c3.703,5.284,7.773,10.573,12.109,15.714
				c27.983,33.154,62.895,54.574,88.932,54.574c26.037,0,60.949-21.42,88.939-54.574c6.563-7.813,12.438-15.772,17.437-23.643
				c1.18-1.863,3.648-2.418,5.523-1.23c1.858,1.183,2.414,3.655,1.227,5.519c-5.188,8.171-11.273,16.417-18.069,24.51
				C321.605,313.457,284.295,335.995,256,335.995z"/>
		</g>
		<g>
			<path fill="#3A3847" d="M164.006,311.996c-2.211,0-4-1.789-4-4v-31.998c0-2.211,1.789-3.999,4-3.999c2.21,0,4,1.788,4,3.999
				v31.998C168.005,310.207,166.216,311.996,164.006,311.996z"/>
		</g>
		<g>
			<path fill="#3A3847" d="M347.994,311.996c-2.211,0-4-1.789-4-4v-31.998c0-2.211,1.789-3.999,4-3.999s4,1.788,4,3.999v31.998
				C351.994,310.207,350.205,311.996,347.994,311.996z"/>
		</g>
		<g>
			<path fill="#3A3847" d="M192.051,257.991c-11.351,0-23.538-2.237-35.248-6.468c-24.163-8.761-41.248-23.76-46.888-41.142
				c-4.453-13.749-1.719-28.089,8.141-42.622c0.976-1.438,2.772-2.105,4.445-1.587c1.672,0.493,2.828,2.013,2.867,3.755
				c0.031,1.655,1.156,40.56,27.951,40.556c3.031,0,6.352-0.492,9.867-1.457c12.718-3.504,23.952-7.738,33.865-11.472
				c14.351-5.41,25.686-9.68,35.576-9.68c7.093,0,12.866,2.238,17.671,6.844c6.343,6.085,9.703,13.034,9.703,20.084
				c0,17.23-19.601,33.03-51.146,41.229C203.792,257.332,198.144,257.991,192.051,257.991z M118.852,182.997
				c-3.461,8.589-3.914,16.932-1.328,24.916c4.797,14.8,20.499,28.291,42.005,36.088c16.312,5.902,34.6,7.569,47.317,4.284
				C234.274,241.157,252,228.014,252,214.803c0-4.819-2.507-9.769-7.242-14.311c-8.843-8.473-23.249-3.609-44.887,4.546
				c-10.07,3.797-21.491,8.102-34.561,11.699c-4.203,1.16-8.242,1.745-11.992,1.745
				C131.789,218.487,122.203,199.375,118.852,182.997z"/>
		</g>
		<g>
			<path fill="#3A3847" d="M320.035,258c-6.093,0-11.765-0.66-16.874-1.965C271.601,247.833,252,232.033,252,214.803
				c0-7.05,3.359-13.999,9.711-20.084c4.797-4.605,10.569-6.844,17.662-6.844c9.89,0,21.226,4.27,35.576,9.68
				c9.914,3.733,21.147,7.968,33.865,11.472c3.516,0.965,6.836,1.457,9.874,1.457c26.812,0,27.983-38.908,28.022-40.564
				c0.039-1.737,1.202-3.257,2.867-3.749c1.68-0.492,3.468,0.156,4.445,1.593c10.186,15.043,12.74,30.46,7.382,44.58
				c-8.647,22.783-35.021,36.85-56.817,42.411C336.339,256.875,327.848,258,320.035,258z M279.373,195.875
				c-4.991,0-8.843,1.465-12.124,4.617c-4.741,4.542-7.249,9.491-7.249,14.311c0,13.211,17.726,26.354,45.161,33.486
				c10.288,2.629,24.062,2.164,37.436-1.284c19.866-5.07,43.771-17.582,51.332-37.502c3.211-8.469,2.969-17.354-0.719-26.518
				c-3.375,16.377-12.991,35.497-34.521,35.497c-3.757,0-7.796-0.585-11.999-1.745c-13.069-3.598-24.49-7.902-34.561-11.699
				C298.536,199.918,287.803,195.875,279.373,195.875z"/>
		</g>
		<g>
			<path fill="#3A3847" d="M140.007,415.99c-2.211,0-4-1.789-4-4v-82.714c0-2.21,1.789-4,4-4s4,1.79,4,4v82.714
				C144.007,414.201,142.218,415.99,140.007,415.99z"/>
		</g>
		<g>
			<path fill="#3A3847" d="M371.992,415.99c-2.21,0-3.999-1.789-3.999-4v-82.714c0-2.21,1.789-4,3.999-4c2.211,0,4,1.79,4,4v82.714
				C375.992,414.201,374.203,415.99,371.992,415.99z"/>
		</g>
		<g>
			<path fill="#3A3847" d="M256,471.986c-54.497,0-91.26-10.53-109.274-31.295c-12.609-14.546-10.765-28.67-10.679-29.264
				c0.312-2.195,2.391-3.734,4.523-3.398c2.18,0.313,3.695,2.32,3.398,4.492l0,0c-0.054,0.469-1.32,11.43,9.015,23.17
				c11.367,12.906,38.458,28.295,103.017,28.295c64.863,0,91.939-15.521,103.228-28.545c10.25-11.811,8.82-22.779,8.805-22.89
				c-0.313-2.187,1.211-4.21,3.398-4.522c2.147-0.336,4.202,1.203,4.522,3.398c0.086,0.594,1.93,14.718-10.679,29.264
				C347.26,461.456,310.497,471.986,256,471.986z"/>
		</g>
		<g>
			<path fill="#3A3847" d="M411.99,511.984c-2.211,0-4-1.789-4-4V348.15c0-2.203,1.789-4,4-4s4,1.797,4,4v159.834
				C415.99,510.195,414.201,511.984,411.99,511.984z"/>
		</g>
		<g>
			<path fill="#3A3847" d="M100.01,511.984c-2.211,0-4-1.789-4-4V348.15c0-2.203,1.789-4,4-4s4,1.797,4,4v159.834
				C104.009,510.195,102.221,511.984,100.01,511.984z"/>
		</g>
	</g>
</g>
</svg>
