<?xml version="1.0" encoding="utf-8"?>
<!-- Generator: Adobe Illustrator 16.0.0, SVG Export Plug-In . SVG Version: 6.00 Build 0)  -->
<!DOCTYPE svg PUBLIC "-//W3C//DTD SVG 1.1//EN" "http://www.w3.org/Graphics/SVG/1.1/DTD/svg11.dtd">
<svg version="1.1" id="Слой_1" xmlns="http://www.w3.org/2000/svg" xmlns:xlink="http://www.w3.org/1999/xlink" x="0px" y="0px"
	 width="512px" height="512px" viewBox="0 0 512 512" enable-background="new 0 0 512 512" xml:space="preserve">
<g id="_x38__hairstyle_x2C__style_x2C__barbershop_x2C__man_x2C__people_x2C__male_x2C__short">
	<g>
		<path fill="#FC6E51" d="M443.988,363.954c-23.92-8.961-67.996-29.115-87.995-45.036l-9.436-9.437l-54.56,54.473L260,347.955h-8
			l-31.998,15.999l-54.477-54.473l-9.52,9.437c-19.92,15.921-64.074,36.075-87.995,45.036
			c-31.998,11.922-47.997,23.998-47.997,55.997c0,31.997,0,87.994,0,87.994H256h235.985c0,0,0-55.997,0-87.994
			C491.985,387.952,475.986,375.876,443.988,363.954z"/>
	</g>
	<g opacity="0.4">
		<g>
			<path fill="#FFFFFF" d="M36.013,435.949c0-31.998,15.999-44.075,47.998-55.996c23.92-8.961,68.074-29.115,87.994-45.036
				l9.519-9.437l-15.999-15.999l-9.52,9.437c-19.92,15.921-64.074,36.075-87.995,45.036c-31.998,11.922-47.997,23.998-47.997,55.997
				c0,31.997,0,87.994,0,87.994h15.999C36.013,488.954,36.013,457.198,36.013,435.949z"/>
		</g>
	</g>
	<g opacity="0.2">
		<path d="M443.988,363.954c-23.92-8.961-68.074-29.115-87.995-45.036l-5.437-5.391l0.023-0.031l-4.022-4.015l-0.048,0.038
			l-0.039-0.038l-15.998,15.999l0.03,0.031l-38.505,38.442L260,347.955h-8l-31.998,15.999l-54.477-54.473l-4.078,4.038
			l58.555,58.435L256,354.33l35.998,17.624l42.545-42.442l5.452,5.405c19.92,15.921,64.073,36.075,87.994,45.036
			c31.998,11.921,47.997,23.998,47.997,55.996c0,21.249,0,53.005,0,71.996h15.999c0,0,0-55.997,0-87.994
			C491.985,387.952,475.986,375.876,443.988,363.954z"/>
	</g>
	<g>
		<polygon fill="#E6E9ED" points="332.464,292.576 256,332.034 179.536,292.576 164.006,307.957 220.002,363.954 256,346.33 
			291.998,363.954 347.994,307.957 		"/>
	</g>
	<g>
		<path fill="#EAC6BB" d="M256,4.055c77.276,0,139.991,60.398,139.991,151.99c0,91.596-86.714,175.989-139.991,175.989
			c-53.278,0-139.991-84.393-139.991-175.989C116.009,64.453,178.646,4.055,256,4.055z"/>
	</g>
	<g opacity="0.2">
		<path d="M256,340.034c23.74,0,54.106-16.788,80.495-43.467l-4.031-3.991L256,332.034l-76.464-39.458l-4.031,3.991
			C201.894,323.246,232.259,340.034,256,340.034z"/>
	</g>
	<g>
		<path fill="#FFFFFF" d="M179.595,300.435c-1.359-1.297-2.75-2.516-4.09-3.867l-11.499,11.39l55.997,55.997l5.371-2.632
			l-53.368-53.365L179.595,300.435z"/>
	</g>
	<g opacity="0.2">
		<path d="M332.402,300.435c1.358-1.297,2.749-2.516,4.093-3.867l11.499,11.39l-55.996,55.997l-5.375-2.632l53.372-53.365
			L332.402,300.435z"/>
	</g>
	<g opacity="0.5">
		<path fill="#FFFFFF" d="M132.007,156.045c0-88.393,58.383-147.561,131.988-151.6c-2.659-0.145-5.296-0.39-7.995-0.39
			c-77.354,0-139.991,60.398-139.991,151.99c0,91.596,86.713,175.989,139.991,175.989c2.586,0,5.27-0.258,7.999-0.648
			C210.487,323.77,132.007,243.196,132.007,156.045z"/>
	</g>
	<g opacity="0.2">
		<path d="M379.992,156.045c0-88.393-58.387-147.561-131.992-151.6c2.656-0.145,5.296-0.39,8-0.39
			c77.354,0,139.991,60.398,139.991,151.99c0,91.596-86.714,175.989-139.991,175.989c-2.594,0-5.273-0.258-8-0.648
			C301.513,323.77,379.992,243.196,379.992,156.045z"/>
	</g>
	<g>
		<path fill="#3A3847" d="M136.242,104.025c-2.207,0-4.039-1.789-4.039-4c0-2.21,1.75-4,3.961-4h0.078c2.211,0,4,1.79,4,4
			C140.241,102.236,138.453,104.025,136.242,104.025z"/>
	</g>
	<g>
		<path fill="#3A3847" d="M160.24,96.025c-2.207,0-4.039-1.789-4.039-4c0-2.21,1.75-4,3.961-4h0.078c2.211,0,4,1.789,4,4
			C164.24,94.236,162.451,96.025,160.24,96.025z"/>
	</g>
	<g>
		<path fill="#3A3847" d="M144.241,96.025c-2.207,0-4.039-1.789-4.039-4c0-2.21,1.75-4,3.961-4h0.078c2.21,0,4,1.789,4,4
			C148.241,94.236,146.452,96.025,144.241,96.025z"/>
	</g>
	<g>
		<path fill="#3A3847" d="M168.24,88.026c-2.207,0-4.039-1.789-4.039-4s1.75-4,3.96-4h0.078c2.211,0,4,1.789,4,4
			S170.451,88.026,168.24,88.026z"/>
	</g>
	<g>
		<path fill="#3A3847" d="M152.241,88.026c-2.208,0-4.04-1.789-4.04-4s1.75-4,3.961-4h0.079c2.21,0,3.999,1.789,3.999,4
			S154.452,88.026,152.241,88.026z"/>
	</g>
	<g>
		<path fill="#3A3847" d="M136.242,88.026c-2.207,0-4.039-1.789-4.039-4s1.75-4,3.961-4h0.078c2.211,0,4,1.789,4,4
			S138.453,88.026,136.242,88.026z"/>
	</g>
	<g>
		<path fill="#3A3847" d="M160.24,80.026c-2.207,0-4.039-1.789-4.039-4c0-2.211,1.75-4,3.961-4h0.078c2.211,0,4,1.789,4,4
			C164.24,78.237,162.451,80.026,160.24,80.026z"/>
	</g>
	<g>
		<path fill="#3A3847" d="M144.241,80.026c-2.207,0-4.039-1.789-4.039-4c0-2.211,1.75-4,3.961-4h0.078c2.21,0,4,1.789,4,4
			C148.241,78.237,146.452,80.026,144.241,80.026z"/>
	</g>
	<g>
		<path fill="#3A3847" d="M376.234,104.025c-2.211,0-4.038-1.789-4.038-4c0-2.21,1.75-4,3.952-4h0.086c2.203,0,4,1.79,4,4
			C380.234,102.236,378.438,104.025,376.234,104.025z"/>
	</g>
	<g>
		<path fill="#3A3847" d="M352.236,96.025c-2.211,0-4.039-1.789-4.039-4c0-2.21,1.75-4,3.953-4h0.086c2.203,0,4,1.789,4,4
			C356.236,94.236,354.439,96.025,352.236,96.025z"/>
	</g>
	<g>
		<path fill="#3A3847" d="M368.235,96.025c-2.211,0-4.039-1.789-4.039-4c0-2.21,1.75-4,3.953-4h0.086c2.202,0,4,1.789,4,4
			C372.235,94.236,370.438,96.025,368.235,96.025z"/>
	</g>
	<g>
		<path fill="#3A3847" d="M344.237,88.026c-2.211,0-4.04-1.789-4.04-4s1.75-4,3.953-4h0.087c2.202,0,4,1.789,4,4
			S346.439,88.026,344.237,88.026z"/>
	</g>
	<g>
		<path fill="#3A3847" d="M360.235,88.026c-2.211,0-4.038-1.789-4.038-4s1.75-4,3.952-4h0.086c2.203,0,4,1.789,4,4
			S362.438,88.026,360.235,88.026z"/>
	</g>
	<g>
		<path fill="#3A3847" d="M376.234,88.026c-2.211,0-4.038-1.789-4.038-4s1.75-4,3.952-4h0.086c2.203,0,4,1.789,4,4
			S378.438,88.026,376.234,88.026z"/>
	</g>
	<g>
		<path fill="#3A3847" d="M352.236,80.026c-2.211,0-4.039-1.789-4.039-4c0-2.211,1.75-4,3.953-4h0.086c2.203,0,4,1.789,4,4
			C356.236,78.237,354.439,80.026,352.236,80.026z"/>
	</g>
	<g>
		<path fill="#3A3847" d="M368.235,80.026c-2.211,0-4.039-1.789-4.039-4c0-2.211,1.75-4,3.953-4h0.086c2.202,0,4,1.789,4,4
			C372.235,78.237,370.438,80.026,368.235,80.026z"/>
	</g>
	<g>
		<path fill="#3A3847" d="M184.239,56.027c-2.207,0-4.039-1.789-4.039-4c0-2.21,1.75-4,3.961-4h0.078c2.21,0,4,1.789,4,4
			C188.239,54.239,186.449,56.027,184.239,56.027z"/>
	</g>
	<g>
		<path fill="#3A3847" d="M176.239,64.027c-2.207,0-4.039-1.789-4.039-4c0-2.21,1.75-4,3.961-4h0.078c2.211,0,4,1.79,4,4
			C180.239,62.238,178.45,64.027,176.239,64.027z"/>
	</g>
	<g>
		<path fill="#3A3847" d="M192.239,64.027c-2.208,0-4.04-1.789-4.04-4c0-2.21,1.75-4,3.961-4h0.079c2.21,0,3.999,1.79,3.999,4
			C196.238,62.238,194.449,64.027,192.239,64.027z"/>
	</g>
	<g>
		<path fill="#3A3847" d="M208.237,64.027c-2.207,0-4.039-1.789-4.039-4c0-2.21,1.75-4,3.96-4h0.078c2.211,0,4,1.79,4,4
			C212.237,62.238,210.448,64.027,208.237,64.027z"/>
	</g>
	<g>
		<path fill="#3A3847" d="M224.236,64.027c-2.207,0-4.039-1.789-4.039-4c0-2.21,1.75-4,3.96-4h0.078c2.21,0,4,1.79,4,4
			C228.236,62.238,226.447,64.027,224.236,64.027z"/>
	</g>
	<g>
		<path fill="#3A3847" d="M240.235,64.027c-2.207,0-4.039-1.789-4.039-4c0-2.21,1.75-4,3.961-4h0.078c2.211,0,4,1.79,4,4
			C244.235,62.238,242.446,64.027,240.235,64.027z"/>
	</g>
	<g>
		<path fill="#3A3847" d="M256.234,64.027c-2.207,0-4.039-1.789-4.039-4c0-2.21,1.75-4,3.961-4h0.078c2.211,0,3.999,1.79,3.999,4
			C260.233,62.238,258.445,64.027,256.234,64.027z"/>
	</g>
	<g>
		<path fill="#3A3847" d="M272.241,64.027c-2.211,0-4.038-1.789-4.038-4c0-2.21,1.75-4,3.952-4h0.086c2.203,0,4,1.79,4,4
			C276.241,62.238,274.444,64.027,272.241,64.027z"/>
	</g>
	<g>
		<path fill="#3A3847" d="M240.235,80.026c-2.207,0-4.039-1.789-4.039-4c0-2.211,1.75-4,3.961-4h0.078c2.211,0,4,1.789,4,4
			C244.235,78.237,242.446,80.026,240.235,80.026z"/>
	</g>
	<g>
		<path fill="#3A3847" d="M224.236,80.026c-2.207,0-4.039-1.789-4.039-4c0-2.211,1.75-4,3.96-4h0.078c2.21,0,4,1.789,4,4
			C228.236,78.237,226.447,80.026,224.236,80.026z"/>
	</g>
	<g>
		<path fill="#3A3847" d="M208.237,80.026c-2.207,0-4.039-1.789-4.039-4c0-2.211,1.75-4,3.96-4h0.078c2.211,0,4,1.789,4,4
			C212.237,78.237,210.448,80.026,208.237,80.026z"/>
	</g>
	<g>
		<path fill="#3A3847" d="M256.234,80.026c-2.207,0-4.039-1.789-4.039-4c0-2.211,1.75-4,3.961-4h0.078c2.211,0,3.999,1.789,3.999,4
			C260.233,78.237,258.445,80.026,256.234,80.026z"/>
	</g>
	<g>
		<path fill="#3A3847" d="M272.241,80.026c-2.211,0-4.038-1.789-4.038-4c0-2.211,1.75-4,3.952-4h0.086c2.203,0,4,1.789,4,4
			C276.241,78.237,274.444,80.026,272.241,80.026z"/>
	</g>
	<g>
		<path fill="#3A3847" d="M288.24,80.026c-2.211,0-4.039-1.789-4.039-4c0-2.211,1.75-4,3.953-4h0.086c2.202,0,4,1.789,4,4
			C292.24,78.237,290.442,80.026,288.24,80.026z"/>
	</g>
	<g>
		<path fill="#3A3847" d="M304.239,80.026c-2.211,0-4.039-1.789-4.039-4c0-2.211,1.75-4,3.953-4h0.086c2.203,0,3.999,1.789,3.999,4
			C308.238,78.237,306.442,80.026,304.239,80.026z"/>
	</g>
	<g>
		<path fill="#3A3847" d="M304.239,64.027c-2.211,0-4.039-1.789-4.039-4c0-2.21,1.75-4,3.953-4h0.086c2.203,0,3.999,1.79,3.999,4
			C308.238,62.238,306.442,64.027,304.239,64.027z"/>
	</g>
	<g>
		<path fill="#3A3847" d="M288.24,64.027c-2.211,0-4.039-1.789-4.039-4c0-2.21,1.75-4,3.953-4h0.086c2.202,0,4,1.79,4,4
			C292.24,62.238,290.442,64.027,288.24,64.027z"/>
	</g>
	<g>
		<path fill="#3A3847" d="M320.238,64.027c-2.211,0-4.039-1.789-4.039-4c0-2.21,1.75-4,3.953-4h0.086c2.203,0,4,1.79,4,4
			C324.238,62.238,322.441,64.027,320.238,64.027z"/>
	</g>
	<g>
		<path fill="#3A3847" d="M336.237,64.027c-2.211,0-4.039-1.789-4.039-4c0-2.21,1.75-4,3.953-4h0.086c2.203,0,4,1.79,4,4
			C340.237,62.238,338.44,64.027,336.237,64.027z"/>
	</g>
	<g>
		<path fill="#3A3847" d="M352.236,64.027c-2.211,0-4.039-1.789-4.039-4c0-2.21,1.75-4,3.953-4h0.086c2.203,0,4,1.79,4,4
			C356.236,62.238,354.439,64.027,352.236,64.027z"/>
	</g>
	<g>
		<path fill="#3A3847" d="M168.24,56.027c-2.207,0-4.039-1.789-4.039-4c0-2.21,1.75-4,3.96-4h0.078c2.211,0,4,1.789,4,4
			C172.239,54.239,170.451,56.027,168.24,56.027z"/>
	</g>
	<g>
		<path fill="#3A3847" d="M176.239,48.028c-2.207,0-4.039-1.789-4.039-4s1.75-4,3.961-4h0.078c2.211,0,4,1.789,4,4
			S178.45,48.028,176.239,48.028z"/>
	</g>
	<g>
		<path fill="#3A3847" d="M184.239,40.029c-2.207,0-4.039-1.789-4.039-4c0-2.211,1.75-4,3.961-4h0.078c2.21,0,4,1.789,4,4
			C188.239,38.24,186.449,40.029,184.239,40.029z"/>
	</g>
	<g>
		<path fill="#3A3847" d="M200.238,40.029c-2.207,0-4.039-1.789-4.039-4c0-2.211,1.75-4,3.961-4h0.078c2.211,0,4,1.789,4,4
			C204.238,38.24,202.449,40.029,200.238,40.029z"/>
	</g>
	<g>
		<path fill="#3A3847" d="M216.237,40.029c-2.207,0-4.039-1.789-4.039-4c0-2.211,1.75-4,3.961-4h0.078c2.211,0,4,1.789,4,4
			C220.236,38.24,218.448,40.029,216.237,40.029z"/>
	</g>
	<g>
		<path fill="#3A3847" d="M232.236,40.029c-2.207,0-4.039-1.789-4.039-4c0-2.211,1.75-4,3.961-4h0.078c2.211,0,4,1.789,4,4
			C236.235,38.24,234.447,40.029,232.236,40.029z"/>
	</g>
	<g>
		<path fill="#3A3847" d="M248.235,40.029c-2.207,0-4.039-1.789-4.039-4c0-2.211,1.75-4,3.96-4h0.078c2.211,0,4,1.789,4,4
			C252.234,38.24,250.446,40.029,248.235,40.029z"/>
	</g>
	<g>
		<path fill="#3A3847" d="M264.233,40.029c-2.206,0-4.038-1.789-4.038-4c0-2.211,1.749-4,3.96-4h0.078c2.211,0,4,1.789,4,4
			C268.233,38.24,266.444,40.029,264.233,40.029z"/>
	</g>
	<g>
		<path fill="#3A3847" d="M280.24,40.029c-2.211,0-4.038-1.789-4.038-4c0-2.211,1.75-4,3.953-4h0.085c2.203,0,4,1.789,4,4
			C284.24,38.24,282.443,40.029,280.24,40.029z"/>
	</g>
	<g>
		<path fill="#3A3847" d="M296.239,40.029c-2.211,0-4.038-1.789-4.038-4c0-2.211,1.75-4,3.952-4h0.086c2.203,0,4,1.789,4,4
			C300.239,38.24,298.442,40.029,296.239,40.029z"/>
	</g>
	<g>
		<path fill="#3A3847" d="M312.238,40.029c-2.211,0-4.038-1.789-4.038-4c0-2.211,1.749-4,3.952-4h0.086c2.203,0,4,1.789,4,4
			C316.238,38.24,314.441,40.029,312.238,40.029z"/>
	</g>
	<g>
		<path fill="#3A3847" d="M328.238,40.029c-2.211,0-4.039-1.789-4.039-4c0-2.211,1.749-4,3.953-4h0.086c2.203,0,4,1.789,4,4
			C332.238,38.24,330.441,40.029,328.238,40.029z"/>
	</g>
	<g>
		<path fill="#3A3847" d="M192.239,48.028c-2.208,0-4.04-1.789-4.04-4s1.75-4,3.961-4h0.079c2.21,0,3.999,1.789,3.999,4
			S194.449,48.028,192.239,48.028z"/>
	</g>
	<g>
		<path fill="#3A3847" d="M208.237,48.028c-2.207,0-4.039-1.789-4.039-4s1.75-4,3.96-4h0.078c2.211,0,4,1.789,4,4
			S210.448,48.028,208.237,48.028z"/>
	</g>
	<g>
		<path fill="#3A3847" d="M224.236,48.028c-2.207,0-4.039-1.789-4.039-4s1.75-4,3.96-4h0.078c2.21,0,4,1.789,4,4
			S226.447,48.028,224.236,48.028z"/>
	</g>
	<g>
		<path fill="#3A3847" d="M240.235,48.028c-2.207,0-4.039-1.789-4.039-4s1.75-4,3.961-4h0.078c2.211,0,4,1.789,4,4
			S242.446,48.028,240.235,48.028z"/>
	</g>
	<g>
		<path fill="#3A3847" d="M256.234,48.028c-2.207,0-4.039-1.789-4.039-4s1.75-4,3.961-4h0.078c2.211,0,3.999,1.789,3.999,4
			S258.445,48.028,256.234,48.028z"/>
	</g>
	<g>
		<path fill="#3A3847" d="M272.241,48.028c-2.211,0-4.038-1.789-4.038-4s1.75-4,3.952-4h0.086c2.203,0,4,1.789,4,4
			S274.444,48.028,272.241,48.028z"/>
	</g>
	<g>
		<path fill="#3A3847" d="M288.24,48.028c-2.211,0-4.039-1.789-4.039-4s1.75-4,3.953-4h0.086c2.202,0,4,1.789,4,4
			S290.442,48.028,288.24,48.028z"/>
	</g>
	<g>
		<path fill="#3A3847" d="M304.239,48.028c-2.211,0-4.039-1.789-4.039-4s1.75-4,3.953-4h0.086c2.203,0,3.999,1.789,3.999,4
			S306.442,48.028,304.239,48.028z"/>
	</g>
	<g>
		<path fill="#3A3847" d="M320.238,48.028c-2.211,0-4.039-1.789-4.039-4s1.75-4,3.953-4h0.086c2.203,0,4,1.789,4,4
			S322.441,48.028,320.238,48.028z"/>
	</g>
	<g>
		<path fill="#3A3847" d="M336.237,48.028c-2.211,0-4.039-1.789-4.039-4s1.75-4,3.953-4h0.086c2.203,0,4,1.789,4,4
			S338.44,48.028,336.237,48.028z"/>
	</g>
	<g>
		<path fill="#3A3847" d="M200.238,24.029c-2.207,0-4.039-1.789-4.039-4c0-2.21,1.75-4,3.961-4h0.078c2.211,0,4,1.79,4,4
			C204.238,22.241,202.449,24.029,200.238,24.029z"/>
	</g>
	<g>
		<path fill="#3A3847" d="M216.237,24.029c-2.207,0-4.039-1.789-4.039-4c0-2.21,1.75-4,3.961-4h0.078c2.211,0,4,1.79,4,4
			C220.236,22.241,218.448,24.029,216.237,24.029z"/>
	</g>
	<g>
		<path fill="#3A3847" d="M232.236,24.029c-2.207,0-4.039-1.789-4.039-4c0-2.21,1.75-4,3.961-4h0.078c2.211,0,4,1.79,4,4
			C236.235,22.241,234.447,24.029,232.236,24.029z"/>
	</g>
	<g>
		<path fill="#3A3847" d="M248.235,24.029c-2.207,0-4.039-1.789-4.039-4c0-2.21,1.75-4,3.96-4h0.078c2.211,0,4,1.79,4,4
			C252.234,22.241,250.446,24.029,248.235,24.029z"/>
	</g>
	<g>
		<path fill="#3A3847" d="M264.233,24.029c-2.206,0-4.038-1.789-4.038-4c0-2.21,1.749-4,3.96-4h0.078c2.211,0,4,1.79,4,4
			C268.233,22.241,266.444,24.029,264.233,24.029z"/>
	</g>
	<g>
		<path fill="#3A3847" d="M280.24,24.029c-2.211,0-4.038-1.789-4.038-4c0-2.21,1.75-4,3.953-4h0.085c2.203,0,4,1.79,4,4
			C284.24,22.241,282.443,24.029,280.24,24.029z"/>
	</g>
	<g>
		<path fill="#3A3847" d="M296.239,24.029c-2.211,0-4.038-1.789-4.038-4c0-2.21,1.75-4,3.952-4h0.086c2.203,0,4,1.79,4,4
			C300.239,22.241,298.442,24.029,296.239,24.029z"/>
	</g>
	<g>
		<path fill="#3A3847" d="M312.238,24.029c-2.211,0-4.038-1.789-4.038-4c0-2.21,1.749-4,3.952-4h0.086c2.203,0,4,1.79,4,4
			C316.238,22.241,314.441,24.029,312.238,24.029z"/>
	</g>
	<g>
		<path fill="#3A3847" d="M192.239,32.029c-2.208,0-4.04-1.79-4.04-4c0-2.211,1.75-4,3.961-4h0.079c2.21,0,3.999,1.789,3.999,4
			C196.238,30.24,194.449,32.029,192.239,32.029z"/>
	</g>
	<g>
		<path fill="#3A3847" d="M208.237,32.029c-2.207,0-4.039-1.79-4.039-4c0-2.211,1.75-4,3.96-4h0.078c2.211,0,4,1.789,4,4
			C212.237,30.24,210.448,32.029,208.237,32.029z"/>
	</g>
	<g>
		<path fill="#3A3847" d="M224.236,32.029c-2.207,0-4.039-1.79-4.039-4c0-2.211,1.75-4,3.96-4h0.078c2.21,0,4,1.789,4,4
			C228.236,30.24,226.447,32.029,224.236,32.029z"/>
	</g>
	<g>
		<path fill="#3A3847" d="M240.235,32.029c-2.207,0-4.039-1.79-4.039-4c0-2.211,1.75-4,3.961-4h0.078c2.211,0,4,1.789,4,4
			C244.235,30.24,242.446,32.029,240.235,32.029z"/>
	</g>
	<g>
		<path fill="#3A3847" d="M256.234,32.029c-2.207,0-4.039-1.79-4.039-4c0-2.211,1.75-4,3.961-4h0.078c2.211,0,3.999,1.789,3.999,4
			C260.233,30.24,258.445,32.029,256.234,32.029z"/>
	</g>
	<g>
		<path fill="#3A3847" d="M272.241,32.029c-2.211,0-4.038-1.79-4.038-4c0-2.211,1.75-4,3.952-4h0.086c2.203,0,4,1.789,4,4
			C276.241,30.24,274.444,32.029,272.241,32.029z"/>
	</g>
	<g>
		<path fill="#3A3847" d="M288.24,32.029c-2.211,0-4.039-1.79-4.039-4c0-2.211,1.75-4,3.953-4h0.086c2.202,0,4,1.789,4,4
			C292.24,30.24,290.442,32.029,288.24,32.029z"/>
	</g>
	<g>
		<path fill="#3A3847" d="M304.239,32.029c-2.211,0-4.039-1.79-4.039-4c0-2.211,1.75-4,3.953-4h0.086c2.203,0,3.999,1.789,3.999,4
			C308.238,30.24,306.442,32.029,304.239,32.029z"/>
	</g>
	<g>
		<path fill="#3A3847" d="M320.238,32.029c-2.211,0-4.039-1.79-4.039-4c0-2.211,1.75-4,3.953-4h0.086c2.203,0,4,1.789,4,4
			C324.238,30.24,322.441,32.029,320.238,32.029z"/>
	</g>
	<g>
		<path fill="#3A3847" d="M224.236,16.03c-2.207,0-4.039-1.789-4.039-4s1.75-4,3.96-4h0.078c2.21,0,4,1.789,4,4
			S226.447,16.03,224.236,16.03z"/>
	</g>
	<g>
		<path fill="#3A3847" d="M240.235,16.03c-2.207,0-4.039-1.789-4.039-4s1.75-4,3.961-4h0.078c2.211,0,4,1.789,4,4
			S242.446,16.03,240.235,16.03z"/>
	</g>
	<g>
		<path fill="#3A3847" d="M256.234,16.03c-2.207,0-4.039-1.789-4.039-4s1.75-4,3.961-4h0.078c2.211,0,3.999,1.789,3.999,4
			S258.445,16.03,256.234,16.03z"/>
	</g>
	<g>
		<path fill="#3A3847" d="M272.241,16.03c-2.211,0-4.038-1.789-4.038-4s1.75-4,3.952-4h0.086c2.203,0,4,1.789,4,4
			S274.444,16.03,272.241,16.03z"/>
	</g>
	<g>
		<path fill="#3A3847" d="M288.24,16.03c-2.211,0-4.039-1.789-4.039-4s1.75-4,3.953-4h0.086c2.202,0,4,1.789,4,4
			S290.442,16.03,288.24,16.03z"/>
	</g>
	<g>
		<path fill="#3A3847" d="M160.24,64.027c-2.207,0-4.039-1.789-4.039-4c0-2.21,1.75-4,3.961-4h0.078c2.211,0,4,1.79,4,4
			C164.24,62.238,162.451,64.027,160.24,64.027z"/>
	</g>
	<g>
		<path fill="#3A3847" d="M200.238,56.027c-2.207,0-4.039-1.789-4.039-4c0-2.21,1.75-4,3.961-4h0.078c2.211,0,4,1.789,4,4
			C204.238,54.239,202.449,56.027,200.238,56.027z"/>
	</g>
	<g>
		<path fill="#3A3847" d="M216.237,56.027c-2.207,0-4.039-1.789-4.039-4c0-2.21,1.75-4,3.961-4h0.078c2.211,0,4,1.789,4,4
			C220.236,54.239,218.448,56.027,216.237,56.027z"/>
	</g>
	<g>
		<path fill="#3A3847" d="M232.236,56.027c-2.207,0-4.039-1.789-4.039-4c0-2.21,1.75-4,3.961-4h0.078c2.211,0,4,1.789,4,4
			C236.235,54.239,234.447,56.027,232.236,56.027z"/>
	</g>
	<g>
		<path fill="#3A3847" d="M248.235,56.027c-2.207,0-4.039-1.789-4.039-4c0-2.21,1.75-4,3.96-4h0.078c2.211,0,4,1.789,4,4
			C252.234,54.239,250.446,56.027,248.235,56.027z"/>
	</g>
	<g>
		<path fill="#3A3847" d="M264.233,56.027c-2.206,0-4.038-1.789-4.038-4c0-2.21,1.749-4,3.96-4h0.078c2.211,0,4,1.789,4,4
			C268.233,54.239,266.444,56.027,264.233,56.027z"/>
	</g>
	<g>
		<path fill="#3A3847" d="M280.24,56.027c-2.211,0-4.038-1.789-4.038-4c0-2.21,1.75-4,3.953-4h0.085c2.203,0,4,1.789,4,4
			C284.24,54.239,282.443,56.027,280.24,56.027z"/>
	</g>
	<g>
		<path fill="#3A3847" d="M296.239,56.027c-2.211,0-4.038-1.789-4.038-4c0-2.21,1.75-4,3.952-4h0.086c2.203,0,4,1.789,4,4
			C300.239,54.239,298.442,56.027,296.239,56.027z"/>
	</g>
	<g>
		<path fill="#3A3847" d="M312.238,56.027c-2.211,0-4.038-1.789-4.038-4c0-2.21,1.749-4,3.952-4h0.086c2.203,0,4,1.789,4,4
			C316.238,54.239,314.441,56.027,312.238,56.027z"/>
	</g>
	<g>
		<path fill="#3A3847" d="M328.238,56.027c-2.211,0-4.039-1.789-4.039-4c0-2.21,1.749-4,3.953-4h0.086c2.203,0,4,1.789,4,4
			C332.238,54.239,330.441,56.027,328.238,56.027z"/>
	</g>
	<g>
		<path fill="#3A3847" d="M344.237,56.027c-2.211,0-4.04-1.789-4.04-4c0-2.21,1.75-4,3.953-4h0.087c2.202,0,4,1.789,4,4
			C348.237,54.239,346.439,56.027,344.237,56.027z"/>
	</g>
	<g>
		<path fill="#3A3847" d="M168.24,72.027c-2.207,0-4.039-1.79-4.039-4c0-2.211,1.75-4,3.96-4h0.078c2.211,0,4,1.789,4,4
			C172.239,70.237,170.451,72.027,168.24,72.027z"/>
	</g>
	<g>
		<path fill="#3A3847" d="M184.239,72.027c-2.207,0-4.039-1.79-4.039-4c0-2.211,1.75-4,3.961-4h0.078c2.21,0,4,1.789,4,4
			C188.239,70.237,186.449,72.027,184.239,72.027z"/>
	</g>
	<g>
		<path fill="#3A3847" d="M200.238,72.027c-2.207,0-4.039-1.79-4.039-4c0-2.211,1.75-4,3.961-4h0.078c2.211,0,4,1.789,4,4
			C204.238,70.237,202.449,72.027,200.238,72.027z"/>
	</g>
	<g>
		<path fill="#3A3847" d="M216.237,72.027c-2.207,0-4.039-1.79-4.039-4c0-2.211,1.75-4,3.961-4h0.078c2.211,0,4,1.789,4,4
			C220.236,70.237,218.448,72.027,216.237,72.027z"/>
	</g>
	<g>
		<path fill="#3A3847" d="M232.236,72.027c-2.207,0-4.039-1.79-4.039-4c0-2.211,1.75-4,3.961-4h0.078c2.211,0,4,1.789,4,4
			C236.235,70.237,234.447,72.027,232.236,72.027z"/>
	</g>
	<g>
		<path fill="#3A3847" d="M248.235,72.027c-2.207,0-4.039-1.79-4.039-4c0-2.211,1.75-4,3.96-4h0.078c2.211,0,4,1.789,4,4
			C252.234,70.237,250.446,72.027,248.235,72.027z"/>
	</g>
	<g>
		<path fill="#3A3847" d="M264.233,72.027c-2.206,0-4.038-1.79-4.038-4c0-2.211,1.749-4,3.96-4h0.078c2.211,0,4,1.789,4,4
			C268.233,70.237,266.444,72.027,264.233,72.027z"/>
	</g>
	<g>
		<path fill="#3A3847" d="M280.24,72.027c-2.211,0-4.038-1.79-4.038-4c0-2.211,1.75-4,3.953-4h0.085c2.203,0,4,1.789,4,4
			C284.24,70.237,282.443,72.027,280.24,72.027z"/>
	</g>
	<g>
		<path fill="#3A3847" d="M296.239,72.027c-2.211,0-4.038-1.79-4.038-4c0-2.211,1.75-4,3.952-4h0.086c2.203,0,4,1.789,4,4
			C300.239,70.237,298.442,72.027,296.239,72.027z"/>
	</g>
	<g>
		<path fill="#3A3847" d="M312.238,72.027c-2.211,0-4.038-1.79-4.038-4c0-2.211,1.749-4,3.952-4h0.086c2.203,0,4,1.789,4,4
			C316.238,70.237,314.441,72.027,312.238,72.027z"/>
	</g>
	<g>
		<path fill="#3A3847" d="M328.238,72.027c-2.211,0-4.039-1.79-4.039-4c0-2.211,1.749-4,3.953-4h0.086c2.203,0,4,1.789,4,4
			C332.238,70.237,330.441,72.027,328.238,72.027z"/>
	</g>
	<g>
		<path fill="#3A3847" d="M344.237,72.027c-2.211,0-4.04-1.79-4.04-4c0-2.211,1.75-4,3.953-4h0.087c2.202,0,4,1.789,4,4
			C348.237,70.237,346.439,72.027,344.237,72.027z"/>
	</g>
	<g>
		<path fill="#3A3847" d="M360.235,72.027c-2.211,0-4.038-1.79-4.038-4c0-2.211,1.75-4,3.952-4h0.086c2.203,0,4,1.789,4,4
			C364.235,70.237,362.438,72.027,360.235,72.027z"/>
	</g>
	<g>
		<path fill="#3A3847" d="M152.241,72.027c-2.208,0-4.04-1.79-4.04-4c0-2.211,1.75-4,3.961-4h0.079c2.21,0,3.999,1.789,3.999,4
			C156.24,70.237,154.452,72.027,152.241,72.027z"/>
	</g>
	<g>
		<g>
			<path fill="#3A3847" d="M256,336.034c-54.247,0-143.991-84.124-143.991-179.989c0-90.385,60.559-155.99,143.991-155.99
				c83.433,0,143.991,65.605,143.991,155.99C399.991,251.91,310.247,336.034,256,336.034z M256,8.054
				c-78.8,0-135.992,62.238-135.992,147.991c0,88.686,84.838,171.989,135.992,171.989c51.152,0,135.992-83.303,135.992-171.989
				C391.992,70.292,334.8,8.054,256,8.054z"/>
		</g>
		<g>
			<path fill="#3A3847" d="M491.985,511.945H20.015c-2.211,0-4-1.789-4-4v-87.994c0-34.381,17.784-47.521,50.602-59.747
				c24.472-9.163,67.614-29.006,86.894-44.411c1.73-1.375,4.242-1.094,5.621,0.625c1.379,1.733,1.098,4.25-0.629,5.624
				c-19.963,15.953-64.113,36.303-89.088,45.654c-30.763,11.468-45.399,22.201-45.399,52.255v83.994h463.971v-83.994
				c0-30.054-14.639-40.787-45.396-52.247c-24.889-9.32-68.98-29.647-89.088-45.662c-1.727-1.374-2.016-3.891-0.641-5.616
				c1.382-1.727,3.913-1.999,5.625-0.633c19.428,15.452,62.512,35.279,86.908,44.419c32.811,12.219,50.591,25.358,50.591,59.739
				v87.994C495.985,510.156,494.196,511.945,491.985,511.945z"/>
		</g>
		<g>
			<path fill="#3A3847" d="M347.994,311.957c-1.023,0-2.047-0.391-2.827-1.171l-8-8c-1.563-1.563-1.563-4.094,0-5.655
				c1.562-1.563,4.094-1.563,5.655,0l8,7.999c1.563,1.562,1.563,4.093,0,5.656C350.041,311.566,349.018,311.957,347.994,311.957z"/>
		</g>
		<g>
			<path fill="#3A3847" d="M291.998,367.954c-1.024,0-2.047-0.391-2.828-1.172c-1.563-1.57-1.563-4.101,0-5.664l55.918-55.911
				c1.516-1.601,4.047-1.68,5.656-0.155c1.602,1.523,1.672,4.055,0.156,5.655l-1.438,1.523l-54.637,54.56
				C294.044,367.563,293.021,367.954,291.998,367.954z"/>
		</g>
		<g>
			<path fill="#3A3847" d="M291.998,367.954c-0.602,0-1.211-0.133-1.789-0.423l-31.998-15.999c-1.977-0.991-2.777-3.39-1.79-5.365
				c0.989-1.978,3.399-2.767,5.367-1.79l31.999,16c1.976,0.991,2.773,3.39,1.788,5.366
				C294.873,367.149,293.458,367.954,291.998,367.954z"/>
		</g>
		<g>
			<path fill="#3A3847" d="M164.006,311.957c-1.024,0-2.047-0.391-2.828-1.171c-1.563-1.563-1.563-4.095,0-5.656l8-7.999
				c1.562-1.563,4.093-1.563,5.656,0c1.562,1.562,1.562,4.093,0,5.655l-8,8C166.052,311.566,165.029,311.957,164.006,311.957z"/>
		</g>
		<g>
			<path fill="#3A3847" d="M220.002,367.954c-1.024,0-2.047-0.391-2.829-1.172l-55.996-55.996c-1.563-1.563-1.563-4.095,0-5.656
				c1.563-1.563,4.093-1.563,5.656,0l55.997,55.996c1.563,1.563,1.563,4.094,0,5.656
				C222.049,367.563,221.025,367.954,220.002,367.954z"/>
		</g>
		<g>
			<path fill="#3A3847" d="M220.006,367.954c-1.469,0-2.879-0.805-3.583-2.211c-0.987-1.977-0.187-4.375,1.79-5.366l31.998-16
				c1.972-0.977,4.378-0.188,5.367,1.79c0.988,1.976,0.188,4.374-1.789,5.365l-31.998,15.999
				C221.217,367.821,220.608,367.954,220.006,367.954z"/>
		</g>
		<g>
			<path fill="#3A3847" d="M256,511.945c-2.211,0-4-1.789-4-4V356.032c0-2.21,1.789-4,4-4s4,1.79,4,4v151.913
				C260,510.156,258.211,511.945,256,511.945z"/>
		</g>
		<g>
			<path fill="#3A3847" d="M267.999,400.03c-1.461,0-2.875-0.805-3.577-2.211l-12-23.998c-0.988-1.977-0.188-4.375,1.789-5.367
				c1.977-0.984,4.375-0.188,5.367,1.788l11.999,24c0.984,1.976,0.188,4.374-1.789,5.365
				C269.21,399.896,268.601,400.03,267.999,400.03z"/>
		</g>
	</g>
</g>
</svg>
