<?xml version="1.0" encoding="utf-8"?>
<!-- Generator: Adobe Illustrator 16.0.0, SVG Export Plug-In . SVG Version: 6.00 Build 0)  -->
<!DOCTYPE svg PUBLIC "-//W3C//DTD SVG 1.1//EN" "http://www.w3.org/Graphics/SVG/1.1/DTD/svg11.dtd">
<svg version="1.1" id="Слой_1" xmlns="http://www.w3.org/2000/svg" xmlns:xlink="http://www.w3.org/1999/xlink" x="0px" y="0px"
	 width="512px" height="512px" viewBox="0 0 512 512" enable-background="new 0 0 512 512" xml:space="preserve">
<g id="_x35__hairstyle_x2C__style_x2C__mustache_x2C__man_x2C__people_x2C__hipster_x2C__beard">
	<g>
		<path fill="#ED5565" d="M443.988,403.99c-9.522-3.524-21.037-6.398-33.521-10.398c-9.758-3.046-20.077-6.804-30.476-12.085
			l-17.843-4.641c-1.358,2.32-2.797,4.727-4.312,7.125c-27.444,43.356-67.996,61.598-88.722,68.395
			c-2.391,0.805-4.476,1.43-6.288,1.937l-0.11-0.414c-3.734,1.086-6.296,1.673-7.483,1.923c-1.18-0.25-3.742-0.837-7.476-1.923
			l-0.109,0.414c-1.813-0.507-3.898-1.132-6.289-1.937c-20.726-6.797-61.278-25.038-88.722-68.395
			c-1.515-2.398-2.953-4.805-4.312-7.125l-17.842,4.641c-10.398,5.281-20.718,9.039-30.475,12.085
			c-12.484,4-23.999,6.874-33.521,10.398c-31.998,11.921-47.998,23.998-47.998,55.995c0,31.999,0,47.998,0,47.998h174.552h49.434
			h1.524h22.475h1.523h49.435h174.552c0,0,0-15.999,0-47.998C491.985,427.988,475.986,415.911,443.988,403.99z"/>
	</g>
	<g opacity="0.3">
		<g>
			<path fill="#FFFFFF" d="M34.49,475.985c0-31.998,15.999-44.075,47.997-55.996c9.522-3.523,21.038-6.398,33.521-10.398
				c9.757-3.046,20.077-6.805,30.475-12.085l13.171-3.422c-2.406-3.218-4.766-6.546-7.016-10.093
				c-1.515-2.398-2.953-4.805-4.312-7.125l-17.842,4.641c-10.398,5.281-20.718,9.039-30.475,12.085
				c-12.484,4-23.999,6.874-33.521,10.398c-31.998,11.921-47.998,23.998-47.998,55.995c0,31.999,0,47.998,0,47.998h16
				C34.49,500.156,34.49,489.609,34.49,475.985z"/>
		</g>
	</g>
	<g opacity="0.2">
		<g>
			<path d="M476.557,475.985c0-31.998-15.999-44.075-47.997-55.996c-9.522-3.523-21.037-6.398-33.521-10.398
				c-9.757-3.046-20.076-6.805-30.475-12.085l-13.171-3.422c2.406-3.218,4.766-6.546,7.016-10.093
				c1.515-2.398,2.953-4.805,4.312-7.125l17.843,4.641c10.398,5.281,20.718,9.039,30.476,12.085
				c12.483,4,23.998,6.874,33.521,10.398c31.998,11.921,47.997,23.998,47.997,55.995c0,31.999,0,47.998,0,47.998h-15.999
				C476.557,500.156,476.557,489.609,476.557,475.985z"/>
		</g>
	</g>
	<g>
		<rect x="244.001" y="452.386" fill="#E6E9ED" width="25.115" height="55.598"/>
	</g>
	<g>
		<path fill="#EAC6BB" d="M354.572,85.373l-6.734,9.116c-12.641,14.078-32.639,25.44-63.84,29.999
			c-10.022,1.477-19.335,2.453-27.998,3.004c-8.664-0.551-17.976-1.527-27.999-3.004c-31.201-4.559-51.2-15.921-63.84-29.999
			l-6.733-9.116c-28.67,26.635-41.419,70.554-41.419,110.63c0,5.281,0.32,10.48,0.882,15.761L121.368,224
			c0,0,1.039,54.395,42.88,42.873c41.833-11.515,67.277-30.713,83.276-15.272c5.757,5.52,8.476,11.437,8.476,17.194
			c0-5.758,2.719-11.675,8.477-17.194c15.999-15.44,41.441,3.758,83.275,15.272C389.593,278.396,390.633,224,390.633,224
			l4.476-12.237c0.563-5.281,0.883-10.48,0.883-15.761C395.991,155.927,383.242,112.008,354.572,85.373z"/>
	</g>
	<g opacity="0.5">
		<g>
			<path fill="#FFFFFF" d="M132.891,211.764c-0.563-5.281-0.883-10.48-0.883-15.761c0-35.643,10.156-74.246,32.561-101.107
				c-0.132-0.137-0.281-0.266-0.406-0.407l-6.733-9.116c-28.67,26.635-41.419,70.554-41.419,110.63c0,5.281,0.32,10.48,0.882,15.761
				L121.368,224c0,0,1.101,51.849,40.271,43.373C138.124,260.713,132.891,211.764,132.891,211.764z"/>
		</g>
	</g>
	<g opacity="0.2">
		<g>
			<path d="M379.234,211.764c0.563-5.281,0.883-10.48,0.883-15.761c0-35.643-10.155-74.246-32.56-101.107
				c0.132-0.137,0.28-0.266,0.405-0.407l6.734-9.116c28.67,26.635,41.419,70.554,41.419,110.63c0,5.281-0.32,10.48-0.883,15.761
				L390.758,224c0,0-1.102,51.849-40.271,43.373C374,260.713,379.234,211.764,379.234,211.764z"/>
		</g>
	</g>
	<g>
		<g>
			<path fill="#3A3847" d="M348.237,120.007c-2.211,0-4.04-1.789-4.04-4s1.75-4,3.953-4h0.087c2.202,0,3.999,1.789,3.999,4
				S350.439,120.007,348.237,120.007z"/>
		</g>
		<g>
			<path fill="#3A3847" d="M364.235,120.007c-2.211,0-4.038-1.789-4.038-4s1.749-4,3.952-4h0.086c2.203,0,4,1.789,4,4
				S366.438,120.007,364.235,120.007z"/>
		</g>
		<g>
			<path fill="#3A3847" d="M372.235,128.007c-2.211,0-4.039-1.789-4.039-4c0-2.21,1.75-4,3.952-4h0.087c2.202,0,3.999,1.79,3.999,4
				C376.234,126.218,374.438,128.007,372.235,128.007z"/>
		</g>
		<g>
			<path fill="#3A3847" d="M356.236,128.007c-2.211,0-4.039-1.789-4.039-4c0-2.21,1.75-4,3.953-4h0.086c2.202,0,3.999,1.79,3.999,4
				C360.235,126.218,358.438,128.007,356.236,128.007z"/>
		</g>
		<g>
			<path fill="#3A3847" d="M348.237,136.006c-2.211,0-4.04-1.79-4.04-4c0-2.211,1.75-4,3.953-4h0.087c2.202,0,3.999,1.789,3.999,4
				C352.236,134.217,350.439,136.006,348.237,136.006z"/>
		</g>
		<g>
			<path fill="#3A3847" d="M364.235,136.006c-2.211,0-4.038-1.79-4.038-4c0-2.211,1.749-4,3.952-4h0.086c2.203,0,4,1.789,4,4
				C368.235,134.217,366.438,136.006,364.235,136.006z"/>
		</g>
		<g>
			<path fill="#3A3847" d="M372.235,144.006c-2.211,0-4.039-1.789-4.039-4c0-2.211,1.75-4,3.952-4h0.087
				c2.202,0,3.999,1.789,3.999,4C376.234,142.217,374.438,144.006,372.235,144.006z"/>
		</g>
		<g>
			<path fill="#3A3847" d="M356.236,112.008c-2.211,0-4.039-1.789-4.039-4s1.75-4,3.953-4h0.086c2.202,0,3.999,1.789,3.999,4
				S358.438,112.008,356.236,112.008z"/>
		</g>
	</g>
	<g>
		<g>
			<path fill="#3A3847" d="M164.248,120.007c-2.211,0-4.039-1.789-4.039-4s1.75-4,3.953-4h0.086c2.204,0,4,1.789,4,4
				S166.451,120.007,164.248,120.007z"/>
		</g>
		<g>
			<path fill="#3A3847" d="M148.249,120.007c-2.21,0-4.039-1.789-4.039-4s1.75-4,3.953-4h0.086c2.203,0,4,1.789,4,4
				S150.452,120.007,148.249,120.007z"/>
		</g>
		<g>
			<path fill="#3A3847" d="M140.249,128.007c-2.21,0-4.038-1.789-4.038-4c0-2.21,1.75-4,3.953-4h0.085c2.203,0,4,1.79,4,4
				C144.249,126.218,142.452,128.007,140.249,128.007z"/>
		</g>
		<g>
			<path fill="#3A3847" d="M156.249,128.007c-2.211,0-4.039-1.789-4.039-4c0-2.21,1.75-4,3.953-4h0.086c2.203,0,4,1.79,4,4
				C160.249,126.218,158.451,128.007,156.249,128.007z"/>
		</g>
		<g>
			<path fill="#3A3847" d="M164.248,136.006c-2.211,0-4.039-1.79-4.039-4c0-2.211,1.75-4,3.953-4h0.086c2.204,0,4,1.789,4,4
				C168.248,134.217,166.451,136.006,164.248,136.006z"/>
		</g>
		<g>
			<path fill="#3A3847" d="M148.249,136.006c-2.21,0-4.039-1.79-4.039-4c0-2.211,1.75-4,3.953-4h0.086c2.203,0,4,1.789,4,4
				C152.249,134.217,150.452,136.006,148.249,136.006z"/>
		</g>
		<g>
			<path fill="#3A3847" d="M140.249,144.006c-2.21,0-4.038-1.789-4.038-4c0-2.211,1.75-4,3.953-4h0.085c2.203,0,4,1.789,4,4
				C144.249,142.217,142.452,144.006,140.249,144.006z"/>
		</g>
		<g>
			<path fill="#3A3847" d="M156.249,112.008c-2.211,0-4.039-1.789-4.039-4s1.75-4,3.953-4h0.086c2.203,0,4,1.789,4,4
				S158.451,112.008,156.249,112.008z"/>
		</g>
	</g>
	<g>
		<path fill="#3A3847" d="M256.242,487.984c-2.21,0-4.038-1.788-4.038-3.999s1.75-4,3.953-4h0.085c2.204,0,4,1.789,4,4
			S258.445,487.984,256.242,487.984z"/>
	</g>
	<g>
		<path fill="#FC6E51" d="M159.287,92.97c-2.242-5.441-3.281-11.198-3.281-16.96c0-73.757,151.991,8.48,207.987-71.996
			c0,0,16.64,54.157-16.155,90.475c-12.641,14.078-32.639,25.44-63.84,29.999C205.206,136.084,169.607,117.609,159.287,92.97z"/>
	</g>
	<g opacity="0.2">
		<g>
			<path d="M363.993,4.014c-3.898,5.602-8.296,10.339-13.038,14.472c2.617,18.584,3.125,51.372-19.116,76.002
				c-12.64,14.078-32.639,25.44-63.84,29.999c-13.39,1.972-25.443,3.012-36.427,3.363c14.843,0.582,32.186-0.383,52.426-3.363
				c31.201-4.559,51.199-15.921,63.84-29.999C380.633,58.171,363.993,4.014,363.993,4.014z"/>
		</g>
	</g>
	<g opacity="0.3">
		<g>
			<path fill="#FFFFFF" d="M175.286,92.97c-2.242-5.441-3.281-11.198-3.281-16.96c0-27.271,20.812-33.201,49.833-33.928
				c-37.084-0.715-65.833,1.855-65.833,33.928c0,5.762,1.039,11.519,3.281,16.96c8.562,20.452,34.639,36.592,88.284,34.881
				C204.628,126.159,182.958,111.281,175.286,92.97z"/>
		</g>
	</g>
	<g>
		<path fill="#FC6E51" d="M247.524,251.601c5.757,5.52,8.476,11.437,8.476,17.194c0,6.641-3.523,13.202-10.156,19.202
			c-3.125,2.797-6.96,5.515-11.522,7.999c-7.203,4-16.078,7.438-26.476,10.156c-23.842,6.163-60.8-3.517-81.198-23.28
			c-15.358-14.796-21.28-35.271-5.281-58.872c0,0,1.039,54.395,42.88,42.873C206.081,255.358,231.525,236.16,247.524,251.601z"/>
	</g>
	<g opacity="0.3">
		<g>
			<path fill="#FFFFFF" d="M142.648,282.872c-9.047-8.718-14.773-19.412-14.718-31.545c-6.218-12.53-6.562-27.327-6.562-27.327
				c-16,23.601-10.078,44.076,5.281,58.872c18.288,17.718,49.81,27.225,73.339,24.593
				C179.56,305.559,157.014,296.793,142.648,282.872z"/>
		</g>
	</g>
	<g>
		<path fill="#FC6E51" d="M390.633,224c15.999,23.601,10.077,44.076-5.281,58.872c-20.397,19.764-57.356,29.443-81.198,23.28
			c-10.397-2.719-19.272-6.156-26.476-10.156c-4.562-2.484-8.397-5.202-11.522-7.999c-6.633-6-10.155-12.562-10.155-19.202
			c0-5.758,2.719-11.675,8.477-17.194c15.999-15.44,41.441,3.758,83.275,15.272C389.593,278.396,390.633,224,390.633,224z"/>
	</g>
	<g opacity="0.2">
		<g>
			<path d="M390.633,224c0,0-0.345,14.796-6.563,27.327c0.055,12.133-5.672,22.827-14.718,31.545
				c-14.366,13.921-36.912,22.687-57.34,24.593c23.529,2.632,55.051-6.875,73.339-24.593
				C400.71,268.076,406.632,247.601,390.633,224z"/>
		</g>
	</g>
	<g>
		<path fill="#E6E9ED" d="M256,291.996c-10.64,0-10.156-3.999-10.156-3.999c6.632-6,10.156-12.562,10.156-19.202
			c0,6.641,3.522,13.202,10.155,19.202C266.155,287.997,266.64,291.996,256,291.996z"/>
	</g>
	<g>
		<path fill="#EC87C0" d="M245.844,287.997c0,0-0.484,3.999,10.156,3.999s10.155-3.999,10.155-3.999
			c3.125,2.797,6.961,5.515,11.522,7.999c0,0-1.68,7.999-21.678,7.999c-19.999,0-21.678-7.999-21.678-7.999
			C238.884,293.512,242.72,290.794,245.844,287.997z"/>
	</g>
	<g opacity="0.2">
		<path d="M245.844,287.997c-3.125,2.797-6.96,5.515-11.522,7.999c0,0,0.679,2.656,5.015,4.914c2.398-1.594,4.625-3.227,6.507-4.914
			c1.648-1.492,3.109-3.023,4.367-4.577C245.602,290.317,245.844,287.997,245.844,287.997z"/>
	</g>
	<g opacity="0.2">
		<path d="M266.155,287.997c0,0,0.242,2.32-4.367,3.422c1.259,1.554,2.72,3.085,4.367,4.577c1.883,1.688,4.109,3.32,6.508,4.914
			c4.335-2.258,5.015-4.914,5.015-4.914C273.116,293.512,269.28,290.794,266.155,287.997z"/>
	</g>
	<g>
		<path fill="#FC6E51" d="M385.352,282.872c-20.397,19.764-57.356,29.443-81.198,23.28c-10.397-2.719-19.272-6.156-26.476-10.156
			c0,0-1.68,7.999-21.678,7.999c-19.999,0-21.678-7.999-21.678-7.999c-7.203,4-16.078,7.438-26.476,10.156
			c-23.842,6.163-60.8-3.517-81.198-23.28c0,0-10.718,40.803,27.514,101.119c29.842,47.114,75.199,64.55,93.596,69.917
			c5.203,1.516,8.242,2.078,8.242,2.078s5.039-0.883,13.116-3.601c20.726-6.797,61.277-25.038,88.722-68.395
			c1.515-2.398,2.953-4.805,4.312-7.125C395.194,320.471,385.352,282.872,385.352,282.872z"/>
	</g>
	<g opacity="0.3">
		<path d="M357.838,391.991c1.515-2.399,2.953-4.805,4.312-7.125c1.398-2.383,2.609-4.68,3.859-6.992l-3.859-1.008
			c-1.358,2.32-2.797,4.727-4.312,7.125c-27.444,43.356-67.996,61.598-88.722,68.395c-2.391,0.805-4.476,1.43-6.288,1.937
			l-0.11-0.414c-3.734,1.086-6.296,1.673-7.483,1.923c-1.18-0.25-3.742-0.837-7.476-1.923l-0.109,0.414
			c-1.813-0.507-3.898-1.132-6.289-1.937c-20.726-6.797-61.278-25.038-88.722-68.395c-1.515-2.398-2.953-4.805-4.312-7.125
			l-2.546,0.664c2.523,4.695,5.226,9.484,8.382,14.461c29.842,47.114,75.199,64.55,93.596,69.917
			c5.203,1.516,8.242,2.077,8.242,2.077s5.039-0.882,13.116-3.601C289.842,453.588,330.394,435.347,357.838,391.991z"/>
	</g>
	<g opacity="0.2">
		<path d="M234.322,295.996c-7.203,4-16.078,7.438-26.476,10.156c-23.842,6.163-60.8-3.517-81.198-23.28
			c0,0-0.625,2.445-1.039,6.938c0.352,0.352,0.68,0.719,1.039,1.062c20.397,19.765,57.356,29.444,81.198,23.28
			c10.398-2.719,19.272-6.156,26.476-10.156c1.812-0.991,3.429-2.038,5.015-3.085C235.001,298.652,234.322,295.996,234.322,295.996z
			"/>
	</g>
	<g opacity="0.2">
		<path d="M386.383,289.81c-0.406-4.508-1.031-6.938-1.031-6.938c-20.397,19.764-57.356,29.443-81.198,23.28
			c-10.397-2.719-19.272-6.156-26.476-10.156c0,0-0.68,2.656-5.015,4.914c1.585,1.047,3.203,2.094,5.015,3.085
			c7.203,4,16.078,7.438,26.476,10.156c23.842,6.164,60.801-3.516,81.198-23.28C385.711,290.528,386.039,290.161,386.383,289.81z"/>
	</g>
	<g opacity="0.3">
		<g>
			<path fill="#FFFFFF" d="M263.758,453.908c-18.397-5.367-63.754-22.803-93.596-69.917c-22.702-35.818-28.123-64.676-28.795-82.269
				c-5.405-3.188-10.476-6.742-14.718-10.852c-0.359-0.343-0.688-0.71-1.039-1.054c-1.273,14.038-0.406,48.481,28.553,94.174
				c29.842,47.114,75.199,64.55,93.596,69.917c5.203,1.516,8.242,2.078,8.242,2.078s2.992-0.53,8.031-2
				C263.929,453.956,263.858,453.94,263.758,453.908z"/>
		</g>
	</g>
	<g opacity="0.2">
		<g>
			<path d="M248.321,453.908c18.397-5.367,63.753-22.803,93.596-69.917c22.701-35.818,28.123-64.676,28.795-82.269
				c5.405-3.188,10.476-6.742,14.718-10.852c0.359-0.343,0.688-0.71,1.039-1.054c1.273,14.038,0.406,48.481-28.553,94.174
				c-29.843,47.114-75.198,64.55-93.596,69.917c-5.203,1.516-8.242,2.078-8.242,2.078s-2.992-0.53-8.031-2
				C248.149,453.956,248.219,453.94,248.321,453.908z"/>
		</g>
	</g>
	<g>
		<g>
			<path fill="#3A3847" d="M491.985,511.983H20.015c-2.211,0-4-1.789-4-4v-47.998c0-34.38,17.78-47.52,50.599-59.745
				c5.929-2.204,12.546-4.125,19.545-6.164c13.421-3.898,28.631-8.327,44.044-16.132c1.968-0.999,4.367-0.211,5.375,1.758
				c1,1.969,0.211,4.375-1.766,5.375c-16.069,8.147-31.662,12.679-45.419,16.687c-6.859,1.992-13.335,3.874-18.991,5.976
				c-30.748,11.452-45.388,22.194-45.388,52.246v43.998h463.971v-43.998c0-30.052-14.639-40.794-45.396-52.246
				c-5.515-2.039-11.866-3.905-18.592-5.874c-4.711-1.383-9.648-2.829-14.75-4.47c-12.015-3.741-21.889-7.663-31.068-12.318
				c-1.969-1-2.757-3.406-1.75-5.383c1-1.969,3.414-2.742,5.375-1.75c8.766,4.453,18.249,8.211,29.85,11.827
				c5.07,1.625,9.944,3.055,14.594,4.414c6.858,2.016,13.342,3.914,19.123,6.055c32.834,12.226,50.614,25.365,50.614,59.745v47.998
				C495.985,510.194,494.196,511.983,491.985,511.983z"/>
		</g>
		<g>
			<path fill="#3A3847" d="M395.116,215.763c-0.148,0-0.288-0.007-0.43-0.023c-2.194-0.234-3.788-2.203-3.554-4.398
				c0.578-5.437,0.859-10.452,0.859-15.339c0-37.583-10.773-71.285-31.154-97.458c-1.36-1.743-1.047-4.254,0.695-5.613
				c1.741-1.368,4.25-1.047,5.616,0.699c21.483,27.592,32.842,62.992,32.842,102.373c0,5.171-0.297,10.464-0.906,16.183
				C398.866,214.24,397.133,215.763,395.116,215.763z"/>
		</g>
		<g>
			<path fill="#3A3847" d="M116.884,216.001c-2.016,0-3.75-1.523-3.969-3.578c-0.602-5.636-0.906-11.163-0.906-16.421
				c0-39.333,11.359-74.702,32.842-102.291c1.351-1.746,3.867-2.066,5.617-0.699c1.742,1.359,2.055,3.871,0.695,5.613
				c-20.381,26.171-31.154,59.84-31.154,97.377c0,4.977,0.289,10.214,0.859,15.577c0.234,2.195-1.359,4.164-3.555,4.398
				C117.172,215.994,117.024,216.001,116.884,216.001z"/>
		</g>
		<g>
			<path fill="#3A3847" d="M267.999,511.983c-2.211,0-4-1.789-4-4v-39.998c0-2.21,1.789-4,4-4s4,1.79,4,4v39.998
				C271.999,510.194,270.21,511.983,267.999,511.983z"/>
		</g>
		<g>
			<path fill="#3A3847" d="M244.001,511.983c-2.211,0-4-1.789-4-4v-39.998c0-2.21,1.789-4,4-4c2.21,0,4,1.79,4,4v39.998
				C248,510.194,246.211,511.983,244.001,511.983z"/>
		</g>
		<g>
			<path fill="#3A3847" d="M192.051,311.995L192.051,311.995c-24.577,0-51.981-10.546-68.183-26.248
				c-19.187-18.483-21.249-41.212-5.812-63.993c0.976-1.441,2.766-2.089,4.445-1.589c1.672,0.497,2.828,2.016,2.867,3.758
				c0.031,1.656,1.156,40.56,27.951,40.553c3.031,0,6.352-0.489,9.867-1.454c12.733-3.507,23.983-7.753,33.904-11.503
				c14.327-5.41,25.639-9.683,35.521-9.683c7.101,0,12.89,2.254,17.694,6.886c6.336,6.078,9.695,13.027,9.695,20.073
				c0,7.711-3.969,15.374-11.476,22.163c-3.507,3.147-7.64,6.022-12.289,8.554c-7.578,4.203-16.796,7.742-27.373,10.515
				C203.792,311.331,198.144,311.995,192.051,311.995z M118.852,236.984c-7.765,19.202,0.93,33.717,10.569,43.013
				c14.82,14.358,39.99,23.998,62.629,23.998l0,0c5.414,0,10.39-0.577,14.796-1.71c9.921-2.602,18.515-5.891,25.53-9.789
				c4.14-2.25,7.765-4.757,10.796-7.483c5.773-5.218,8.828-10.827,8.828-16.218c0-4.815-2.507-9.765-7.242-14.308
				c-8.851-8.527-23.225-3.648-44.849,4.515c-10.078,3.809-21.514,8.129-34.599,11.73c-4.203,1.156-8.242,1.742-11.992,1.742
				C131.789,272.482,122.203,253.366,118.852,236.984z"/>
		</g>
		<g>
			<path fill="#3A3847" d="M319.949,311.995c-6.086,0-11.741-0.664-16.796-1.969c-10.593-2.772-19.811-6.312-27.421-10.538
				c-4.616-2.508-8.749-5.383-12.249-8.516C255.969,284.169,252,276.506,252,268.795c0-7.046,3.359-13.996,9.711-20.081
				c4.788-4.625,10.576-6.879,17.678-6.879c9.883,0,21.194,4.273,35.521,9.683c9.922,3.75,21.171,7.996,33.904,11.503
				c3.516,0.965,6.836,1.454,9.867,1.454c26.873,0,27.943-40.146,27.951-40.549c0.03-1.746,1.195-3.265,2.859-3.762
				c1.711-0.496,3.483,0.152,4.452,1.589c15.437,22.78,13.374,45.509-5.82,64C371.931,301.449,344.526,311.995,319.949,311.995z
				 M279.389,249.835c-4.999,0-8.851,1.477-12.131,4.645c-4.75,4.551-7.258,9.5-7.258,14.315c0,5.391,3.054,11,8.835,16.233
				c3.023,2.711,6.647,5.218,10.758,7.452c7.046,3.914,15.64,7.203,25.575,9.805c4.391,1.133,9.367,1.71,14.781,1.71
				c22.639,0,47.802-9.64,62.621-23.989c9.647-9.305,18.343-23.819,10.578-43.021c-3.352,16.378-12.938,35.49-34.467,35.49
				c-3.75,0-7.789-0.586-11.992-1.742c-13.085-3.602-24.521-7.922-34.6-11.73C298.521,253.882,287.811,249.835,279.389,249.835z"/>
		</g>
		<g>
			<path fill="#3A3847" d="M256,295.996c-6.164,0-10.249-1.234-12.491-3.757c-1.805-2.039-1.703-4.133-1.633-4.727
				c0.266-2.195,2.312-3.703,4.453-3.492c1.703,0.211,3.031,1.469,3.406,3.047c0.586,0.304,2.266,0.93,6.266,0.93
				s5.68-0.626,6.265-0.93c0.376-1.578,1.703-2.836,3.407-3.047c2.141-0.25,4.187,1.297,4.452,3.492
				c0.07,0.594,0.172,2.688-1.632,4.727C266.249,294.762,262.163,295.996,256,295.996z"/>
		</g>
		<g>
			<path fill="#3A3847" d="M256,307.995c-22.124,0-25.202-9.312-25.592-11.179c-0.453-2.164,0.93-4.28,3.094-4.734
				c2.039-0.452,4.109,0.82,4.672,2.837c0.195,0.413,2.781,5.077,17.827,5.077c15.663,0,17.819-5.055,17.843-5.109
				c0.453-2.164,2.609-3.391,4.694-2.945c2.165,0.454,3.508,2.711,3.056,4.875C281.202,298.684,278.123,307.995,256,307.995z"/>
		</g>
		<g>
			<path fill="#3A3847" d="M255.992,459.985c-1.906,0-3.586-1.366-3.929-3.312c-0.383-2.172,1.07-4.242,3.242-4.633
				c0.055-0.008,4.898-0.875,12.53-3.444c20.937-6.867,59.98-24.655,86.62-66.746c1.492-2.359,2.906-4.719,4.242-7.008
				c31.677-54.052,22.873-90.604,22.779-90.971c-0.539-2.133,0.742-4.312,2.875-4.866c2.117-0.548,4.312,0.719,4.866,2.859
				c0.423,1.593,9.883,39.855-23.615,97.024c-1.383,2.359-2.844,4.797-4.383,7.234c-27.982,44.208-68.933,62.871-90.854,70.058
				c-8.242,2.781-13.46,3.703-13.679,3.742C256.453,459.963,256.227,459.985,255.992,459.985z"/>
		</g>
		<g>
			<path fill="#3A3847" d="M256,459.985c-0.242,0-0.484-0.022-0.726-0.069c0,0-3.18-0.578-8.641-2.172
				c-18.616-5.429-65.23-23.272-95.854-71.613c-38.716-61.09-28.459-102.54-27.998-104.274c0.554-2.132,2.75-3.398,4.867-2.851
				c2.133,0.555,3.422,2.733,2.875,4.874c-0.102,0.391-9.671,40.083,27.014,97.971c29.162,46.036,73.589,63.043,91.338,68.215
				c4.867,1.421,7.741,1.968,7.851,1.984c2.172,0.406,3.602,2.483,3.203,4.655C259.578,458.635,257.891,459.985,256,459.985z"/>
		</g>
		<g>
			<path fill="#3A3847" d="M256,443.987c-2.211,0-4-1.789-4-4V319.995c0-2.211,1.789-4,4-4s4,1.789,4,4v119.992
				C260,442.198,258.211,443.987,256,443.987z"/>
		</g>
		<g>
			<path fill="#3A3847" d="M311.113,419.989c-0.461,0-0.937-0.078-1.391-0.25c-2.07-0.773-3.125-3.07-2.358-5.148
				c18.49-49.778-10.57-83.878-29.537-99.768c-1.695-1.422-1.915-3.945-0.492-5.64c1.413-1.68,3.944-1.914,5.633-0.493
				c20.584,17.25,52.098,54.302,31.896,108.689C314.263,418.989,312.738,419.989,311.113,419.989z"/>
		</g>
		<g>
			<path fill="#3A3847" d="M362.79,347.993c-1.468,0-2.875-0.813-3.577-2.218c-4.93-9.875-14.375-17.531-21.429-22.21
				c-1.844-1.227-2.344-3.704-1.125-5.547c1.227-1.852,3.727-2.336,5.547-1.118c11.444,7.595,19.568,16.109,24.162,25.305
				c0.984,1.976,0.188,4.382-1.789,5.366C364.001,347.853,363.393,347.993,362.79,347.993z"/>
		</g>
		<g>
			<path fill="#3A3847" d="M200.886,419.989c-1.625,0-3.148-1-3.75-2.609c-20.202-54.388,11.312-91.439,31.896-108.689
				c1.688-1.43,4.211-1.195,5.633,0.493c1.422,1.694,1.203,4.218-0.492,5.64c-18.967,15.89-48.029,49.989-29.537,99.768
				c0.765,2.078-0.29,4.375-2.359,5.148C201.824,419.911,201.347,419.989,200.886,419.989z"/>
		</g>
		<g>
			<path fill="#3A3847" d="M149.21,347.993c-0.602,0-1.211-0.141-1.789-0.422c-1.977-0.984-2.773-3.391-1.79-5.366
				c4.594-9.195,12.718-17.71,24.163-25.305c1.82-1.218,4.313-0.733,5.547,1.118c1.219,1.843,0.719,4.32-1.125,5.547
				c-7.054,4.679-16.499,12.335-21.428,22.21C152.084,347.181,150.678,347.993,149.21,347.993z"/>
		</g>
		<g>
			<path fill="#3A3847" d="M239.836,132.038c0,0,0,0-0.007,0c-59.613-0.003-78.363-23.51-84.229-37.521
				c-2.391-5.793-3.593-12.011-3.593-18.507c0-35.091,31.427-38.029,60.887-38.029c7.195,0,14.788,0.219,22.624,0.449
				c8.265,0.239,16.803,0.488,25.413,0.488c36.544,0,76.979-4.418,99.783-37.189c0.866-1.253,2.397-1.895,3.897-1.667
				c1.516,0.238,2.758,1.316,3.203,2.777c0.711,2.3,16.921,56.758-17.007,94.33c-14.812,16.495-37.092,27.022-66.229,31.275
				C268.39,130.827,253.336,132.038,239.836,132.038z M212.893,45.98c-33.498,0-52.887,4.914-52.887,30.029
				c0,5.445,1,10.64,2.976,15.437c8.804,21.007,36.1,32.588,76.847,32.592h0.007c13.109,0,27.772-1.18,43.576-3.507
				c27.24-3.98,47.92-13.64,61.45-28.713c23.623-26.166,20.139-62.75,17.14-78.69c-25.39,29.596-65.067,33.791-101.072,33.791
				c-8.687,0-17.304-0.25-25.647-0.492C227.525,46.199,220.01,45.98,212.893,45.98z"/>
		</g>
		<g>
			<path fill="#3A3847" d="M238.704,77.709c-17.631,0-37.49-1.574-59.708-5.438c-2.171-0.378-3.632-2.449-3.25-4.625
				c0.375-2.188,2.484-3.628,4.625-3.258c113.666,19.765,164.491-22.956,164.991-23.393c1.671-1.445,4.195-1.273,5.64,0.391
				c1.453,1.66,1.289,4.18-0.375,5.632C348.893,48.543,314.527,77.709,238.704,77.709z"/>
		</g>
		<g>
			<path fill="#3A3847" d="M245.211,106.336c-19.749,0-42.021-2.875-66.402-10.512c-2.109-0.66-3.281-2.902-2.625-5.011
				c0.664-2.109,2.914-3.281,5.016-2.621c93.119,29.151,155.982-14.979,156.607-15.425c1.813-1.301,4.296-0.882,5.585,0.903
				c1.29,1.792,0.891,4.289-0.897,5.582C340.495,80.697,304.13,106.336,245.211,106.336z"/>
		</g>
		<g>
			<path fill="#3A3847" d="M317.434,496.382c-1.023,0-2.046-0.391-2.827-1.171c-1.563-1.563-1.563-4.094,0-5.656l87.666-87.667
				c1.546-1.563,4.077-1.585,5.655-0.015c1.563,1.554,1.579,4.085,0.016,5.655l-87.682,87.683
				C319.48,495.991,318.458,496.382,317.434,496.382z"/>
		</g>
		<g>
			<path fill="#3A3847" d="M419.271,496.305c-1.023,0-2.055-0.391-2.836-1.18c-1.555-1.563-1.555-4.094,0.016-5.656l51.027-50.95
				c1.563-1.563,4.095-1.563,5.656,0c1.563,1.563,1.563,4.094,0,5.656l-51.043,50.958
				C421.318,495.914,420.294,496.305,419.271,496.305z"/>
		</g>
		<g>
			<path fill="#3A3847" d="M366.149,496.305c-1.023,0-2.047-0.391-2.827-1.172l-48.716-48.716c-1.563-1.563-1.563-4.094,0-5.656
				c1.562-1.563,4.093-1.563,5.655,0l48.716,48.716c1.563,1.563,1.563,4.094,0,5.656
				C368.196,495.914,367.173,496.305,366.149,496.305z"/>
		</g>
		<g>
			<path fill="#3A3847" d="M467.987,496.305c-1.024,0-2.047-0.391-2.829-1.172l-96.15-96.158c-1.562-1.563-1.562-4.094,0-5.656
				c1.563-1.563,4.095-1.563,5.656,0l96.15,96.158c1.563,1.563,1.563,4.094,0,5.656C470.033,495.914,469.01,496.305,467.987,496.305
				z"/>
		</g>
		<g>
			<path fill="#3A3847" d="M196.886,496.382c-1.023,0-2.046-0.391-2.828-1.171l-87.675-87.675c-1.562-1.562-1.562-4.093,0-5.655
				c1.563-1.563,4.094-1.563,5.656,0l87.674,87.674c1.563,1.563,1.563,4.094,0,5.656
				C198.933,495.991,197.91,496.382,196.886,496.382z"/>
		</g>
		<g>
			<path fill="#3A3847" d="M95.049,496.305c-1.023,0-2.046-0.391-2.82-1.172l-51.043-50.958c-1.563-1.563-1.563-4.094,0-5.656
				s4.093-1.563,5.656,0l51.028,50.95c1.57,1.563,1.57,4.094,0.016,5.656C97.104,495.914,96.072,496.305,95.049,496.305z"/>
		</g>
		<g>
			<path fill="#3A3847" d="M148.163,496.305c-1.023,0-2.046-0.391-2.828-1.172c-1.563-1.563-1.563-4.094,0-5.656l48.724-48.716
				c1.563-1.563,4.093-1.563,5.656,0s1.563,4.094,0,5.656l-48.723,48.716C150.209,495.914,149.186,496.305,148.163,496.305z"/>
		</g>
		<g>
			<path fill="#3A3847" d="M46.333,496.305c-1.023,0-2.046-0.391-2.828-1.172c-1.563-1.563-1.563-4.094,0-5.656l96.143-96.15
				c1.562-1.563,4.093-1.57,5.656-0.015c1.57,1.562,1.57,4.093,0.016,5.663l-96.159,96.158
				C48.38,495.914,47.356,496.305,46.333,496.305z"/>
		</g>
	</g>
</g>
</svg>
