<?xml version="1.0" encoding="utf-8"?>
<!-- Generator: Adobe Illustrator 16.0.0, SVG Export Plug-In . SVG Version: 6.00 Build 0)  -->
<!DOCTYPE svg PUBLIC "-//W3C//DTD SVG 1.1//EN" "http://www.w3.org/Graphics/SVG/1.1/DTD/svg11.dtd">
<svg version="1.1" id="Слой_1" xmlns="http://www.w3.org/2000/svg" xmlns:xlink="http://www.w3.org/1999/xlink" x="0px" y="0px"
	 width="512px" height="512px" viewBox="0 0 512 512" enable-background="new 0 0 512 512" xml:space="preserve">
<g id="_x31_0_hairstyle_x2C__style_x2C__barbershop_x2C__man_x2C__people_x2C__glasses_x2C__afro">
	<g>
		<path fill="#AC92EC" d="M499.985,499.993v8H12.015v-8c0-31.997,15.999-44.075,47.997-55.996
			c23.92-8.96,76.074-29.115,95.994-45.036l9.523-9.438l54.474,54.474L252,427.998l3.961-2l4.039,2l31.998,15.999l54.56-54.474
			l9.436,9.438c19.999,15.921,72.074,36.076,95.995,45.036C483.986,455.918,499.985,467.996,499.985,499.993z"/>
	</g>
	<g>
		<polygon fill="#FFCE54" points="255.961,411.999 164.006,356.018 164.006,388.001 220.002,443.997 255.961,425.998 
			291.92,443.997 347.917,388.001 347.917,356.018 		"/>
	</g>
	<g opacity="0.3">
		<polygon points="255.961,433.997 291.92,451.997 350.58,393.547 347.917,390.883 346.558,389.523 291.998,443.997 260,427.998 
			255.961,425.998 252,427.998 220.002,443.997 165.529,389.523 164.006,391.032 161.381,393.633 220.002,451.997 		"/>
	</g>
	<g opacity="0.3">
		<g>
			<polygon fill="#FFFFFF" points="181.528,405.522 165.529,389.523 181.528,405.522 			"/>
		</g>
		<g>
			<polygon fill="#FFFFFF" points="164.006,391.032 165.529,389.523 163.225,391.805 			"/>
		</g>
		<g>
			<path fill="#FFFFFF" d="M161.381,393.633l-5.375,5.328c-19.92,15.921-72.074,36.076-95.994,45.036
				c-31.999,11.921-47.997,23.999-47.997,55.996v8h16.42c2.586-26.085,18.413-37.131,47.575-47.997
				c23.92-8.961,76.074-29.115,95.994-45.036l5.414-5.359L161.381,393.633z"/>
		</g>
	</g>
	<g opacity="0.3">
		<g>
			<polygon points="346.51,389.563 346.471,389.523 330.473,405.522 330.503,405.554 			"/>
		</g>
		<g>
			<path d="M451.988,443.997c-23.921-8.96-76.074-29.115-95.995-45.036l-5.437-5.391l-16.03,15.968l5.469,5.422
				c19.92,15.921,72.073,36.075,95.993,45.036c29.163,10.866,44.99,21.912,47.575,47.997h16.422v-8
				C499.985,467.996,483.986,455.918,451.988,443.997z"/>
		</g>
	</g>
	<g opacity="0.3">
		<path d="M164.006,363.994c28.662,33.857,64.66,55.98,91.955,56.004c27.296-0.023,63.293-22.146,91.956-56.004v-7.977
			l-91.956,55.981l-91.955-55.981V363.994z"/>
	</g>
	<g opacity="0.5">
		<path fill="#FFFFFF" d="M172.005,372.884c-2.711-2.875-5.398-5.812-7.999-8.89v24.007l55.997,55.996l5.328-2.664l-53.325-53.332
			V372.884z"/>
	</g>
	<g opacity="0.2">
		<path d="M340.136,372.884c2.711-2.875,5.397-5.812,7.999-8.89v24.007l-55.997,55.996l-5.327-2.664l53.325-53.332V372.884z"/>
	</g>
	<g>
		<path fill="#EAC6BB" d="M389.992,197.773c-2.719-0.722-5.195-3.601-5.516-6.319c-0.32-2.801-2.719-5.84-5.281-6.801
			c-2.641-1.039-4.804-4.082-4.883-6.878l-7.835-11.523c-1.125,0.961-2.563,1.601-3.922,1.761c-2.718,0.32-5.843,2.641-6.96,5.199
			c-1.039,2.563-4.156,4.641-6.961,4.641c-2.718,0-6.077,2-7.358,4.398c-1.359,2.48-4.641,4.242-7.359,4
			c-2.797-0.316-6.319,1.363-7.844,3.684c-1.516,2.238-5.038,3.757-7.757,3.199c-2.719-0.563-6.319,0.718-8.078,2.878
			c-1.757,2.16-5.358,3.281-8.077,2.398c-2.641-0.719-6.398,0.16-8.319,2.16c-2,1.922-5.68,2.64-8.242,1.601
			c-2.563-1.039-6.397-0.48-8.563,1.282c-2.077,1.757-5.834,2.16-8.319,0.796c-2.398-1.277-6.234-1.039-8.555,0.48
			c-1.163,0.758-2.679,1.141-4.202,1.141s-3.039-0.383-4.203-1.141c-2.32-1.52-6.156-1.757-8.554-0.48
			c-2.484,1.363-6.242,0.961-8.32-0.796c-2.164-1.762-6-2.32-8.562-1.282c-2.562,1.039-6.242,0.321-8.241-1.601
			c-1.922-2-5.679-2.879-8.32-2.16c-2.719,0.883-6.32-0.238-8.078-2.398s-5.359-3.441-8.078-2.878
			c-2.719,0.558-6.242-0.961-7.757-3.199c-1.523-2.32-5.047-4-7.843-3.684c-2.719,0.243-6-1.519-7.359-4
			c-1.282-2.398-4.64-4.398-7.359-4.398c-2.804,0-5.921-2.078-6.96-4.641c-1.117-2.559-4.242-4.879-6.96-5.199
			c-1.36-0.16-2.797-0.8-3.922-1.761l-7.836,11.523c-0.078,2.796-2.242,5.839-4.882,6.878c-2.562,0.961-4.96,4-5.281,6.801
			c-0.32,2.718-2.797,5.597-5.515,6.319c-2.641,0.719-5.281,3.52-5.921,6.238v15.999v15.999c0,8.558,0.797,17.12,2.156,25.518
			c13.843,81.18,89.479,150.433,137.796,150.472c48.316-0.039,123.953-69.292,137.797-150.472c1.358-8.398,2.155-16.96,2.155-25.518
			V220.01v-15.999C395.273,201.293,392.633,198.492,389.992,197.773z M204.003,284.008c-17.679,0-31.999-14.32-31.999-32
			c0-17.679,14.319-31.998,31.999-31.998c17.678,0,31.998,14.319,31.998,31.998C236.001,269.688,221.682,284.008,204.003,284.008z
			 M307.918,284.008c-17.678,0-31.997-14.32-31.997-32c0-17.679,14.319-31.998,31.997-31.998c17.68,0,31.999,14.319,31.999,31.998
			C339.917,269.688,325.598,284.008,307.918,284.008z"/>
	</g>
	<g opacity="0.5">
		<g>
			<path fill="#FFFFFF" d="M134.164,261.527c-1.359-8.398-2.156-16.96-2.156-25.518V220.01v-35.357l-15.999,19.358v15.999v15.999
				c0,8.558,0.797,17.12,2.156,25.518c13.843,81.18,89.479,150.433,137.796,150.472c2.578-0.008,5.272-0.305,8-0.688
				C215.706,404.429,147.265,338.371,134.164,261.527z"/>
		</g>
	</g>
	<g opacity="0.2">
		<g>
			<path d="M377.742,261.527c1.359-8.398,2.156-16.96,2.156-25.518V220.01v-35.357l16,19.358v15.999v15.999
				c0,8.558-0.798,17.12-2.156,25.518c-13.844,81.18-89.479,150.433-137.797,150.472c-2.578-0.008-5.273-0.305-8-0.688
				C296.201,404.429,364.643,338.371,377.742,261.527z"/>
		</g>
	</g>
	<g>
		<path fill="#965353" d="M429.193,182.571c1.593-2.32,1.593-6.078,0-8.398c-1.524-2.32-1.68-6.16-0.407-8.641
			c1.281-2.397,0.961-6.159-0.797-8.319c-1.757-2.16-2.32-6-1.281-8.558c1.039-2.563,0.32-6.242-1.68-8.16
			c-1.921-2-2.882-5.761-2.077-8.402c0.797-2.637-0.243-6.238-2.398-8c-2.164-1.757-3.445-5.437-2.883-8.156
			c0.477-2.723-0.961-6.16-3.281-7.761c-2.241-1.52-3.921-5.04-3.68-7.762c0.32-2.796-1.516-6.078-3.921-7.437
			c-2.477-1.281-4.477-4.641-4.477-7.359c0-2.8-2.078-5.921-4.641-6.96c-2.563-1.04-4.883-4.16-5.117-6.96
			c-0.241-2.719-2.641-5.679-5.28-6.48c-2.719-0.801-5.281-3.68-5.844-6.398c-0.555-2.723-3.195-5.359-5.913-5.921
			c-2.728-0.481-5.602-3.117-6.406-5.758c-0.797-2.641-3.68-5.043-6.477-5.281c-2.719-0.32-5.843-2.641-6.961-5.199
			c-1.039-2.562-4.155-4.64-6.96-4.64c-2.719,0-6.077-2-7.358-4.398c-1.359-2.48-4.641-4.242-7.359-4
			c-2.797,0.32-6.32-1.363-7.843-3.679c-1.516-2.32-5.039-3.762-7.758-3.204c-2.718,0.563-6.397-0.796-8.077-2.878
			c-1.759-2.16-5.359-3.281-8.078-2.48c-2.641,0.801-6.397-0.078-8.319-2.078c-2-1.922-5.68-2.641-8.242-1.602
			c-2.563,1.04-6.398,0.48-8.562-1.281c-2.079-1.757-5.836-2.16-8.32-0.797c-2.398,1.277-6.319,1.117-8.64-0.48
			c-1.117-0.762-2.641-1.141-4.156-1.141s-3.039,0.378-4.156,1.141c-2.32,1.597-6.242,1.757-8.64,0.48
			c-2.484-1.363-6.242-0.96-8.32,0.797c-2.164,1.761-6,2.32-8.562,1.281c-2.562-1.039-6.242-0.32-8.241,1.602
			c-1.922,2-5.679,2.878-8.32,2.078c-2.719-0.8-6.32,0.32-8.078,2.48c-1.68,2.082-5.359,3.441-8.078,2.878
			c-2.719-0.558-6.242,0.883-7.757,3.204c-1.523,2.316-5.047,4-7.843,3.679c-2.719-0.242-6,1.519-7.359,4
			c-1.282,2.398-4.64,4.398-7.359,4.398c-2.804,0-5.921,2.078-6.96,4.64c-1.117,2.559-4.242,4.879-6.96,5.199
			c-2.797,0.238-5.68,2.64-6.477,5.281c-0.805,2.641-3.679,5.277-6.406,5.758c-2.718,0.562-5.358,3.198-5.913,5.921
			c-0.563,2.719-3.125,5.598-5.844,6.398c-2.64,0.801-5.039,3.761-5.28,6.48c-0.235,2.8-2.555,5.921-5.117,6.96
			c-2.563,1.039-4.641,4.16-4.641,6.96c0,2.718-2,6.078-4.476,7.359c-2.406,1.359-4.242,4.641-3.921,7.437
			c0.242,2.722-1.438,6.242-3.68,7.762c-2.32,1.601-3.757,5.038-3.281,7.761c0.563,2.719-0.719,6.398-2.882,8.156
			c-2.156,1.761-3.195,5.363-2.398,8c0.804,2.641-0.156,6.402-2.078,8.402c-2,1.918-2.719,5.598-1.68,8.16
			c1.04,2.558,0.477,6.397-1.281,8.558s-2.078,5.922-0.797,8.319c1.273,2.48,1.117,6.32-0.406,8.641
			c-1.594,2.32-1.594,6.078,0,8.398c1.523,2.32,1.679,6.159,0.406,8.64c-1.281,2.402-0.961,6.16,0.797,8.32
			c1.758,2.16,2.32,6,1.281,8.479c-1.039,2.641-0.32,6.32,1.602,8.238c2,2,2.96,5.762,2.156,8.402c-0.797,2.64,0.242,6.237,2.398,8
			c2.164,1.758,3.445,5.437,2.882,8.16c-0.477,2.718,0.961,6.16,3.203,7.679c2.32,1.52,4,5.039,3.758,7.84
			c-0.243,1.758,0.476,3.839,1.68,5.359l15.194-0.16c-1.359-8.398-2.156-16.96-2.156-25.518V220.01v-15.999
			c0.64-2.718,3.281-5.519,5.921-6.238c2.718-0.722,5.195-3.601,5.515-6.319c0.32-2.801,2.719-5.84,5.281-6.801
			c2.641-1.039,4.805-4.082,4.882-6.878l7.836-11.523c1.125,0.961,2.562,1.601,3.922,1.761c2.718,0.32,5.843,2.641,6.96,5.199
			c1.039,2.563,4.156,4.641,6.96,4.641c2.719,0,6.078,2,7.359,4.398c1.359,2.48,4.64,4.242,7.359,4
			c2.796-0.316,6.32,1.363,7.843,3.684c1.516,2.238,5.039,3.757,7.757,3.199c2.718-0.563,6.32,0.718,8.078,2.878
			s5.359,3.281,8.078,2.398c2.641-0.719,6.398,0.16,8.32,2.16c2,1.922,5.679,2.64,8.241,1.601c2.563-1.039,6.398-0.48,8.562,1.282
			c2.078,1.757,5.836,2.16,8.32,0.796c2.398-1.277,6.234-1.039,8.554,0.48c1.171,0.766,2.71,1.141,4.242,1.133
			c1.531,0.008,3.07-0.367,4.242-1.133c2.32-1.52,6.155-1.757,8.554-0.48c2.484,1.363,6.241,0.961,8.32-0.796
			c2.163-1.762,5.999-2.32,8.562-1.282c2.563,1.039,6.242,0.321,8.242-1.601c1.922-2,5.679-2.879,8.319-2.16
			c2.719,0.883,6.319-0.238,8.078-2.398c1.757-2.16,5.359-3.441,8.077-2.878c2.719,0.558,6.242-0.961,7.758-3.199
			c1.522-2.32,5.046-4,7.843-3.684c2.719,0.243,6-1.519,7.359-4c1.281-2.398,4.64-4.398,7.358-4.398c2.805,0,5.921-2.078,6.96-4.641
			c1.118-2.559,4.242-4.879,6.961-5.199c1.359-0.16,2.797-0.8,3.922-1.761l7.836,11.523c0.077,2.796,2.241,5.839,4.882,6.878
			c2.563,0.961,4.961,4,5.281,6.801c0.32,2.718,2.797,5.597,5.516,6.319c2.64,0.719,5.28,3.52,5.921,6.238v15.999v15.999
			c0,8.558-0.797,17.12-2.156,25.518c0,0,17.116-3.44,16.874-5.199c-0.241-2.801,1.438-6.32,3.758-7.84
			c2.242-1.519,3.68-4.96,3.203-7.679c-0.563-2.723,0.719-6.402,2.883-8.16c2.155-1.762,3.195-5.359,2.398-8
			c-0.805-2.641,0.156-6.402,2.155-8.402c1.922-1.917,2.641-5.597,1.602-8.238c-1.039-2.48-0.476-6.32,1.281-8.479
			c1.758-2.16,2.078-5.918,0.797-8.32C427.514,188.73,427.669,184.892,429.193,182.571z"/>
	</g>
	<g opacity="0.3">
		<g>
			<path fill="#FFFFFF" d="M117.29,256.329c0.242-2.801-1.438-6.32-3.758-7.84c-2.242-1.519-3.679-4.96-3.203-7.679
				c0.563-2.723-0.719-6.402-2.882-8.16c-2.156-1.762-3.195-5.359-2.398-8c0.805-2.641-0.156-6.402-2.156-8.402
				c-1.921-1.917-2.641-5.597-1.601-8.238c1.039-2.48,0.476-6.32-1.281-8.479c-1.758-2.16-2.079-5.918-0.797-8.32
				c1.273-2.48,1.117-6.319-0.407-8.64c-1.593-2.32-1.593-6.078,0-8.398c1.524-2.32,1.68-6.16,0.407-8.641
				c-1.282-2.397-0.961-6.159,0.797-8.319c1.757-2.16,2.32-6,1.281-8.558c-1.04-2.563-0.32-6.242,1.68-8.16
				c1.921-2,2.882-5.761,2.078-8.402c-0.797-2.637,0.242-6.238,2.398-8c2.164-1.757,3.445-5.437,2.882-8.156
				c-0.476-2.723,0.961-6.16,3.281-7.761c2.242-1.52,3.921-5.04,3.68-7.762c-0.32-2.796,1.516-6.078,3.921-7.437
				c2.477-1.281,4.477-4.641,4.477-7.359c0-2.8,2.078-5.921,4.64-6.96c2.563-1.04,4.883-4.16,5.117-6.96
				c0.242-2.719,2.641-5.679,5.281-6.48c2.718-0.801,5.28-3.68,5.843-6.398c0.554-2.723,3.195-5.359,5.914-5.921
				c2.726-0.481,5.601-3.117,6.406-5.758c0.797-2.641,3.68-5.043,6.477-5.281c2.718-0.32,5.843-2.641,6.96-5.199
				c1.039-2.562,4.156-4.64,6.961-4.64c2.718,0,6.078-2,7.358-4.398c1.359-2.48,4.641-4.242,7.359-4
				c2.797,0.32,6.32-1.363,7.843-3.679c1.516-2.32,5.039-3.762,7.757-3.204c2.718,0.563,6.398-0.796,8.078-2.878
				c1.757-2.16,5.359-3.281,8.078-2.48c2.641,0.801,6.398-0.078,8.319-2.078c2-1.922,5.68-2.641,8.242-1.602
				c2.562,1.04,6.397,0.48,8.562-1.281c2.078-1.757,5.835-2.16,8.32-0.797c1.313,0.699,3.078,0.926,4.796,0.762
				c-1.413-0.137-2.796-0.52-3.843-1.242c-1.117-0.762-2.641-1.141-4.156-1.141s-3.039,0.378-4.156,1.141
				c-2.32,1.597-6.242,1.757-8.64,0.48c-2.484-1.363-6.242-0.96-8.32,0.797c-2.164,1.761-6,2.32-8.562,1.281
				c-2.562-1.039-6.242-0.32-8.241,1.602c-1.922,2-5.679,2.878-8.32,2.078c-2.719-0.8-6.32,0.32-8.078,2.48
				c-1.68,2.082-5.359,3.441-8.078,2.878c-2.719-0.558-6.242,0.883-7.757,3.204c-1.523,2.316-5.047,4-7.843,3.679
				c-2.719-0.242-6,1.519-7.359,4c-1.282,2.398-4.64,4.398-7.359,4.398c-2.804,0-5.921,2.078-6.96,4.64
				c-1.117,2.559-4.242,4.879-6.96,5.199c-2.797,0.238-5.68,2.64-6.477,5.281c-0.805,2.641-3.679,5.277-6.406,5.758
				c-2.718,0.562-5.358,3.198-5.913,5.921c-0.563,2.719-3.125,5.598-5.844,6.398c-2.64,0.801-5.039,3.761-5.28,6.48
				c-0.235,2.8-2.555,5.921-5.117,6.96c-2.563,1.039-4.641,4.16-4.641,6.96c0,2.718-2,6.078-4.476,7.359
				c-2.406,1.359-4.242,4.641-3.921,7.437c0.242,2.722-1.438,6.242-3.68,7.762c-2.32,1.601-3.757,5.038-3.281,7.761
				c0.563,2.719-0.719,6.398-2.882,8.156c-2.156,1.761-3.195,5.363-2.398,8c0.804,2.641-0.156,6.402-2.078,8.402
				c-2,1.918-2.719,5.598-1.68,8.16c1.04,2.558,0.477,6.397-1.281,8.558s-2.078,5.922-0.797,8.319
				c1.273,2.48,1.117,6.32-0.406,8.641c-1.594,2.32-1.594,6.078,0,8.398c1.523,2.32,1.679,6.159,0.406,8.64
				c-1.281,2.402-0.961,6.16,0.797,8.32c1.758,2.16,2.32,6,1.281,8.479c-1.039,2.641-0.32,6.32,1.602,8.238
				c2,2,2.96,5.762,2.156,8.402c-0.797,2.64,0.242,6.237,2.398,8c2.164,1.758,3.445,5.437,2.882,8.16
				c-0.477,2.718,0.961,6.16,3.203,7.679c2.32,1.52,4,5.039,3.758,7.84c-0.243,1.758,0.476,3.839,1.68,5.359l15.194-0.16
				c-0.093-0.581-0.133-1.175-0.218-1.761C117.454,258.626,117.134,257.434,117.29,256.329z"/>
		</g>
	</g>
	<g opacity="0.2">
		<g>
			<path d="M394.655,256.329c-0.242-2.801,1.438-6.32,3.758-7.84c2.242-1.519,3.68-4.96,3.203-7.679
				c-0.563-2.723,0.719-6.402,2.882-8.16c2.157-1.762,3.195-5.359,2.399-8c-0.805-2.641,0.155-6.402,2.155-8.402
				c1.922-1.917,2.641-5.597,1.602-8.238c-1.039-2.48-0.477-6.32,1.281-8.479c1.758-2.16,2.078-5.918,0.797-8.32
				c-1.273-2.48-1.117-6.319,0.406-8.64c1.594-2.32,1.594-6.078,0-8.398c-1.523-2.32-1.68-6.16-0.406-8.641
				c1.281-2.397,0.961-6.159-0.797-8.319s-2.32-6-1.281-8.558c1.039-2.563,0.32-6.242-1.68-8.16c-1.922-2-2.882-5.761-2.077-8.402
				c0.796-2.637-0.242-6.238-2.399-8c-2.163-1.757-3.444-5.437-2.882-8.156c0.477-2.723-0.961-6.16-3.281-7.761
				c-2.242-1.52-3.922-5.04-3.68-7.762c0.32-2.796-1.516-6.078-3.922-7.437c-2.476-1.281-4.476-4.641-4.476-7.359
				c0-2.8-2.078-5.921-4.641-6.96c-2.563-1.04-4.883-4.16-5.117-6.96c-0.242-2.719-2.641-5.679-5.281-6.48
				c-2.718-0.801-5.28-3.68-5.843-6.398c-0.555-2.723-3.194-5.359-5.913-5.921c-2.727-0.481-5.602-3.117-6.406-5.758
				c-0.797-2.641-3.679-5.043-6.477-5.281c-2.718-0.32-5.843-2.641-6.96-5.199c-1.039-2.562-4.156-4.64-6.961-4.64
				c-2.718,0-6.077-2-7.358-4.398c-1.359-2.48-4.641-4.242-7.359-4c-2.797,0.32-6.319-1.363-7.844-3.679
				c-1.515-2.32-5.038-3.762-7.757-3.204c-2.718,0.563-6.398-0.796-8.078-2.878c-1.757-2.16-5.358-3.281-8.077-2.48
				c-2.641,0.801-6.398-0.078-8.319-2.078c-2-1.922-5.68-2.641-8.242-1.602c-2.562,1.04-6.397,0.48-8.562-1.281
				c-2.079-1.757-5.836-2.16-8.32-0.797c-1.313,0.699-3.079,0.926-4.797,0.762c1.414-0.137,2.797-0.52,3.843-1.242
				c1.117-0.762,2.641-1.141,4.156-1.141s3.038,0.378,4.156,1.141c2.32,1.597,6.241,1.757,8.641,0.48
				c2.483-1.363,6.241-0.96,8.319,0.797c2.164,1.761,5.999,2.32,8.562,1.281c2.563-1.039,6.242-0.32,8.241,1.602
				c1.923,2,5.68,2.878,8.32,2.078c2.719-0.8,6.32,0.32,8.078,2.48c1.68,2.082,5.358,3.441,8.077,2.878
				c2.719-0.558,6.242,0.883,7.758,3.204c1.523,2.316,5.046,4,7.843,3.679c2.719-0.242,6,1.519,7.358,4
				c1.281,2.398,4.641,4.398,7.359,4.398c2.805,0,5.922,2.078,6.961,4.64c1.117,2.559,4.242,4.879,6.96,5.199
				c2.797,0.238,5.679,2.64,6.477,5.281c0.805,2.641,3.68,5.277,6.406,5.758c2.718,0.562,5.358,3.198,5.913,5.921
				c0.563,2.719,3.125,5.598,5.843,6.398c2.641,0.801,5.04,3.761,5.281,6.48c0.234,2.8,2.555,5.921,5.117,6.96
				c2.562,1.039,4.641,4.16,4.641,6.96c0,2.718,2,6.078,4.476,7.359c2.406,1.359,4.242,4.641,3.922,7.437
				c-0.241,2.722,1.438,6.242,3.68,7.762c2.32,1.601,3.758,5.038,3.281,7.761c-0.563,2.719,0.718,6.398,2.883,8.156
				c2.155,1.761,3.195,5.363,2.397,8c-0.804,2.641,0.157,6.402,2.078,8.402c2,1.918,2.72,5.598,1.68,8.16
				c-1.039,2.558-0.477,6.397,1.281,8.558c1.759,2.16,2.079,5.922,0.797,8.319c-1.273,2.48-1.117,6.32,0.406,8.641
				c1.594,2.32,1.594,6.078,0,8.398c-1.523,2.32-1.68,6.159-0.406,8.64c1.282,2.402,0.962,6.16-0.797,8.32
				c-1.758,2.16-2.32,6-1.281,8.479c1.04,2.641,0.32,6.32-1.601,8.238c-2,2-2.961,5.762-2.157,8.402c0.798,2.64-0.242,6.237-2.397,8
				c-2.165,1.758-3.445,5.437-2.883,8.16c0.477,2.718-0.961,6.16-3.203,7.679c-2.32,1.52-3.999,5.039-3.758,7.84
				c0.243,1.758-16.874,5.199-16.874,5.199c0.094-0.581,0.133-1.175,0.219-1.761C394.492,258.626,394.813,257.434,394.655,256.329z"
				/>
		</g>
	</g>
	<g>
		<path fill="#5D9CEC" d="M204.003,220.01c17.678,0,31.998,14.319,31.998,31.998c0,17.679-14.319,32-31.998,32
			c-17.679,0-31.999-14.32-31.999-32C172.005,234.33,186.324,220.01,204.003,220.01z"/>
	</g>
	<g opacity="0.3">
		<path fill="#FFFFFF" d="M184.762,277.438c4.273,3.233,9.351,5.374,14.921,6.132l16.39-61.165
			c-3.727-1.523-7.789-2.395-12.069-2.395c-1.36,0-2.648,0.234-3.961,0.398L184.762,277.438z"/>
	</g>
	<g opacity="0.3">
		<path fill="#FFFFFF" d="M203.722,283.983c0.102,0,0.187,0.024,0.281,0.024c1.359,0,2.648-0.235,3.96-0.399l15.28-57.024
			c-1.125-0.848-2.305-1.598-3.531-2.296L203.722,283.983z"/>
	</g>
	<g>
		<path fill="#5D9CEC" d="M307.997,220.01c17.679,0,31.998,14.319,31.998,31.998c0,17.679-14.319,32-31.998,32
			s-31.999-14.32-31.999-32C275.998,234.33,290.318,220.01,307.997,220.01z"/>
	</g>
	<g opacity="0.3">
		<path fill="#FFFFFF" d="M288.756,277.438c4.273,3.233,9.352,5.374,14.921,6.132l16.39-61.165
			c-3.727-1.523-7.789-2.395-12.069-2.395c-1.359,0-2.649,0.234-3.961,0.398L288.756,277.438z"/>
	</g>
	<g opacity="0.3">
		<path fill="#FFFFFF" d="M307.716,283.983c0.102,0,0.187,0.024,0.281,0.024c1.359,0,2.648-0.235,3.961-0.399l15.28-57.024
			c-1.125-0.848-2.306-1.598-3.531-2.296L307.716,283.983z"/>
	</g>
	<g>
		<g>
			<path fill="#3A3847" d="M499.985,511.993H12.015c-2.211,0-4-1.79-4-4v-8c0-34.372,17.78-47.512,50.598-59.745
				c61.168-22.905,85.362-36.796,94.893-44.412c1.742-1.375,4.25-1.093,5.625,0.633c1.383,1.727,1.102,4.242-0.625,5.617
				c-14.522,11.608-47.192,26.967-97.087,45.661c-30.764,11.46-45.404,22.201-45.404,52.246v4h479.971v-4
				c0-30.045-14.64-40.786-45.396-52.246c-49.794-18.655-82.464-34.014-97.088-45.654c-1.727-1.375-2.016-3.89-0.641-5.624
				c1.382-1.726,3.913-2.008,5.625-0.633c9.601,7.641,33.865,21.554,94.907,44.419c32.811,12.227,50.591,25.366,50.591,59.738v8
				C503.984,510.203,502.196,511.993,499.985,511.993z"/>
		</g>
		<g>
			<path fill="#3A3847" d="M256,415.999c-50.935,0-127.906-72.41-141.78-153.8c-1.469-9.082-2.211-17.882-2.211-26.19
				c0-2.211,1.789-4,4-4c2.21,0,4,1.789,4,4c0,7.878,0.71,16.249,2.102,24.878c13.272,77.835,85.932,147.111,133.89,147.111
				c46.271,0,125.188-69.621,135.054-155.409c0.625-5.417,0.938-11,0.938-16.581c0-2.211,1.788-4,3.999-4c2.212,0,4,1.789,4,4
				c0,5.887-0.328,11.773-0.984,17.491C389.374,337.198,310.277,415.999,256,415.999z"/>
		</g>
		<g>
			<path fill="#3A3847" d="M347.994,392c-2.211,0-4-1.788-4-3.999v-8c0-2.211,1.789-4,4-4s4,1.789,4,4v8
				C351.994,390.212,350.205,392,347.994,392z"/>
		</g>
		<g>
			<path fill="#3A3847" d="M291.998,447.997c-1.024,0-2.047-0.391-2.828-1.172c-1.563-1.563-1.563-4.094,0-5.656l55.918-55.918
				c1.523-1.609,4.047-1.672,5.656-0.157c1.602,1.524,1.672,4.055,0.156,5.656l-1.438,1.523l-54.637,54.56
				C294.044,447.606,293.021,447.997,291.998,447.997z"/>
		</g>
		<g>
			<path fill="#3A3847" d="M291.998,447.997c-0.602,0-1.211-0.134-1.789-0.422l-31.998-15.999c-1.977-0.984-2.773-3.391-1.79-5.367
				c0.993-1.969,3.391-2.766,5.367-1.789l31.999,15.999c1.976,0.992,2.773,3.391,1.788,5.367
				C294.873,447.192,293.458,447.997,291.998,447.997z"/>
		</g>
		<g>
			<path fill="#3A3847" d="M164.006,392c-2.211,0-4-1.788-4-3.999v-8c0-2.211,1.789-4,4-4c2.21,0,4,1.789,4,4v8
				C168.005,390.212,166.216,392,164.006,392z"/>
		</g>
		<g>
			<path fill="#3A3847" d="M220.002,447.997c-1.024,0-2.047-0.391-2.829-1.172l-55.996-55.989c-1.563-1.563-1.563-4.093-0.008-5.655
				c1.562-1.57,4.101-1.563,5.664-0.008l55.997,55.996c1.563,1.563,1.563,4.094,0,5.656
				C222.049,447.606,221.025,447.997,220.002,447.997z"/>
		</g>
		<g>
			<path fill="#3A3847" d="M220.002,447.997c-1.461,0-2.875-0.805-3.579-2.211c-0.984-1.977-0.187-4.375,1.79-5.367l31.998-15.999
				c1.984-0.984,4.375-0.187,5.367,1.789c0.984,1.977,0.188,4.383-1.789,5.367l-31.998,15.999
				C221.213,447.863,220.604,447.997,220.002,447.997z"/>
		</g>
		<g>
			<path fill="#3A3847" d="M105.212,267.688c-0.649,0-1.305-0.156-1.914-0.484c-1.406-0.766-2.57-1.797-3.563-3.155
				c-1.851-2.345-2.789-5.48-2.406-8.267c0.094-1.141-0.898-3.234-1.992-3.945c-3.586-2.433-5.695-7.457-4.945-11.718
				c0.281-1.382-0.485-3.566-1.469-4.363c-3.391-2.77-4.976-8.039-3.703-12.261c0.375-1.242-0.203-3.469-1.156-4.418
				c-3.04-3.031-4.109-8.421-2.492-12.531c0.508-1.222,0.148-3.488-0.664-4.492c-2.758-3.391-3.289-8.858-1.226-12.726
				c0.601-1.168,0.507-3.457-0.219-4.562c-2.484-3.617-2.484-9.171,0.047-12.859c0.68-1.035,0.773-3.324,0.148-4.546
				c-2.039-3.809-1.516-9.281,1.25-12.671c0.828-1.023,1.172-3.308,0.68-4.531c-1.672-4.121-0.547-9.515,2.617-12.55
				c0.82-0.863,1.39-3.113,1.015-4.347c-1.273-4.234,0.313-9.499,3.695-12.265c0.992-0.805,1.757-2.988,1.5-4.25
				c-0.781-4.426,1.304-9.363,4.922-11.863c1.085-0.734,2.085-2.839,1.968-4.113c-0.484-4.199,2.07-9.089,5.937-11.276
				c1.258-0.648,2.445-2.605,2.445-3.875c0-4.434,3.07-9.019,7.141-10.667c1.172-0.476,2.523-2.32,2.632-3.585
				c0.383-4.344,3.945-8.714,8.102-9.976c1.305-0.383,2.812-2.051,3.093-3.378c0.867-4.257,4.742-8.145,9.015-9.031
				c1.336-0.234,3.016-1.769,3.391-3.003c1.281-4.242,5.562-7.726,9.968-8.101c1.187-0.145,3.086-1.57,3.632-2.816
				c1.609-3.968,6.195-7.038,10.624-7.038c1.242,0,3.25-1.195,3.828-2.285c2.125-3.871,7.023-6.445,11.242-6.097
				c1.43,0.132,3.453-0.825,4.148-1.895c2.422-3.695,7.539-5.816,11.906-4.921c1.25,0.25,3.398-0.523,4.164-1.472
				c2.781-3.43,8.085-5.063,12.32-3.805c1.273,0.386,3.46-0.137,4.304-1.016c3.25-3.117,8.625-4.148,12.624-2.535
				c1.234,0.5,3.516,0.152,4.539-0.676c3.328-2.82,8.843-3.367,12.765-1.203c1.109,0.585,3.391,0.449,4.453-0.266
				c3.601-2.457,9.226-2.457,12.828-0.016c1.077,0.75,3.336,0.852,4.554,0.234c3.836-2.039,9.297-1.503,12.688,1.25
				c1.015,0.828,3.289,1.176,4.53,0.676c4.039-1.652,9.43-0.578,12.491,2.48c0.945,0.945,3.18,1.546,4.414,1.16
				c4.211-1.281,9.484,0.305,12.25,3.695c0.812,0.988,3.022,1.773,4.249,1.492c4.391-0.742,9.406,1.336,11.804,4.882
				c0.758,1.098,2.844,2.219,4.18,2.012c4.242-0.516,9.242,2.156,11.265,6.07c0.603,1.059,2.563,2.235,3.883,2.235
				c4.359,0,9.047,3.136,10.664,7.136c0.491,1.195,2.358,2.574,3.71,2.73c4.25,0.372,8.491,3.855,9.772,8.097
				c0.398,1.176,2.164,2.82,3.407,3.083c4.233,0.75,8.257,4.773,9.022,9.14c0.242,1.156,1.828,2.848,3.172,3.301
				c4.132,1.246,7.616,5.492,7.992,9.847c0.14,1.238,1.522,3.113,2.718,3.597c4.007,1.625,7.141,6.308,7.141,10.667
				c0,1.32,1.171,3.281,2.366,3.957c3.766,1.937,6.406,6.781,6.016,11.194c-0.156,1.332,0.859,3.43,1.961,4.191
				c3.624,2.46,5.719,7.527,4.859,11.772c-0.259,1.25,0.53,3.457,1.539,4.305c3.366,2.742,5,8.015,3.726,12.21
				c-0.39,1.272,0.156,3.495,1.078,4.417c3.148,3.14,4.195,8.554,2.438,12.585c-0.453,1.133-0.117,3.414,0.711,4.43
				c2.843,3.492,3.352,8.999,1.18,12.823c-0.531,1.047-0.398,3.332,0.352,4.472c2.382,3.648,2.382,9.14,0.008,12.78
				c-0.742,1.125-0.876,3.344-0.273,4.406c2.07,4.016,1.507,9.499-1.257,12.89c-0.82,1.004-1.173,3.266-0.696,4.41
				c1.758,4.027,0.664,9.616-2.523,12.671c-0.82,0.863-1.391,3.113-1.016,4.351c1.266,4.207-0.359,9.477-3.789,12.265
				c-0.921,0.785-1.734,2.98-1.484,4.145c0.898,4.398-1.227,9.515-4.922,11.94c-0.983,0.657-1.874,2.504-1.874,3.934
				c0,2.211-1.789,4.282-4,4.282s-4-1.512-4-3.723v-0.559c0-4.097,2.242-8.457,5.453-10.605c0.984-0.644,1.742-2.504,1.508-3.64
				c-0.859-4.027,0.953-9.167,4.211-11.929c0.961-0.781,1.57-2.703,1.242-3.789c-1.211-3.972,0.085-9.276,3.023-12.331
				c0.897-0.868,1.272-2.832,0.82-3.863c-1.648-3.925-0.844-9.324,1.852-12.612c0.75-0.93,0.968-2.965,0.414-4.031
				c-1.993-3.508-1.759-8.98,0.616-12.593c0.649-0.988,0.649-3.02-0.007-4.015c-2.344-3.566-2.634-8.898-0.688-12.664
				c0.61-1.082,0.399-3.051-0.344-3.961c-2.663-3.257-3.477-8.671-1.882-12.585c0.476-1.101,0.086-3.019-0.727-3.824
				c-2.993-3-4.32-8.328-3.078-12.397c0.328-1.079-0.281-3-1.18-3.735c-3.305-2.796-5.117-7.964-4.266-12.065
				c0.219-1.075-0.57-2.91-1.539-3.566c-3.578-2.465-5.891-7.453-5.398-11.617c0.087-1.047-0.858-2.82-1.867-3.336
				c-3.858-2.183-6.562-6.777-6.562-10.991c0-1.137-1.125-2.84-2.141-3.254c-3.89-1.578-7.194-5.968-7.679-10.214
				c-0.102-1.195-1.359-2.691-2.453-3.023c-4.188-1.398-7.766-5.347-8.602-9.421c-0.21-1.175-1.64-2.597-2.702-2.789
				c-4.141-0.878-8.164-4.523-9.5-8.507c-0.367-1.211-1.867-2.472-2.952-2.566c-4.345-0.496-8.734-3.792-10.313-7.679
				c-0.422-1.023-2.125-2.145-3.258-2.145c-4.219,0-8.805-2.703-10.913-6.425c-0.586-1.125-2.445-2.012-3.414-1.922
				c-4.313,0.395-9.194-1.972-11.601-5.457c-0.656-0.965-2.531-1.695-3.695-1.539c-4.063,0.848-9.257-0.988-11.952-4.293
				c-0.727-0.882-2.633-1.441-3.734-1.093c-4.047,1.215-9.366-0.141-12.391-3.16c-0.788-0.789-2.765-1.152-3.835-0.723
				c-3.906,1.59-9.32,0.781-12.585-1.887c-0.891-0.722-2.898-0.91-3.914-0.367c-3.921,2.016-9.266,1.703-12.788-0.719
				c-0.859-0.578-2.922-0.586-3.797,0.015c-3.484,2.415-8.992,2.719-12.772,0.704c-1.047-0.574-3.008-0.399-3.852,0.32
				c-3.328,2.703-8.757,3.516-12.648,1.933c-1.109-0.449-3.101-0.051-3.968,0.778c-2.82,2.933-8.132,4.269-12.257,3.022
				c-1.101-0.32-3.054,0.266-3.812,1.176c-2.656,3.297-7.82,5.121-11.991,4.274c-1.156-0.234-2.992,0.542-3.594,1.472
				c-2.375,3.609-7.483,5.914-11.648,5.464c-1.14-0.141-2.82,0.887-3.398,1.949c-1.96,3.675-6.64,6.476-10.867,6.476
				c-1.18,0-2.82,1.082-3.257,2.145c-1.711,3.926-6.078,7.183-10.195,7.667c-1.25,0.109-2.789,1.367-3.117,2.465
				c-1.258,4.137-5.359,7.804-9.539,8.539c-1.039,0.218-2.453,1.632-2.687,2.781c-0.883,4.262-4.516,8.223-8.632,9.438
				c-1.046,0.316-2.328,1.89-2.43,3c-0.359,4.258-3.625,8.699-7.601,10.312c-1.063,0.43-2.14,2.074-2.14,3.254
				c0,4.262-2.852,8.953-6.64,10.91c-0.945,0.539-1.915,2.308-1.781,3.429c0.375,4.273-1.953,9.183-5.414,11.531
				c-0.993,0.688-1.797,2.558-1.586,3.757c0.843,4.078-0.992,9.266-4.297,11.953c-0.859,0.703-1.43,2.628-1.093,3.738
				c1.211,3.973-0.086,9.277-3.024,12.332c-0.906,0.875-1.289,2.812-0.859,3.882c1.586,3.906,0.781,9.316-1.883,12.585
				c-0.719,0.887-0.914,2.899-0.367,3.914c1.984,3.867,1.719,9.191-0.594,12.718c-0.703,1.027-0.703,2.98-0.047,3.937
				c2.359,3.597,2.625,8.921,0.664,12.734c-0.57,1.07-0.375,3.082,0.344,3.968c2.68,3.292,3.484,8.691,1.867,12.55
				c-0.46,1.172,0.008,3.133,0.743,3.859c3.031,3.031,4.382,8.363,3.156,12.398c-0.344,1.125,0.211,3.016,1.101,3.738
				c3.297,2.68,5.132,7.871,4.266,12.065c-0.18,1.035,0.602,2.926,1.531,3.559c3.484,2.281,5.867,7.238,5.5,11.496
				c-0.094,0.727,0.203,1.742,0.828,2.531c0.39,0.531,0.656,0.774,1.023,0.974c1.937,1.055,2.656,3.484,1.602,5.426
				C108.001,266.938,106.626,267.688,105.212,267.688z"/>
		</g>
		<g>
			<path fill="#3A3847" d="M255.938,209.862c-2.281,0-4.554-0.597-6.375-1.785c-1.109-0.742-3.391-0.883-4.477-0.297
				c-3.882,2.121-9.398,1.594-12.788-1.273c-0.953-0.782-3.234-1.125-4.477-0.629c-4,1.621-9.39,0.582-12.515-2.425
				c-0.969-1-3.164-1.547-4.5-1.184c-4.039,1.316-9.398-0.253-12.226-3.734c-0.813-0.992-2.96-1.734-4.164-1.484
				c-4.179,0.852-9.445-1.27-11.882-4.875c-0.735-1.117-2.945-2.109-4.078-1.949c-4.563,0.328-9.226-2.223-11.32-6.054
				c-0.602-1.125-2.609-2.32-3.852-2.32c-4.429,0-9.015-3.07-10.663-7.137c-0.507-1.148-2.406-2.573-3.727-2.73
				c-2.171-0.253-4.32-1.211-6.054-2.691c-1.766-1.417-3.149-3.355-3.774-5.374c-0.656-2.11,0.524-4.352,2.633-5.008
				c2.156-0.633,4.358,0.527,5.007,2.633c0.125,0.395,0.555,1.039,1.234,1.585c0.61,0.516,1.313,0.844,1.891,0.91
				c4.117,0.484,8.484,3.742,10.156,7.57c0.476,1.16,2.117,2.242,3.296,2.242c4.227,0,8.906,2.801,10.89,6.515
				c0.555,1.02,2.078,1.989,3.477,1.899c4.109-0.449,9.171,1.867,11.538,5.472c0.609,0.898,2.508,1.734,3.609,1.477
				c4.156-0.844,9.304,0.977,11.983,4.273c0.742,0.907,2.586,1.469,3.742,1.117c4.335-1.167,9.585,0.227,12.437,3.191
				c0.75,0.719,2.765,1.105,3.858,0.668c3.906-1.582,9.328-0.773,12.585,1.887c0.914,0.766,2.859,0.945,3.875,0.391
				c3.704-1.969,9.125-1.68,12.672,0.641c0.984,0.656,3.023,0.66,4.007,0.004c3.445-2.375,8.804-2.688,12.672-0.691
				c1.077,0.609,3.054,0.39,3.952-0.344c3.272-2.66,8.687-3.476,12.593-1.887c1.07,0.473,3.063,0.055,3.835-0.723
				c2.993-2.988,8.313-4.312,12.391-3.078c1.023,0.336,3-0.281,3.742-1.184c2.789-3.3,7.929-5.125,12.062-4.265
				c1.102,0.227,2.898-0.535,3.523-1.472c2.5-3.629,7.438-5.953,11.647-5.465c1.039,0.016,2.828-0.867,3.344-1.862
				c2.187-3.86,6.772-6.563,10.991-6.563c0.117,0,0.297-0.023,0.82-0.195c1.18-0.363,2.164-1.301,2.445-1.977
				c1.57-3.859,5.96-7.156,10.203-7.64c1.187-0.105,2.687-1.367,3.022-2.465c0.641-2.117,2.883-3.32,4.983-2.671
				c2.118,0.636,3.313,2.867,2.672,4.984c-1.281,4.242-5.522,7.726-9.874,8.109c-1.25,0.145-3.117,1.522-3.608,2.718
				c-1.234,2.992-4.141,5.559-7.414,6.562c-0.813,0.27-1.906,0.575-3.25,0.575c-1.32,0-3.28,1.175-3.96,2.371
				c-1.938,3.762-6.859,6.43-11.188,6.012c-1.413-0.215-3.445,0.867-4.202,1.973c-2.368,3.617-7.508,5.718-11.773,4.843
				c-1.219-0.246-3.445,0.539-4.297,1.542c-2.757,3.379-8.022,5.008-12.218,3.727c-1.233-0.398-3.483,0.156-4.406,1.078
				c-3.132,3.141-8.671,4.207-12.64,2.417c-1.078-0.43-3.367-0.093-4.391,0.739c-3.468,2.839-8.976,3.352-12.811,1.176
				c-1.086-0.551-3.32-0.438-4.406,0.293C260.554,209.25,258.242,209.862,255.938,209.862z"/>
		</g>
		<g>
			<path fill="#3A3847" d="M395.991,208.011c-1.819,0-3.46-1.242-3.89-3.082c-0.313-1.301-1.859-2.965-3.078-3.296
				c-4.289-1.137-7.922-5.316-8.438-9.71c-0.156-1.305-1.523-3.074-2.719-3.523c-4.164-1.641-7.351-6.148-7.476-10.511
				c-0.063-2.211,1.68-4.051,3.891-4.113c2.125-0.094,4.038,1.68,4.108,3.886c0.032,1.199,1.195,2.816,2.344,3.27
				c3.929,1.472,7.304,5.813,7.797,10.07c0.125,1.109,1.452,2.609,2.57,2.906c4.038,1.102,7.812,5.051,8.78,9.187
				c0.508,2.152-0.82,4.305-2.977,4.813C396.601,207.976,396.288,208.011,395.991,208.011z"/>
		</g>
		<g>
			<path fill="#3A3847" d="M116.009,208.011c-0.297,0-0.609-0.035-0.914-0.105c-2.156-0.508-3.484-2.66-2.977-4.813
				c0.969-4.136,4.742-8.085,8.765-9.179c1.133-0.305,2.46-1.805,2.594-2.93c0.484-4.242,3.859-8.582,7.843-10.078
				c1.093-0.43,2.257-2.047,2.289-3.246c0.063-2.207,1.773-3.976,4.109-3.886c2.21,0.063,3.953,1.902,3.89,4.113
				c-0.125,4.363-3.312,8.87-7.421,10.487c-1.25,0.473-2.617,2.242-2.766,3.531c-0.523,4.41-4.156,8.589-8.46,9.734
				c-1.203,0.324-2.75,1.988-3.063,3.289C119.469,206.769,117.829,208.011,116.009,208.011z"/>
		</g>
		<g>
			<path fill="#3A3847" d="M395.991,240.009c-2.211,0-3.999-1.789-3.999-4V220.01c0-2.211,1.788-4,3.999-4c2.212,0,4,1.789,4,4
				v15.999C399.991,238.22,398.203,240.009,395.991,240.009z"/>
		</g>
		<g>
			<path fill="#3A3847" d="M116.009,240.009c-2.211,0-4-1.789-4-4V220.01c0-2.211,1.789-4,4-4c2.21,0,4,1.789,4,4v15.999
				C120.008,238.22,118.219,240.009,116.009,240.009z"/>
		</g>
		<g>
			<path fill="#3A3847" d="M204.003,288.007c-19.851,0-35.998-16.147-35.998-35.999c0-19.85,16.147-35.998,35.998-35.998
				c19.85,0,35.998,16.147,35.998,35.998C240.001,271.859,223.854,288.007,204.003,288.007z M204.003,224.01
				c-15.437,0-27.999,12.562-27.999,27.998c0,15.437,12.562,28,27.999,28c15.436,0,27.998-12.563,27.998-28
				C232.001,236.572,219.439,224.01,204.003,224.01z"/>
		</g>
		<g>
			<path fill="#3A3847" d="M307.997,288.007c-19.851,0-35.998-16.147-35.998-35.999c0-19.85,16.147-35.998,35.998-35.998
				s35.997,16.147,35.997,35.998C343.994,271.859,327.848,288.007,307.997,288.007z M307.997,224.01
				c-15.437,0-27.999,12.562-27.999,27.998c0,15.437,12.563,28,27.999,28c15.436,0,27.998-12.563,27.998-28
				C335.995,236.572,323.433,224.01,307.997,224.01z"/>
		</g>
		<g>
			<path fill="#3A3847" d="M275.982,256.004c-0.594,0-1.195-0.133-1.757-0.41c-0.078-0.039-7.444-3.586-18.866-3.586
				c-11.265,0-17.265,3.41-17.319,3.441c-1.906,1.105-4.359,0.476-5.468-1.414c-1.117-1.891-0.516-4.32,1.367-5.453
				c0.313-0.188,7.75-4.574,21.421-4.574c13.429,0,22.068,4.242,22.428,4.422c1.97,0.984,2.766,3.375,1.79,5.351
				C278.882,255.188,277.459,256.004,275.982,256.004z"/>
		</g>
	</g>
</g>
</svg>
