<?xml version="1.0" encoding="utf-8"?>
<!-- Generator: Adobe Illustrator 16.0.0, SVG Export Plug-In . SVG Version: 6.00 Build 0)  -->
<!DOCTYPE svg PUBLIC "-//W3C//DTD SVG 1.1//EN" "http://www.w3.org/Graphics/SVG/1.1/DTD/svg11.dtd">
<svg version="1.1" id="Слой_1" xmlns="http://www.w3.org/2000/svg" xmlns:xlink="http://www.w3.org/1999/xlink" x="0px" y="0px"
	 width="512px" height="512px" viewBox="0 0 512 512" enable-background="new 0 0 512 512" xml:space="preserve">
<g id="_x31_6_hairstyle_x2C__style_x2C__shirt_x2C__man_x2C__people_x2C__manager_x2C__beard">
	<g>
		<path fill="#ED5565" d="M267.999,375.422l47.998,20.569l39.122-54.794l16.873,12.078c24.32,13.437,61.035,27.6,79.996,34.717
			c31.998,11.921,47.997,23.998,47.997,55.996s0,63.996,0,63.996h-31.998h-31.999h-31.997h-31.999h-31.997h-31.998h-39.998V375.422z
			"/>
	</g>
	<g>
		<polygon fill="#E6E9ED" points="341.565,310.934 256,355.993 170.435,310.934 156.006,339.995 196.004,395.991 256,371.992 
			315.997,395.991 355.993,339.995 		"/>
	</g>
	<g>
		<g>
			<polygon fill="#FFFFFF" points="164.006,339.995 176.778,314.277 170.435,310.934 156.006,339.995 196.004,395.991 
				202.226,393.499 			"/>
		</g>
	</g>
	<g opacity="0.2">
		<g>
			<polygon points="347.104,339.995 334.339,314.277 340.683,310.934 355.103,339.995 315.105,395.991 308.888,393.499 			"/>
		</g>
	</g>
	<g>
		<polygon fill="#E6E9ED" points="267.999,375.422 260,371.992 252,371.992 244.001,375.422 244.001,507.984 267.999,507.984 		"/>
	</g>
	<g opacity="0.2">
		<polygon points="252,371.992 244.001,375.422 244.001,384.789 256,379.992 267.999,384.789 267.999,375.422 260,371.992 		"/>
	</g>
	<g>
		<path fill="#ED5565" d="M244.001,375.422l-47.997,20.569l-39.119-54.794l-16.877,12.078c-24.319,13.437-61.036,27.6-79.995,34.717
			c-31.999,11.921-47.997,23.998-47.997,55.996s0,63.996,0,63.996h31.998h31.998h31.998h31.999h31.998h31.999h39.998V375.422z"/>
	</g>
	<g opacity="0.3">
		<g>
			<path fill="#FFFFFF" d="M28.014,459.986c0-31.997,16-44.074,47.997-55.995c18.96-7.117,55.676-21.28,79.995-34.717l13.851-9.906
				l-12.972-18.171l-16.877,12.078c-24.319,13.437-61.036,27.6-79.995,34.717c-31.999,11.921-47.997,23.998-47.997,55.996
				s0,63.996,0,63.996h15.999C28.014,495.688,28.014,477.846,28.014,459.986z"/>
		</g>
	</g>
	<g opacity="0.2">
		<g>
			<path d="M483.986,459.986c0-31.997-15.999-44.074-47.998-55.995c-18.959-7.117-55.676-21.28-79.995-34.717l-13.851-9.906
				l12.977-18.171l16.873,12.078c24.32,13.437,61.035,27.6,79.996,34.717c31.998,11.921,47.997,23.998,47.997,55.996
				s0,63.996,0,63.996h-15.999C483.986,495.688,483.986,477.846,483.986,459.986z"/>
		</g>
	</g>
	<g>
		<path fill="#3A3847" d="M256.238,391.992c-2.207,0-4.039-1.79-4.039-4c0-2.211,1.75-4,3.961-4h0.078c2.211,0,3.999,1.789,3.999,4
			C260.237,390.202,258.449,391.992,256.238,391.992z"/>
	</g>
	<g>
		<path fill="#3A3847" d="M256.238,423.989c-2.207,0-4.039-1.788-4.039-3.999s1.75-4,3.961-4h0.078c2.211,0,3.999,1.789,3.999,4
			S258.449,423.989,256.238,423.989z"/>
	</g>
	<g>
		<path fill="#3A3847" d="M256.238,455.987c-2.207,0-4.039-1.789-4.039-4c0-2.21,1.75-3.999,3.961-3.999h0.078
			c2.211,0,3.999,1.789,3.999,3.999C260.237,454.198,258.449,455.987,256.238,455.987z"/>
	</g>
	<g>
		<path fill="#3A3847" d="M256.238,487.985c-2.207,0-4.039-1.788-4.039-3.999s1.75-4,3.961-4h0.078c2.211,0,3.999,1.789,3.999,4
			S258.449,487.985,256.238,487.985z"/>
	</g>
	<g>
		<path fill="#656D78" d="M256,4.016c155.99,0,139.991,159.99,139.991,159.99l-35.123-49.435c0,0-54.473,25.437-104.868,25.437
			s-106.552-25.437-106.552-25.437l-33.439,49.435C116.009,164.006,100.01,4.016,256,4.016z"/>
	</g>
	<g opacity="0.2">
		<g>
			<path fill="#FFFFFF" d="M263.999,4.273c-2.651-0.094-5.237-0.258-7.999-0.258c-155.99,0-139.991,159.99-139.991,159.99
				l15.858-23.444C134.246,97.174,152.831,8.397,263.999,4.273z"/>
		</g>
	</g>
	<g opacity="0.2">
		<g>
			<path d="M248.004,4.273c2.652-0.094,5.238-0.258,8-0.258c155.986,0,139.987,159.99,139.987,159.99l-15.858-23.444
				C377.758,97.174,359.173,8.397,248.004,4.273z"/>
		</g>
	</g>
	<g>
		<path fill="#EAC6BB" d="M395.991,180.005v7.999c0,16.796-2.875,33.037-7.999,48.474c-47.997,71.519-81.12,81.994-111.994,95.518
			l-7.999-7.999h-23.998l-8,7.999c-30.877-13.523-63.996-23.999-111.993-95.518c-5.121-15.437-8-31.678-8-48.474v-7.999v-15.999
			l33.439-49.435c0,0,56.157,25.437,106.552,25.437s104.868-25.437,104.868-25.437l35.123,49.435V180.005z"/>
	</g>
	<g opacity="0.5">
		<g>
			<path fill="#FFFFFF" d="M147.131,268.624c-5.121-15.437-15.124-63.824-15.124-80.62v-7.999v-39.443l-15.999,23.444v15.999v7.999
				c0,16.796,2.878,33.037,8,48.474C124.008,236.478,146.628,267.069,147.131,268.624z"/>
		</g>
	</g>
	<g opacity="0.2">
		<g>
			<path d="M364.868,268.624c5.124-15.437,15.124-63.824,15.124-80.62v-7.999v-39.443l15.999,23.444v15.999v7.999
				c0,16.796-2.875,33.037-7.999,48.474C387.992,236.478,365.368,267.069,364.868,268.624z"/>
		</g>
	</g>
	<g>
		<path fill="#656D78" d="M275.998,331.995c30.874-13.523,63.997-23.999,111.994-95.518
			C365.274,305.036,299.513,355.993,256,355.993c-43.517,0-109.274-50.957-131.992-119.516
			c47.997,71.519,81.116,81.994,111.993,95.518l8-7.999h23.998L275.998,331.995z"/>
	</g>
	<g opacity="0.2">
		<g>
			<path fill="#FFFFFF" d="M170.759,293.021c-14.045-12.93-29.416-30.718-46.75-56.544C146.726,305.036,212.483,355.993,256,355.993
				c2.59,0,5.266-0.202,7.999-0.562C234.728,351.642,198.046,327.948,170.759,293.021z"/>
		</g>
	</g>
	<g opacity="0.2">
		<g>
			<path d="M341.245,293.021c14.046-12.93,29.42-30.718,46.747-56.544c-22.718,68.559-88.472,119.516-131.988,119.516
				c-2.59,0-5.265-0.202-8-0.562C277.279,351.642,313.958,327.948,341.245,293.021z"/>
		</g>
	</g>
	<g opacity="0.2">
		<polygon points="158.358,343.26 196.004,403.991 244.001,384.789 244.001,375.422 196.004,395.991 		"/>
	</g>
	<g opacity="0.2">
		<polygon points="315.997,403.991 353.643,343.26 315.997,395.991 267.999,375.422 267.999,384.789 		"/>
	</g>
	<g>
		<g>
			<path fill="#3A3847" d="M499.985,511.984H12.015c-2.211,0-4-1.789-4-4v-63.996c0-34.373,17.784-47.521,50.602-59.746
				c35.322-13.257,62.059-24.858,79.456-34.467c1.938-1.086,4.371-0.367,5.434,1.563c1.07,1.938,0.367,4.366-1.566,5.437
				c-17.733,9.797-44.825,21.563-80.522,34.959c-30.768,11.468-45.404,22.202-45.404,52.255v59.996h479.971v-59.996
				c0-30.053-14.64-40.787-45.388-52.246c-10.75-4.016-27.061-10.281-43.693-17.351c-14.96-6.406-27.35-12.336-36.856-17.625
				c-1.931-1.069-2.625-3.507-1.555-5.437c1.078-1.922,3.515-2.633,5.444-1.547c9.266,5.156,21.413,10.96,36.107,17.249
				c16.491,7.015,32.67,13.233,43.342,17.21c32.817,12.226,50.598,25.373,50.598,59.746v63.996
				C503.984,510.195,502.196,511.984,499.985,511.984z"/>
		</g>
		<g>
			<path fill="#3A3847" d="M256,359.993c-44.974,0-112.603-52.286-135.789-122.258c-5.441-16.405-8.203-33.139-8.203-49.731
				c0-2.211,1.789-3.999,4-3.999c2.21,0,4,1.788,4,3.999c0,15.733,2.625,31.624,7.796,47.216
				C149.952,302.052,213.752,351.994,256,351.994c42.248,0,106.048-49.942,128.195-116.774c5.172-15.592,7.797-31.482,7.797-47.216
				c0-2.211,1.788-3.999,3.999-3.999c2.212,0,4,1.788,4,3.999c0,16.593-2.766,33.326-8.203,49.731
				C368.603,307.707,300.974,359.993,256,359.993z"/>
		</g>
		<g>
			<path fill="#3A3847" d="M355.993,343.994c-1.468,0-2.874-0.813-3.577-2.211l-7.999-15.999c-0.984-1.977-0.188-4.374,1.788-5.366
				s4.383-0.18,5.367,1.789l8,15.999c0.983,1.976,0.187,4.374-1.789,5.366C357.213,343.861,356.603,343.994,355.993,343.994z"/>
		</g>
		<g>
			<path fill="#3A3847" d="M315.997,399.991c-0.813,0-1.626-0.242-2.329-0.742c-1.796-1.289-2.21-3.781-0.921-5.586l39.997-55.996
				c1.281-1.781,3.78-2.203,5.578-0.931c1.796,1.29,2.211,3.781,0.921,5.586l-39.997,55.997
				C318.465,399.405,317.246,399.991,315.997,399.991z"/>
		</g>
		<g>
			<path fill="#3A3847" d="M315.997,399.991c-0.532,0-1.063-0.102-1.579-0.32l-55.988-23.999c-2.031-0.866-2.977-3.219-2.109-5.25
				c0.871-2.03,3.23-2.976,5.25-2.108l56.004,23.999c2.031,0.875,2.969,3.226,2.094,5.257
				C319.027,399.085,317.543,399.991,315.997,399.991z"/>
		</g>
		<g>
			<path fill="#3A3847" d="M156.002,343.994c-0.602,0-1.211-0.133-1.785-0.422c-1.976-0.992-2.777-3.391-1.789-5.366l8-15.999
				c0.992-1.969,3.387-2.781,5.367-1.789c1.977,0.992,2.777,3.39,1.789,5.366l-8,15.999
				C158.881,343.182,157.471,343.994,156.002,343.994z"/>
		</g>
		<g>
			<path fill="#3A3847" d="M196.007,399.991c-1.25,0-2.48-0.586-3.257-1.68l-39.974-55.958c-1.301-1.781-0.915-4.288,0.871-5.586
				c1.781-1.312,4.285-0.906,5.589,0.868l0.879,1.202l39.142,54.834c1.285,1.796,0.867,4.288-0.93,5.577
				C197.625,399.749,196.812,399.991,196.007,399.991z"/>
		</g>
		<g>
			<path fill="#3A3847" d="M196.004,399.991c-1.551,0-3.028-0.906-3.676-2.422c-0.871-2.031,0.07-4.382,2.102-5.257l55.997-23.999
				c2.007-0.876,4.378,0.063,5.25,2.102c0.871,2.031-0.07,4.382-2.102,5.257l-55.997,23.999
				C197.066,399.89,196.531,399.991,196.004,399.991z"/>
		</g>
		<g>
			<path fill="#3A3847" d="M116.009,168.005c-0.324,0-0.657-0.038-0.98-0.125c-1.633-0.405-2.832-1.804-3-3.476
				c-0.305-3.031-6.93-74.862,36.646-123.017C173.521,13.937,209.631,0.016,256,0.016c46.373,0,82.479,13.921,107.322,41.372
				c43.575,48.154,36.95,119.985,36.653,123.017c-0.172,1.656-1.344,3.038-2.961,3.469c-1.632,0.39-3.32-0.195-4.289-1.547
				l-33.217-46.764c-12.312,5.391-59.026,24.444-103.509,24.444c-44.501,0-92.494-19.077-105.103-24.444l-31.576,46.686
				C118.567,167.365,117.317,168.005,116.009,168.005z M360.868,110.571c1.266,0,2.492,0.602,3.266,1.68l28.288,39.826
				c-0.009-22.03-3.868-70.926-35.069-105.361C334.089,21.038,299.998,8.016,256,8.016c-44.013,0-78.128,13.038-101.392,38.739
				c-30.982,34.24-34.99,82.62-35.037,104.845l26.564-39.271c1.085-1.609,3.183-2.203,4.96-1.398
				c0.555,0.25,55.985,25.077,104.904,25.077c48.942,0,102.643-24.812,103.182-25.062
				C359.728,110.696,360.306,110.571,360.868,110.571z"/>
		</g>
		<g>
			<path fill="#3A3847" d="M267.999,511.984c-2.211,0-4-1.789-4-4V387.992c0-2.211,1.789-4,4-4s4,1.789,4,4v119.992
				C271.999,510.195,270.21,511.984,267.999,511.984z"/>
		</g>
		<g>
			<path fill="#3A3847" d="M244.001,511.984c-2.211,0-4-1.789-4-4V387.992c0-2.211,1.789-4,4-4c2.21,0,4,1.789,4,4v119.992
				C248,510.195,246.211,511.984,244.001,511.984z"/>
		</g>
		<g>
			<path fill="#3A3847" d="M275.998,335.995c-1.538,0-3.007-0.891-3.663-2.398c-0.882-2.023,0.039-4.383,2.055-5.265l6.397-2.766
				c29.412-12.617,59.825-25.663,103.885-91.315c1.227-1.843,3.702-2.328,5.555-1.093c1.827,1.226,2.312,3.718,1.086,5.546
				c-45.38,67.612-78.315,81.745-107.377,94.221l-6.328,2.734C277.077,335.886,276.537,335.995,275.998,335.995z"/>
		</g>
		<g>
			<path fill="#3A3847" d="M235.998,335.995c-0.535,0-1.079-0.109-1.602-0.336l-6.335-2.734
				c-29.061-12.476-61.997-26.608-107.373-94.221c-1.23-1.828-0.742-4.32,1.09-5.546c1.835-1.243,4.316-0.758,5.55,1.093
				c44.06,65.652,74.472,78.698,103.884,91.315l6.394,2.766c2.023,0.882,2.945,3.241,2.059,5.265
				C239.009,335.104,237.54,335.995,235.998,335.995z"/>
		</g>
		<g>
			<path fill="#3A3847" d="M275.998,335.995c-1.022,0-2.046-0.391-2.827-1.172l-7.999-8c-1.563-1.562-1.563-4.093,0-5.655
				c1.562-1.563,4.093-1.563,5.655,0l8,7.999c1.562,1.563,1.562,4.094,0,5.656C278.046,335.604,277.022,335.995,275.998,335.995z"/>
		</g>
		<g>
			<path fill="#3A3847" d="M236.001,335.995c-1.023,0-2.047-0.391-2.828-1.172c-1.562-1.563-1.562-4.094,0-5.656l8-7.999
				c1.563-1.563,4.094-1.563,5.656,0c1.563,1.563,1.563,4.094,0,5.655l-8,8C238.048,335.604,237.024,335.995,236.001,335.995z"/>
		</g>
		<g>
			<path fill="#3A3847" d="M267.999,327.995h-23.998c-2.211,0-4-1.788-4-3.999s1.789-4,4-4h23.998c2.211,0,4,1.789,4,4
				S270.21,327.995,267.999,327.995z"/>
		</g>
		<g>
			<path fill="#3A3847" d="M307.997,511.984c-2.211,0-4-1.789-4-4V407.99c0-2.211,1.789-3.999,4-3.999s4,1.788,4,3.999v99.994
				C311.997,510.195,310.208,511.984,307.997,511.984z"/>
		</g>
		<g>
			<path fill="#3A3847" d="M339.995,511.984c-2.211,0-4-1.789-4-4V387.992c0-2.211,1.789-4,4-4s3.999,1.789,3.999,4v119.992
				C343.994,510.195,342.206,511.984,339.995,511.984z"/>
		</g>
		<g>
			<path fill="#3A3847" d="M371.992,511.984c-2.21,0-3.999-1.789-3.999-4v-138.71c0-2.211,1.789-4,3.999-4c2.211,0,4,1.789,4,4
				v138.71C375.992,510.195,374.203,511.984,371.992,511.984z"/>
		</g>
		<g>
			<path fill="#3A3847" d="M403.991,511.984c-2.211,0-4-1.789-4-4V383.992c0-2.211,1.789-4,4-4s3.999,1.789,3.999,4v123.992
				C407.99,510.195,406.202,511.984,403.991,511.984z"/>
		</g>
		<g>
			<path fill="#3A3847" d="M435.988,511.984c-2.211,0-3.999-1.789-3.999-4V397.913c0-2.211,1.788-4,3.999-4s4,1.789,4,4v110.071
				C439.988,510.195,438.199,511.984,435.988,511.984z"/>
		</g>
		<g>
			<path fill="#3A3847" d="M467.987,511.984c-2.211,0-4-1.789-4-4v-97.275c0-2.211,1.789-4,4-4s4,1.789,4,4v97.275
				C471.987,510.195,470.198,511.984,467.987,511.984z"/>
		</g>
		<g>
			<path fill="#3A3847" d="M204.003,511.984c-2.211,0-4-1.789-4-4V407.99c0-2.211,1.789-3.999,4-3.999c2.21,0,4,1.788,4,3.999
				v99.994C208.003,510.195,206.214,511.984,204.003,511.984z"/>
		</g>
		<g>
			<path fill="#3A3847" d="M172.005,511.984c-2.211,0-4-1.789-4-4V387.992c0-2.211,1.789-4,4-4s4,1.789,4,4v119.992
				C176.005,510.195,174.216,511.984,172.005,511.984z"/>
		</g>
		<g>
			<path fill="#3A3847" d="M140.007,511.984c-2.211,0-4-1.789-4-4v-138.71c0-2.211,1.789-4,4-4s4,1.789,4,4v138.71
				C144.007,510.195,142.218,511.984,140.007,511.984z"/>
		</g>
		<g>
			<path fill="#3A3847" d="M108.009,511.984c-2.21,0-4-1.789-4-4V383.992c0-2.211,1.789-4,4-4c2.211,0,4,1.789,4,4v123.992
				C112.009,510.195,110.22,511.984,108.009,511.984z"/>
		</g>
		<g>
			<path fill="#3A3847" d="M76.011,511.984c-2.21,0-4-1.789-4-4V397.913c0-2.211,1.789-4,4-4c2.211,0,4,1.789,4,4v110.071
				C80.011,510.195,78.222,511.984,76.011,511.984z"/>
		</g>
		<g>
			<path fill="#3A3847" d="M44.013,511.984c-2.211,0-4-1.789-4-4v-97.275c0-2.211,1.789-4,4-4c2.21,0,4,1.789,4,4v97.275
				C48.013,510.195,46.224,511.984,44.013,511.984z"/>
		</g>
		<g>
			<path fill="#3A3847" d="M395.991,192.004c-2.211,0-3.999-1.789-3.999-4v-7.999c0-2.211,1.788-4,3.999-4c2.212,0,4,1.789,4,4
				v7.999C399.991,190.215,398.203,192.004,395.991,192.004z"/>
		</g>
		<g>
			<path fill="#3A3847" d="M116.009,192.004c-2.211,0-4-1.789-4-4v-7.999c0-2.211,1.789-4,4-4c2.21,0,4,1.789,4,4v7.999
				C120.008,190.215,118.219,192.004,116.009,192.004z"/>
		</g>
	</g>
</g>
</svg>
