<?xml version="1.0" encoding="utf-8"?>
<!-- Generator: Adobe Illustrator 16.0.0, SVG Export Plug-In . SVG Version: 6.00 Build 0)  -->
<!DOCTYPE svg PUBLIC "-//W3C//DTD SVG 1.1//EN" "http://www.w3.org/Graphics/SVG/1.1/DTD/svg11.dtd">
<svg version="1.1" id="Слой_1" xmlns="http://www.w3.org/2000/svg" xmlns:xlink="http://www.w3.org/1999/xlink" x="0px" y="0px"
	 width="512px" height="512px" viewBox="0 0 512 512" enable-background="new 0 0 512 512" xml:space="preserve">
<g id="_x31__hairstyle_x2C__style_x2C__shirt_x2C__man_x2C__people_x2C__manager_x2C__male_1_">
	<g>
		<polygon fill="#E6E9ED" points="267.999,383.422 256,378.492 244.001,383.422 244.001,508 267.999,508 		"/>
	</g>
	<g>
		<path fill="#5D9CEC" d="M499.985,508H267.999V383.422l-7.999-3.43l55.997,24.015l39.122-54.794l16.873,12.077
			c24.32,13.437,60.958,27.592,79.996,34.717c31.998,11.921,47.997,23.999,47.997,55.996C499.985,484.002,499.985,508,499.985,508z"
			/>
	</g>
	<g>
		<path fill="#5D9CEC" d="M244.001,383.422V508H12.015c0,0,0-23.998,0-55.997c0-31.997,15.999-44.075,47.997-55.996
			c18.959-7.125,55.676-21.28,79.995-34.717l16.877-12.077l39.119,54.794L252,379.992L244.001,383.422z"/>
	</g>
	<g opacity="0.4">
		<g>
			<path fill="#FFFFFF" d="M28.014,460.003c0-31.998,16-44.076,47.997-55.996c18.96-7.125,55.676-21.28,79.995-34.717l10.07-7.203
				l-9.191-12.874l-16.877,12.077c-24.319,13.437-61.036,27.592-79.995,34.717c-31.999,11.921-47.997,23.999-47.997,55.996
				c0,31.999,0,55.997,0,55.997h15.999C28.014,498.392,28.014,480.939,28.014,460.003z"/>
		</g>
	</g>
	<g>
		<polygon fill="#E6E9ED" points="341.447,319.074 256,363.993 170.548,319.074 156.006,347.994 196.004,403.991 256,378.492 
			315.997,403.991 355.993,347.994 		"/>
	</g>
	<g>
		<polygon fill="#E6E9ED" points="341.447,319.074 256,363.993 170.548,319.074 156.006,347.994 196.004,403.991 256,378.492 
			315.997,403.991 355.993,347.994 		"/>
	</g>
	<g opacity="0.2">
		<g>
			<polygon points="158.374,351.291 156.006,355.993 196.004,411.99 244.001,391.593 244.001,383.422 196.004,404.007 			"/>
		</g>
		<g>
			<polygon points="244.001,383.422 244.001,383.422 252,379.992 			"/>
		</g>
	</g>
	<g opacity="0.2">
		<g>
			<polygon points="260,379.992 267.999,383.422 267.999,383.422 			"/>
		</g>
		<g>
			<polygon points="315.997,411.99 355.993,355.993 353.627,351.291 315.997,404.007 267.999,383.422 267.999,391.593 			"/>
		</g>
	</g>
	<g opacity="0.2">
		<polygon points="244.001,383.422 244.001,391.593 256,386.492 267.999,391.593 267.999,383.422 256,378.492 		"/>
	</g>
	<g opacity="0.2">
		<path d="M167.912,324.323c27.999,29.382,62.031,47.685,88.088,47.685c26.061,0,60.09-18.303,88.088-47.685l-2.641-5.249
			L256,363.993l-85.452-44.919L167.912,324.323z"/>
	</g>
	<g>
		<g>
			<path fill="#FFFFFF" d="M178.649,334.792c-3.656-3.313-7.242-6.805-10.738-10.469l-11.906,23.671l39.998,55.997l12.272-5.219
				l-36.271-50.778L178.649,334.792z"/>
		</g>
	</g>
	<g opacity="0.2">
		<g>
			<path d="M344.088,324.323c-3.5,3.664-7.077,7.156-10.733,10.469l6.641,13.202l-36.271,50.778l12.273,5.219l39.996-55.997
				L344.088,324.323z"/>
		</g>
	</g>
	<g>
		<path fill="#965353" d="M329.839,65.066c0,0,85.917-11.917,66.152,114.954l-35.123-57.438c0,0-55.668,22.96-105.989,22.96
			c-50.396,0-105.431-22.96-105.431-22.96l-33.439,57.438C96.088-32.365,344.15,6.191,352.869,7.632
			C315.277,23.069,329.839,65.066,329.839,65.066z"/>
	</g>
	<g opacity="0.3">
		<g>
			<path d="M329.839,65.066c0,0,59.567-10.479,52.653,92.881l13.499,22.073C415.756,53.149,329.839,65.066,329.839,65.066z"/>
		</g>
	</g>
	<g opacity="0.3">
		<g>
			<path fill="#FFFFFF" d="M310.277,4.121c-72.28-1.668-209.271,15.933-194.269,175.899l15.042-25.838
				C132.476,28.308,240.196,5.531,310.277,4.121z"/>
		</g>
	</g>
	<g>
		<path fill="#EAC6BB" d="M395.991,180.021v15.999c0,91.596-86.714,167.989-139.991,167.989
			c-53.278,0-139.991-76.394-139.991-167.989v-15.999l33.439-57.438c0,0,55.036,22.96,105.431,22.96
			c50.321,0,105.989-22.96,105.989-22.96L395.991,180.021z"/>
	</g>
	<g opacity="0.5">
		<g>
			<path fill="#FFFFFF" d="M132.007,196.02v-15.999l30.581-52.524c-8.184-2.858-13.14-4.914-13.14-4.914l-33.439,57.438v15.999
				c0,91.596,86.713,167.989,139.991,167.989c2.586,0,5.27-0.234,7.999-0.586C210.487,356.51,132.007,283.17,132.007,196.02z"/>
		</g>
	</g>
	<g opacity="0.2">
		<g>
			<path d="M379.992,196.02v-15.999l-30.576-52.524c8.179-2.858,13.14-4.914,13.14-4.914l33.436,57.438v15.999
				c0,91.596-86.714,167.989-139.991,167.989c-2.586,0-5.269-0.234-8-0.586C301.513,356.51,379.992,283.17,379.992,196.02z"/>
		</g>
	</g>
	<g opacity="0.3">
		<rect x="331.995" y="475.986" fill="#FFFFFF" width="79.995" height="32.014"/>
	</g>
	<g>
		<polygon fill="#CCD1D9" points="379.992,443.988 355.993,467.986 355.993,475.986 403.991,475.986 403.991,467.986 		"/>
	</g>
	<g>
		<polygon fill="#E6E9ED" points="363.993,443.988 339.995,467.986 339.995,475.986 387.992,475.986 387.992,467.986 		"/>
	</g>
	<g opacity="0.2">
		<polygon points="363.985,451.987 379.992,467.986 387.992,467.986 368.008,448.003 		"/>
	</g>
	<g>
		<polygon fill="#FFFFFF" points="367.993,447.988 363.993,443.988 339.995,467.986 347.994,467.986 		"/>
	</g>
	<g opacity="0.3">
		<rect x="331.995" y="475.986" fill="#FFFFFF" width="8" height="32.014"/>
	</g>
	<g opacity="0.3">
		<rect x="403.991" y="475.986" width="7.999" height="32.014"/>
	</g>
	<g>
		<polygon fill="#FFFFFF" points="252,388.194 244.001,391.593 244.001,507.984 252,507.984 		"/>
	</g>
	<g opacity="0.2">
		<polygon points="260,388.194 267.999,391.593 267.999,507.984 260,507.984 		"/>
	</g>
	<g opacity="0.2">
		<rect x="339.995" y="467.986" width="63.996" height="8"/>
	</g>
	<g opacity="0.3">
		<g>
			<path d="M483.986,460.003c0-31.998-15.999-44.076-47.998-55.996c-18.959-7.125-55.676-21.28-79.995-34.717l-10.069-7.203
				l9.195-12.874l16.873,12.077c24.32,13.437,61.035,27.592,79.996,34.717c31.998,11.921,47.997,23.999,47.997,55.996
				c0,31.999,0,55.997,0,55.997h-15.999C483.986,498.392,483.986,480.939,483.986,460.003z"/>
		</g>
	</g>
	<g id="_x31__hairstyle_x2C__style_x2C__shirt_x2C__man_x2C__people_x2C__manager_x2C__male">
		<g>
			<path fill="#3A3847" d="M499.985,511.984H12.015c-2.211,0-4-1.789-4-4v-55.997c0-34.334,17.784-47.48,50.598-59.745
				c34.549-12.905,62.024-24.836,79.453-34.499c1.945-1.086,4.367-0.382,5.438,1.548c1.074,1.937,0.375,4.374-1.555,5.436
				c-17.772,9.867-45.622,21.969-80.538,35.015c-30.756,11.483-45.396,22.232-45.396,52.246v51.997h479.971v-51.997
				c0-30.014-14.64-40.763-45.396-52.246c-35.514-13.296-62.613-25.069-80.542-35.006c-1.931-1.07-2.633-3.508-1.563-5.438
				c1.07-1.937,3.507-2.632,5.438-1.562c17.585,9.749,44.325,21.365,79.471,34.506c32.811,12.265,50.591,25.411,50.591,59.745
				v55.997C503.984,510.195,502.196,511.984,499.985,511.984z"/>
		</g>
		<g>
			<path fill="#3A3847" d="M256,367.993c-55.547,0-143.991-78.714-143.991-171.989c0-2.211,1.789-4,4-4c2.21,0,4,1.789,4,4
				c0,88.939,83.53,163.989,135.992,163.989c52.466,0,135.992-75.05,135.992-163.989c0-2.211,1.788-4,3.999-4c2.212,0,4,1.789,4,4
				C399.991,289.279,311.543,367.993,256,367.993z"/>
		</g>
		<g>
			<path fill="#3A3847" d="M256.238,399.991c-2.207,0-4.039-1.789-4.039-4s1.75-3.999,3.961-3.999h0.078
				c2.211,0,3.999,1.788,3.999,3.999S258.449,399.991,256.238,399.991z"/>
		</g>
		<g>
			<path fill="#3A3847" d="M256.238,431.989c-2.207,0-4.039-1.789-4.039-4s1.75-4,3.961-4h0.078c2.211,0,3.999,1.789,3.999,4
				S258.449,431.989,256.238,431.989z"/>
		</g>
		<g>
			<path fill="#3A3847" d="M256.238,463.986c-2.207,0-4.039-1.789-4.039-4c0-2.21,1.75-3.999,3.961-3.999h0.078
				c2.211,0,3.999,1.789,3.999,3.999C260.237,462.197,258.449,463.986,256.238,463.986z"/>
		</g>
		<g>
			<path fill="#3A3847" d="M256.238,495.985c-2.207,0-4.039-1.789-4.039-4s1.75-4,3.961-4h0.078c2.211,0,3.999,1.789,3.999,4
				S258.449,495.985,256.238,495.985z"/>
		</g>
		<g>
			<g>
				<path fill="#3A3847" d="M355.993,351.994c-1.468,0-2.874-0.813-3.577-2.211l-7.999-15.999c-0.984-1.977-0.188-4.383,1.788-5.367
					c1.977-0.976,4.383-0.188,5.367,1.789l8,15.999c0.983,1.977,0.187,4.383-1.789,5.367
					C357.213,351.853,356.603,351.994,355.993,351.994z"/>
			</g>
			<g>
				<path fill="#3A3847" d="M315.997,407.99c-0.813,0-1.626-0.242-2.329-0.75c-1.796-1.281-2.21-3.781-0.921-5.578l39.997-55.995
					c1.281-1.781,3.78-2.204,5.578-0.923c1.796,1.282,2.211,3.781,0.921,5.578l-39.997,55.996
					C318.465,407.412,317.246,407.99,315.997,407.99z"/>
			</g>
			<g>
				<path fill="#3A3847" d="M315.997,407.99c-0.532,0-1.063-0.102-1.579-0.328l-55.992-23.998c-2.031-0.867-2.973-3.219-2.102-5.25
					s3.227-2.968,5.249-2.094l56.001,23.999c2.031,0.867,2.969,3.218,2.094,5.249C319.027,407.084,317.543,407.99,315.997,407.99z"
					/>
			</g>
		</g>
		<g>
			<g>
				<path fill="#3A3847" d="M156.002,351.994c-0.602,0-1.211-0.142-1.785-0.422c-1.976-0.984-2.777-3.391-1.789-5.367l8-15.999
					c0.992-1.977,3.387-2.765,5.367-1.789c1.977,0.984,2.777,3.391,1.789,5.367l-8,15.999
					C158.881,351.182,157.471,351.994,156.002,351.994z"/>
			</g>
			<g>
				<path fill="#3A3847" d="M196.007,407.99c-1.25,0-2.476-0.578-3.257-1.672l-39.998-55.996c-1.285-1.797-0.867-4.296,0.93-5.578
					c1.801-1.288,4.292-0.875,5.578,0.923l39.998,55.995c1.285,1.797,0.867,4.297-0.93,5.578
					C197.625,407.748,196.812,407.99,196.007,407.99z"/>
			</g>
			<g>
				<path fill="#3A3847" d="M196.004,407.99c-1.551,0-3.028-0.906-3.676-2.422c-0.871-2.031,0.07-4.382,2.102-5.249l55.997-23.999
					c2.007-0.891,4.378,0.063,5.25,2.094c0.871,2.031-0.07,4.383-2.102,5.25l-55.997,23.998
					C197.066,407.889,196.531,407.99,196.004,407.99z"/>
			</g>
		</g>
		<g>
			<path fill="#3A3847" d="M116.009,184.005c-0.285,0-0.574-0.032-0.863-0.094c-1.695-0.375-2.957-1.801-3.121-3.535
				c-5.019-53.595,6.464-96.17,34.131-126.547C186.661,9.352,253.094,0.016,301.7,0.016c28.389,0,49.474,3.277,51.786,3.652
				c1.766,0.285,3.132,1.711,3.336,3.492c0.202,1.777-0.797,3.477-2.453,4.155c-28.607,11.773-23.967,40.248-21.576,49.528
				c0.804-0.035,1.733-0.063,2.78-0.063c11.366,0,32.803,2.77,48.677,21.312c17.428,20.358,22.709,53.509,15.694,98.529
				c-0.258,1.655-1.523,2.976-3.171,3.305c-1.657,0.351-3.313-0.41-4.195-1.836l-33.381-54.583
				c-12.656,4.902-60.044,22.022-104.338,22.022c-44.161,0-90.967-17.026-103.658-21.983l-31.736,54.47
				C118.739,183.267,117.411,184.005,116.009,184.005z M360.845,118.548c1.352,0,2.664,0.691,3.414,1.914l29.279,47.868
				c4.227-36.943-0.93-64.173-15.358-81.034c-13.796-16.108-32.615-18.515-42.606-18.515c-3.101,0-5.03,0.246-5.155,0.266
				c-1.875,0.238-3.704-0.855-4.328-2.652c-0.142-0.406-12.343-36.76,14.218-56.359c-9.069-0.966-22.64-2.02-38.607-2.02
				c-46.993,0-111.095,8.882-149.632,51.199c-23.861,26.197-34.927,62.333-32.966,107.533l26.924-46.212
				c1.015-1.738,3.145-2.449,5-1.68c0.542,0.226,54.883,22.674,103.833,22.674c48.966,0,103.908-22.452,104.463-22.678
				C359.813,118.646,360.338,118.548,360.845,118.548z"/>
		</g>
		<g>
			<path fill="#3A3847" d="M267.999,511.984c-2.211,0-4-1.789-4-4V395.991c0-2.211,1.789-3.999,4-3.999s4,1.788,4,3.999v111.993
				C271.999,510.195,270.21,511.984,267.999,511.984z"/>
		</g>
		<g>
			<path fill="#3A3847" d="M244.001,511.984c-2.211,0-4-1.789-4-4V395.991c0-2.211,1.789-3.999,4-3.999c2.21,0,4,1.788,4,3.999
				v111.993C248,510.195,246.211,511.984,244.001,511.984z"/>
		</g>
		<g>
			<path fill="#3A3847" d="M411.99,479.986h-79.995c-2.211,0-4-1.789-4-4s1.789-4,4-4h79.995c2.211,0,4,1.789,4,4
				S414.201,479.986,411.99,479.986z"/>
		</g>
		<g>
			<path fill="#3A3847" d="M331.995,495.985c-2.211,0-4-1.789-4-4v-15.999c0-2.211,1.789-4,4-4s4,1.789,4,4v15.999
				C335.995,494.196,334.206,495.985,331.995,495.985z"/>
		</g>
		<g>
			<path fill="#3A3847" d="M411.99,495.985c-2.211,0-4-1.789-4-4v-15.999c0-2.211,1.789-4,4-4s4,1.789,4,4v15.999
				C415.99,494.196,414.201,495.985,411.99,495.985z"/>
		</g>
		<g>
			<path fill="#3A3847" d="M339.995,471.986c-1.023,0-2.048-0.39-2.828-1.172c-1.563-1.563-1.563-4.093,0-5.656l23.998-23.998
				c1.563-1.563,4.094-1.563,5.656,0s1.563,4.094,0,5.656l-23.999,23.998C342.042,471.597,341.018,471.986,339.995,471.986z"/>
		</g>
		<g>
			<path fill="#3A3847" d="M387.992,471.986c-1.024,0-2.047-0.39-2.829-1.172l-23.998-23.998c-1.563-1.563-1.563-4.094,0-5.656
				s4.094-1.563,5.656,0l23.999,23.998c1.563,1.563,1.563,4.094,0,5.656C390.038,471.597,389.015,471.986,387.992,471.986z"/>
		</g>
		<g>
			<path fill="#3A3847" d="M403.991,471.986c-1.023,0-2.047-0.39-2.828-1.172l-23.999-23.998c-1.562-1.563-1.562-4.094,0-5.656
				c1.563-1.563,4.094-1.563,5.656,0l23.998,23.998c1.563,1.563,1.563,4.094,0,5.656
				C406.038,471.597,405.015,471.986,403.991,471.986z"/>
		</g>
	</g>
</g>
</svg>
