<?xml version="1.0" encoding="utf-8"?>
<!-- Generator: Adobe Illustrator 16.0.0, SVG Export Plug-In . SVG Version: 6.00 Build 0)  -->
<!DOCTYPE svg PUBLIC "-//W3C//DTD SVG 1.1//EN" "http://www.w3.org/Graphics/SVG/1.1/DTD/svg11.dtd">
<svg version="1.1" id="Слой_1" xmlns="http://www.w3.org/2000/svg" xmlns:xlink="http://www.w3.org/1999/xlink" x="0px" y="0px"
	 width="512px" height="512px" viewBox="0 0 512 512" enable-background="new 0 0 512 512" xml:space="preserve">
<g id="_x36__hairstyle_x2C__style_x2C__barbershop_x2C__man_x2C__people_x2C__male_x2C__glasses">
	<g>
		<path fill="#656D78" d="M256,427.989c83.12,0,109.993-59.513,110.79-61.763c4,2.407,8.483,4.805,13.202,7.281
			c0,0-23.999,70.48-123.992,70.48c-99.994,0-123.993-70.48-123.993-70.48c4.719-2.477,9.199-4.874,13.199-7.281
			C146.006,368.556,171.767,427.989,256,427.989z"/>
	</g>
	<g opacity="0.2">
		<g>
			<path d="M379.992,373.508c-4.719-2.477-9.202-4.874-13.202-7.281c-0.688,1.938-6.507,11.938-7.586,13.234
				c2.352,1.359,12.102,5.391,14.476,6.68C378.164,378.688,379.992,373.508,379.992,373.508z"/>
		</g>
		<g>
			<path d="M359.204,379.461c-0.039-0.023-0.109-0.055-0.141-0.078C358.954,379.695,359.024,379.664,359.204,379.461z"/>
		</g>
	</g>
	<g opacity="0.2">
		<g>
			<path fill="#FFFFFF" d="M132.007,373.508c4.719-2.477,9.199-4.874,13.199-7.281c0.691,1.938,6.511,11.938,7.589,13.234
				c-2.355,1.359-12.104,5.391-14.476,6.68C133.839,378.688,132.007,373.508,132.007,373.508z"/>
		</g>
		<g>
			<path fill="#FFFFFF" d="M152.795,379.461c0.039-0.023,0.109-0.055,0.141-0.078C153.045,379.695,152.971,379.664,152.795,379.461z
				"/>
		</g>
	</g>
	<g>
		<path fill="#48CFAD" d="M132.007,373.508c0,0,23.999,70.48,123.993,70.48c99.993,0,123.992-70.48,123.992-70.48
			c23.843,12.085,54.957,24.163,71.996,30.483c31.998,11.921,47.997,23.998,47.997,55.995c0,31.999,0,47.998,0,47.998H12.015
			c0,0,0-15.999,0-47.998c0-31.997,15.999-44.074,47.997-55.995C77.05,397.671,108.169,385.593,132.007,373.508z"/>
	</g>
	<g opacity="0.4">
		<g>
			<path fill="#FFFFFF" d="M28.014,467.986c0-31.998,16-44.074,47.997-55.996c14.82-5.5,40.287-15.351,62.356-25.779
				c-4.516-7.484-6.359-12.703-6.359-12.703c-23.838,12.085-54.958,24.163-71.995,30.483
				c-31.999,11.921-47.997,23.998-47.997,55.995c0,31.999,0,47.998,0,47.998h15.999C28.014,500.273,28.014,487.032,28.014,467.986z"
				/>
		</g>
	</g>
	<g opacity="0.3">
		<g>
			<path d="M483.986,467.986c0-31.998-15.999-44.074-47.998-55.996c-14.818-5.5-40.285-15.351-62.355-25.779
				c4.516-7.484,6.359-12.703,6.359-12.703c23.843,12.085,54.957,24.163,71.996,30.483c31.998,11.921,47.997,23.998,47.997,55.995
				c0,31.999,0,47.998,0,47.998h-15.999C483.986,500.273,483.986,487.032,483.986,467.986z"/>
		</g>
	</g>
	<g>
		<path fill="#EAC6BB" d="M256,371.992c27.279,0,63.277-22.076,91.994-55.996v31.998c0,5.125,7.516,11.515,18.796,18.232
			c-0.797,2.25-27.67,61.763-110.79,61.763c-84.233,0-109.994-59.434-110.794-61.763c11.28-6.718,18.8-13.107,18.8-18.232v-31.998
			C192.723,349.916,228.721,371.992,256,371.992z"/>
	</g>
	<g>
		<path fill="#EAC6BB" d="M275.998,196.242v7.761c0,4.398,3.602,8,8,8h55.997c4.397,0,7.999-3.602,7.999-8v-15.999
			c0-4.397-3.602-7.999-7.999-7.999h-55.997c-4.398,0-8,3.602-8,7.999V196.242z M236.001,196.242v-8.238
			c0-4.397-3.601-7.999-8-7.999h-55.997c-4.398,0-7.999,3.602-7.999,7.999v15.999c0,4.398,3.601,8,7.999,8h55.997
			c4.398,0,8-3.602,8-8V196.242z M395.351,180.005l0.641,15.999c0,44.716-20.718,87.674-47.997,119.992
			c-28.717,33.92-64.715,55.996-91.994,55.996s-63.277-22.076-91.994-55.996c-27.28-32.318-47.997-75.276-47.997-119.992v-14.371
			c45.024-23.658,147.374-70.843,239.984-65.386L395.351,180.005z"/>
	</g>
	<g opacity="0.2">
		<g>
			<path d="M395.351,180.005l-15.999-26.183l0.641,42.182c0,44.716-20.718,87.674-47.997,119.992
				c-25.998,30.701-57.934,51.638-83.995,55.349c2.73,0.382,5.414,0.647,8,0.647c27.279,0,63.277-22.076,91.994-55.996
				c27.279-32.318,47.997-75.276,47.997-119.992L395.351,180.005z"/>
		</g>
	</g>
	<g>
		<g opacity="0.5">
			<path fill="#FFFFFF" d="M180.005,315.996c-27.28-32.318-47.998-75.276-47.998-119.992v-22.511l-15.999,8.14v14.371
				c0,44.716,20.717,87.674,47.997,119.992c28.717,33.92,64.715,55.996,91.994,55.996c2.586,0,5.27-0.266,7.999-0.647
				C237.938,367.634,205.999,346.697,180.005,315.996z"/>
		</g>
	</g>
	<g opacity="0.2">
		<path d="M256,371.992c-27.279,0-63.277-22.076-91.994-55.996v8c28.717,33.92,64.715,55.996,91.994,55.996
			s63.277-22.076,91.994-55.996v-8C319.277,349.916,283.279,371.992,256,371.992z"/>
	</g>
	<g>
		<path fill="#656D78" d="M148.006,28.014c-0.398,0.16,267.109-113.352,247.344,151.991l-39.357-63.758
			C235.2,109.13,96.249,192.402,92.088,194.883c-0.079,0.082-0.079,0.082-0.079,0.082c0-119.992,78.316-153.593,78.316-153.593
			L148.006,28.014z"/>
	</g>
	<g opacity="0.2">
		<g>
			<path d="M255.641,4.176c62.762,2.328,125.703,33.892,124.734,151.568l14.976,24.261C406.428,31.311,327.293,1.598,255.641,4.176z
				"/>
		</g>
	</g>
	<g opacity="0.3">
		<g>
			<path fill="#FFFFFF" d="M186.324,41.372l-22.318-13.358c-0.176,0.07,51.426-21.818,107.634-23.838
				c-62.008-2.305-123.824,23.916-123.633,23.838l22.319,13.358c0,0-78.316,33.601-78.316,153.593c0,0,0,0,0.079-0.082
				c0.796-0.473,6.538-3.91,16.108-9.09C112.067,73.277,186.324,41.372,186.324,41.372z"/>
		</g>
	</g>
	<g>
		<g>
			<path fill="#5D9CEC" d="M236.001,204.003c0,4.398-3.601,8-8,8h-55.997c-4.398,0-7.999-3.602-7.999-8v-15.999
				c0-4.397,3.601-7.999,7.999-7.999h55.997c4.398,0,8,3.602,8,7.999v8.238V204.003z"/>
		</g>
		<g opacity="0.3">
			<polygon fill="#FFFFFF" points="183.153,212.003 199.718,212.003 208.292,180.005 191.73,180.005 			"/>
		</g>
		<g opacity="0.3">
			<polygon fill="#FFFFFF" points="204.003,212.003 208.284,212.003 216.858,180.005 212.577,180.005 			"/>
		</g>
		<g>
			<path fill="#5D9CEC" d="M347.994,204.003c0,4.398-3.602,8-7.999,8h-55.997c-4.398,0-8-3.602-8-8v-15.999
				c0-4.397,3.602-7.999,8-7.999h55.997c4.397,0,7.999,3.602,7.999,7.999v8.238V204.003z"/>
		</g>
		<g opacity="0.3">
			<polygon fill="#FFFFFF" points="295.146,212.003 311.716,212.003 320.285,180.005 303.724,180.005 			"/>
		</g>
		<g opacity="0.3">
			<polygon fill="#FFFFFF" points="315.997,212.003 320.277,212.003 328.854,180.005 324.573,180.005 			"/>
		</g>
	</g>
	<g opacity="0.5">
		<g>
			<path fill="#FFFFFF" d="M157.295,377.398c10.602-6.906,22.71-16.89,22.71-21.405v-15.03
				c-5.504-5.249-10.871-10.905-15.999-16.967v23.998c0,5.125-16.737,16.976-15.741,16.343
				C150.198,367.743,153.19,372.337,157.295,377.398z"/>
		</g>
	</g>
	<g opacity="0.2">
		<path d="M363.658,364.29c-0.032,0.063-0.079,0.125-0.118,0.188c-1.882-1.438-15.437-11.484-15.437-16.108v-24.373
			c-5.125,6.062-10.499,11.749-15.999,16.999v15.373c0,4.454,11.758,14.194,22.248,21.093
			c-14.998,18.124-45.06,42.529-98.353,42.529c-69.176,0-98.869-40.029-107.735-55.653c-0.996,0.633-1.993,1.266-3.059,1.89
			c0.8,2.329,26.561,61.763,110.794,61.763c83.12,0,109.993-59.513,110.79-61.763C365.696,365.579,364.681,364.938,363.658,364.29z"
			/>
	</g>
	<g>
		<g>
			<path fill="#3A3847" d="M499.985,511.984H12.015c-2.211,0-4-1.789-4-4v-47.998c0-34.372,17.784-47.512,50.602-59.745
				c16.44-6.094,47.595-18.14,71.582-30.295c4.593-2.422,9.007-4.781,12.948-7.141c16.046-9.563,16.858-14.015,16.858-14.812
				c0-2.211,1.789-4,4-4c2.21,0,4,1.789,4,4c0,6.438-6.402,13.124-20.752,21.671c-4.047,2.437-8.594,4.874-13.386,7.39
				c-24.393,12.358-55.868,24.53-72.464,30.686c-30.752,11.452-45.388,22.202-45.388,52.246v43.998h479.971v-43.998
				c0-30.044-14.64-40.794-45.388-52.246c-16.593-6.155-48.075-18.327-72.418-30.662c-4.843-2.539-9.39-4.977-13.444-7.413
				c-14.335-8.547-20.741-15.233-20.741-21.671c0-2.211,1.789-4,4-4s4,1.789,4,4c0,0.797,0.813,5.249,16.843,14.796
				c3.952,2.375,8.374,4.734,13.015,7.187c23.937,12.125,55.091,24.171,71.527,30.265c32.825,12.233,50.605,25.373,50.605,59.745
				v47.998C503.984,510.195,502.196,511.984,499.985,511.984z"/>
		</g>
		<g>
			<path fill="#3A3847" d="M256,375.992c-28.213,0-65.52-22.53-95.049-57.41c-18.28-21.663-48.942-66.379-48.942-122.578
				c0-2.211,1.789-4,4-4c2.21,0,4,1.789,4,4c0,39.188,17.151,81.987,47.052,117.414c28.069,33.154,62.981,54.575,88.94,54.575
				s60.871-21.421,88.939-54.583c29.897-35.419,47.053-78.218,47.053-117.406c0-2.211,1.788-4,3.999-4c2.212,0,4,1.789,4,4
				c0,56.199-30.663,100.915-48.942,122.57C321.52,353.462,284.218,375.992,256,375.992z"/>
		</g>
		<g>
			<path fill="#3A3847" d="M164.006,351.994c-2.211,0-4-1.789-4-4v-31.998c0-2.21,1.789-4,4-4c2.21,0,4,1.79,4,4v31.998
				C168.005,350.205,166.216,351.994,164.006,351.994z"/>
		</g>
		<g>
			<path fill="#3A3847" d="M347.994,351.994c-2.211,0-4-1.789-4-4v-31.998c0-2.21,1.789-4,4-4s4,1.79,4,4v31.998
				C351.994,350.205,350.205,351.994,347.994,351.994z"/>
		</g>
		<g>
			<path fill="#3A3847" d="M92.014,198.913c-0.492,0-0.984-0.09-1.449-0.276c-1.52-0.605-2.554-2.035-2.554-3.672
				c0-100.592,55.031-142.288,74.229-153.768l-16.289-9.75c-1.851-1.109-2.488-3.488-1.441-5.375
				c1.621-2.925,61.164-26.057,119.313-26.057c43.564,0,77.39,12.64,100.529,37.568c28.021,30.182,39.795,78.198,34.982,142.718
				c-0.125,1.73-1.352,3.18-3.031,3.59c-1.703,0.417-3.452-0.313-4.359-1.785l-38.255-61.98
				c-115.298-5.813-245.333,69.714-259.457,78.136C93.568,198.688,92.795,198.913,92.014,198.913z M157.08,28.783l15.3,9.156
				c1.285,0.772,2.031,2.198,1.934,3.694s-1.027,2.816-2.406,3.41c-0.742,0.324-72.839,32.814-75.804,142.874
				c30.627-17.468,151.955-81.976,260.124-75.663c1.297,0.074,2.485,0.781,3.173,1.891l32.692,52.97
				c2.306-55.853-8.976-97.561-33.6-124.091c-21.561-23.229-53.418-35.009-94.67-35.009C218.448,8.016,174.263,22.456,157.08,28.783
				z"/>
		</g>
		<g>
			<path fill="#3A3847" d="M256,447.988c-101.682,0-127.531-72.457-127.777-73.183c-0.711-2.094,0.402-4.359,2.488-5.079
				c2.082-0.695,4.362,0.407,5.082,2.485c0.953,2.773,24.456,67.776,120.208,67.776c96.025,0,119.978-67.09,120.211-67.762
				c0.703-2.093,2.984-3.219,5.07-2.5c2.086,0.711,3.211,2.985,2.492,5.079C383.531,375.531,357.682,447.988,256,447.988z"/>
		</g>
		<g>
			<path fill="#3A3847" d="M256,431.989c-88.362,0-114.352-63.809-114.575-64.449c-0.719-2.094,0.387-4.367,2.477-5.094
				s4.363,0.391,5.085,2.484c0.211,0.563,24.147,59.059,107.013,59.059c81.886,0,106.806-58.543,107.04-59.137
				c0.782-2.047,3.094-3.094,5.141-2.344c2.047,0.766,3.117,3.008,2.375,5.063C370.328,368.22,343.619,431.989,256,431.989z"/>
		</g>
		<g>
			<path fill="#3A3847" d="M228.001,216.002h-55.997c-6.617,0-11.999-5.382-11.999-11.999v-15.999
				c0-6.616,5.382-11.999,11.999-11.999h55.997c6.617,0,12,5.383,12,11.999v15.999C240.001,210.62,234.619,216.002,228.001,216.002z
				 M172.005,184.005c-2.207,0-4,1.793-4,3.999v15.999c0,2.207,1.793,4,4,4h55.997c2.207,0,4-1.793,4-4v-15.999
				c0-2.206-1.793-3.999-4-3.999H172.005z"/>
		</g>
		<g>
			<path fill="#3A3847" d="M339.995,216.002h-55.997c-6.616,0-11.999-5.382-11.999-11.999v-15.999
				c0-6.616,5.383-11.999,11.999-11.999h55.997c6.616,0,11.999,5.383,11.999,11.999v15.999
				C351.994,210.62,346.611,216.002,339.995,216.002z M283.998,184.005c-2.202,0-4,1.793-4,3.999v15.999c0,2.207,1.798,4,4,4h55.997
				c2.202,0,3.999-1.793,3.999-4v-15.999c0-2.206-1.797-3.999-3.999-3.999H283.998z"/>
		</g>
		<g>
			<path fill="#3A3847" d="M275.998,200.242h-39.997c-2.21,0-4-1.789-4-4s1.789-4,4-4h39.997c2.211,0,4,1.789,4,4
				S278.209,200.242,275.998,200.242z"/>
		</g>
	</g>
</g>
</svg>
