<?xml version="1.0" encoding="utf-8"?>
<!-- Generator: Adobe Illustrator 16.0.0, SVG Export Plug-In . SVG Version: 6.00 Build 0)  -->
<!DOCTYPE svg PUBLIC "-//W3C//DTD SVG 1.1//EN" "http://www.w3.org/Graphics/SVG/1.1/DTD/svg11.dtd">
<svg version="1.1" id="Слой_1" xmlns="http://www.w3.org/2000/svg" xmlns:xlink="http://www.w3.org/1999/xlink" x="0px" y="0px"
	 width="512px" height="512px" viewBox="0 0 512 512" enable-background="new 0 0 512 512" xml:space="preserve">
<g id="_x31_7_hairstyle_x2C__style_x2C__mohawk_x2C__man_x2C__skull_x2C__beard_x2C__rocker">
	<g>
		<path fill="#EAC6BB" d="M347.994,324.082c-17.201,20.24-37.036,36.317-55.996,45.919l-8.156-5.758l0.156-0.242h-55.997l0.16,0.242
			l-8.159,5.758c-18.96-9.602-38.799-25.679-55.997-45.919v-0.079c-27.358-32.317-47.997-75.275-47.997-119.992
			c0-69.839,36.396-121.516,87.995-142.147l13.397-6.593l10.601,68.746c0,0,16,8,27.999,8s27.998-8,27.998-8l10.601-68.746
			l13.398,6.593c51.598,20.631,87.994,72.308,87.994,142.147c0,44.716-20.639,87.674-47.997,119.992V324.082z"/>
	</g>
	<g opacity="0.5">
		<g>
			<path fill="#FFFFFF" d="M180.005,324.082v-0.079c-27.358-32.317-47.998-75.275-47.998-119.992
				c0-69.16,35.713-120.461,86.511-141.483l-1.117-7.257l-13.397,6.593c-51.599,20.631-87.995,72.308-87.995,142.147
				c0,44.716,20.639,87.674,47.997,119.992v0.079c17.198,20.24,37.037,36.317,55.997,45.919l7.089-5
				C210.925,355.236,194.523,341.175,180.005,324.082z"/>
		</g>
	</g>
	<g opacity="0.2">
		<g>
			<path d="M331.089,324.082v-0.079c27.358-32.317,47.998-75.275,47.998-119.992c0-69.16-35.718-120.461-86.511-141.483l1.108-7.257
				l13.406,6.593c51.591,20.631,87.994,72.308,87.994,142.147c0,44.716-20.639,87.674-47.997,119.992v0.079
				c-17.202,20.24-37.045,36.317-55.996,45.919l-7.094-5C300.169,355.236,316.567,341.175,331.089,324.082z"/>
		</g>
	</g>
	<g>
		<path fill="#E6E9ED" d="M387.992,477.752v6.241h-16h-15.999v-6.241c-4.874-4.398-7.999-10.641-7.999-17.757
			c0-13.28,10.719-23.999,23.998-23.999c13.281,0,23.999,10.719,23.999,23.999C395.991,467.111,392.866,473.354,387.992,477.752z"/>
	</g>
	<g>
		<path fill="#FFFFFF" d="M355.993,459.995c0-11.913,8.641-21.693,19.999-23.6c-1.313-0.219-2.625-0.399-4-0.399
			c-13.279,0-23.998,10.719-23.998,23.999c0,7.116,3.125,13.358,7.999,17.757v6.241h8v-6.241
			C359.118,473.354,355.993,467.111,355.993,459.995z"/>
	</g>
	<g opacity="0.2">
		<path d="M387.992,459.659c0-11.913-8.641-21.693-19.999-23.601c1.313-0.218,2.624-0.397,3.999-0.397
			c13.281,0,23.999,10.718,23.999,23.998c0,7.117-3.125,13.358-7.999,17.757v6.241h-8v-6.241
			C384.867,473.018,387.992,466.776,387.992,459.659z"/>
	</g>
	<g>
		<path fill="#656D78" d="M499.985,507.992H12.015c0,0,0-8,0-39.997c0-31.999,15.999-44.076,47.997-55.997
			c18.319-6.882,53.196-20.319,77.436-33.357L256,475.994l118.556-97.354c24.232,13.038,59.112,26.476,77.433,33.357
			c31.998,11.921,47.997,23.998,47.997,55.997C499.985,499.992,499.985,507.992,499.985,507.992z M355.993,483.993h15.999h16v-6.241
			c4.874-4.398,7.999-10.641,7.999-17.757c0-13.28-10.718-23.999-23.999-23.999c-13.279,0-23.998,10.719-23.998,23.999
			c0,7.116,3.125,13.358,7.999,17.757V483.993z"/>
	</g>
	<g>
		<path fill="#3A3847" d="M364.228,463.995c-2.203,0-4.03-1.789-4.03-4s1.749-4,3.952-4h0.078c2.219,0,4,1.789,4,4
			S366.446,463.995,364.228,463.995z"/>
	</g>
	<g>
		<path fill="#3A3847" d="M380.228,463.995c-2.204,0-4.031-1.789-4.031-4s1.749-4,3.952-4h0.079c2.218,0,3.999,1.789,3.999,4
			S382.445,463.995,380.228,463.995z"/>
	</g>
	<g>
		<g>
			<path fill="#3A3847" d="M136.253,152.014c-2.207,0-4.039-1.789-4.039-3.999c0-2.211,1.75-4,3.96-4h0.078c2.21,0,4,1.789,4,4
				C140.253,150.226,138.464,152.014,136.253,152.014z"/>
		</g>
		<g>
			<path fill="#3A3847" d="M160.252,144.015c-2.207,0-4.039-1.79-4.039-4c0-2.211,1.75-4,3.96-4h0.078c2.211,0,4,1.789,4,4
				C164.251,142.226,162.463,144.015,160.252,144.015z"/>
		</g>
		<g>
			<path fill="#3A3847" d="M144.253,144.015c-2.207,0-4.039-1.79-4.039-4c0-2.211,1.75-4,3.961-4h0.078c2.211,0,4,1.789,4,4
				C148.252,142.226,146.464,144.015,144.253,144.015z"/>
		</g>
		<g>
			<path fill="#3A3847" d="M168.251,136.015c-2.207,0-4.039-1.789-4.039-4c0-2.21,1.75-4,3.961-4h0.078c2.211,0,4,1.79,4,4
				C172.251,134.227,170.462,136.015,168.251,136.015z"/>
		</g>
		<g>
			<path fill="#3A3847" d="M152.252,136.015c-2.207,0-4.039-1.789-4.039-4c0-2.21,1.75-4,3.96-4h0.078c2.211,0,4,1.79,4,4
				C156.252,134.227,154.463,136.015,152.252,136.015z"/>
		</g>
		<g>
			<path fill="#3A3847" d="M136.253,136.015c-2.207,0-4.039-1.789-4.039-4c0-2.21,1.75-4,3.96-4h0.078c2.21,0,4,1.79,4,4
				C140.253,134.227,138.464,136.015,136.253,136.015z"/>
		</g>
		<g>
			<path fill="#3A3847" d="M160.252,128.016c-2.207,0-4.039-1.789-4.039-4s1.75-4,3.96-4h0.078c2.211,0,4,1.789,4,4
				S162.463,128.016,160.252,128.016z"/>
		</g>
		<g>
			<path fill="#3A3847" d="M144.253,128.016c-2.207,0-4.039-1.789-4.039-4s1.75-4,3.961-4h0.078c2.211,0,4,1.789,4,4
				S146.464,128.016,144.253,128.016z"/>
		</g>
		<g>
			<path fill="#3A3847" d="M376.242,152.014c-2.203,0-4.03-1.789-4.03-3.999c0-2.211,1.75-4,3.952-4h0.078c2.219,0,4,1.789,4,4
				C380.242,150.226,378.461,152.014,376.242,152.014z"/>
		</g>
		<g>
			<path fill="#3A3847" d="M352.244,144.015c-2.203,0-4.031-1.79-4.031-4c0-2.211,1.75-4,3.953-4h0.078c2.219,0,3.999,1.789,3.999,4
				C356.243,142.226,354.463,144.015,352.244,144.015z"/>
		</g>
		<g>
			<path fill="#3A3847" d="M368.243,144.015c-2.203,0-4.03-1.79-4.03-4c0-2.211,1.75-4,3.952-4h0.078c2.219,0,3.999,1.789,3.999,4
				C372.242,142.226,370.462,144.015,368.243,144.015z"/>
		</g>
		<g>
			<path fill="#3A3847" d="M344.244,136.015c-2.202,0-4.031-1.789-4.031-4c0-2.21,1.75-4,3.954-4h0.077c2.219,0,4,1.79,4,4
				C348.244,134.227,346.463,136.015,344.244,136.015z"/>
		</g>
		<g>
			<path fill="#3A3847" d="M360.243,136.015c-2.202,0-4.03-1.789-4.03-4c0-2.21,1.75-4,3.952-4h0.078c2.22,0,4,1.79,4,4
				C364.243,134.227,362.463,136.015,360.243,136.015z"/>
		</g>
		<g>
			<path fill="#3A3847" d="M376.242,136.015c-2.203,0-4.03-1.789-4.03-4c0-2.21,1.75-4,3.952-4h0.078c2.219,0,4,1.79,4,4
				C380.242,134.227,378.461,136.015,376.242,136.015z"/>
		</g>
		<g>
			<path fill="#3A3847" d="M352.244,128.016c-2.203,0-4.031-1.789-4.031-4s1.75-4,3.953-4h0.078c2.219,0,3.999,1.789,3.999,4
				S354.463,128.016,352.244,128.016z"/>
		</g>
		<g>
			<path fill="#3A3847" d="M368.243,128.016c-2.203,0-4.03-1.789-4.03-4s1.75-4,3.952-4h0.078c2.219,0,3.999,1.789,3.999,4
				S370.462,128.016,368.243,128.016z"/>
		</g>
		<g>
			<path fill="#3A3847" d="M184.25,104.018c-2.207,0-4.039-1.79-4.039-4c0-2.211,1.75-4,3.961-4h0.078c2.21,0,4,1.789,4,4
				C188.25,102.228,186.461,104.018,184.25,104.018z"/>
		</g>
		<g>
			<path fill="#3A3847" d="M176.251,112.017c-2.207,0-4.039-1.789-4.039-4c0-2.211,1.75-4,3.96-4h0.078c2.21,0,4,1.789,4,4
				C180.251,110.228,178.461,112.017,176.251,112.017z"/>
		</g>
		<g>
			<path fill="#3A3847" d="M192.25,112.017c-2.207,0-4.039-1.789-4.039-4c0-2.211,1.75-4,3.96-4h0.079c2.211,0,4,1.789,4,4
				C196.25,110.228,194.461,112.017,192.25,112.017z"/>
		</g>
		<g>
			<path fill="#3A3847" d="M208.249,112.017c-2.207,0-4.039-1.789-4.039-4c0-2.211,1.75-4,3.961-4h0.078c2.211,0,4,1.789,4,4
				C212.249,110.228,210.46,112.017,208.249,112.017z"/>
		</g>
		<g>
			<path fill="#3A3847" d="M224.248,112.017c-2.207,0-4.039-1.789-4.039-4c0-2.211,1.75-4,3.961-4h0.078c2.211,0,4,1.789,4,4
				C228.248,110.228,226.459,112.017,224.248,112.017z"/>
		</g>
		<g>
			<path fill="#3A3847" d="M224.248,128.016c-2.207,0-4.039-1.789-4.039-4s1.75-4,3.961-4h0.078c2.211,0,4,1.789,4,4
				S226.459,128.016,224.248,128.016z"/>
		</g>
		<g>
			<path fill="#3A3847" d="M208.249,128.016c-2.207,0-4.039-1.789-4.039-4s1.75-4,3.961-4h0.078c2.211,0,4,1.789,4,4
				S210.46,128.016,208.249,128.016z"/>
		</g>
		<g>
			<path fill="#3A3847" d="M288.248,128.016c-2.203,0-4.03-1.789-4.03-4s1.75-4,3.952-4h0.078c2.219,0,4,1.789,4,4
				S290.467,128.016,288.248,128.016z"/>
		</g>
		<g>
			<path fill="#3A3847" d="M304.247,128.016c-2.203,0-4.031-1.789-4.031-4s1.75-4,3.953-4h0.078c2.219,0,4,1.789,4,4
				S306.466,128.016,304.247,128.016z"/>
		</g>
		<g>
			<path fill="#3A3847" d="M288.232,112.017c-2.203,0-4.031-1.789-4.031-4c0-2.211,1.75-4,3.953-4h0.078c2.219,0,4,1.789,4,4
				C292.232,110.228,290.451,112.017,288.232,112.017z"/>
		</g>
		<g>
			<path fill="#3A3847" d="M304.231,112.017c-2.203,0-4.031-1.789-4.031-4c0-2.211,1.75-4,3.953-4h0.078c2.219,0,4,1.789,4,4
				C308.231,110.228,306.45,112.017,304.231,112.017z"/>
		</g>
		<g>
			<path fill="#3A3847" d="M320.23,112.017c-2.203,0-4.031-1.789-4.031-4c0-2.211,1.75-4,3.953-4h0.078c2.219,0,4,1.789,4,4
				C324.23,110.228,322.449,112.017,320.23,112.017z"/>
		</g>
		<g>
			<path fill="#3A3847" d="M336.229,112.017c-2.203,0-4.031-1.789-4.031-4c0-2.211,1.75-4,3.953-4h0.078
				c2.218,0,3.999,1.789,3.999,4C340.229,110.228,338.447,112.017,336.229,112.017z"/>
		</g>
		<g>
			<path fill="#3A3847" d="M352.229,112.017c-2.203,0-4.031-1.789-4.031-4c0-2.211,1.75-4,3.953-4h0.078
				c2.219,0,3.999,1.789,3.999,4C356.228,110.228,354.447,112.017,352.229,112.017z"/>
		</g>
		<g>
			<path fill="#3A3847" d="M168.251,104.018c-2.207,0-4.039-1.79-4.039-4c0-2.211,1.75-4,3.961-4h0.078c2.211,0,4,1.789,4,4
				C172.251,102.228,170.462,104.018,168.251,104.018z"/>
		</g>
		<g>
			<path fill="#3A3847" d="M176.251,96.018c-2.207,0-4.039-1.789-4.039-4c0-2.21,1.75-4,3.96-4h0.078c2.21,0,4,1.79,4,4
				C180.251,94.229,178.461,96.018,176.251,96.018z"/>
		</g>
		<g>
			<path fill="#3A3847" d="M184.25,88.018c-2.207,0-4.039-1.789-4.039-4s1.75-4,3.961-4h0.078c2.21,0,4,1.789,4,4
				S186.461,88.018,184.25,88.018z"/>
		</g>
		<g>
			<path fill="#3A3847" d="M200.25,88.018c-2.207,0-4.039-1.789-4.039-4s1.75-4,3.96-4h0.078c2.211,0,4,1.789,4,4
				S202.46,88.018,200.25,88.018z"/>
		</g>
		<g>
			<path fill="#3A3847" d="M216.249,88.018c-2.207,0-4.039-1.789-4.039-4s1.75-4,3.96-4h0.078c2.21,0,4,1.789,4,4
				S218.459,88.018,216.249,88.018z"/>
		</g>
		<g>
			<path fill="#3A3847" d="M296.232,88.018c-2.204,0-4.031-1.789-4.031-4s1.75-4,3.952-4h0.079c2.218,0,4,1.789,4,4
				S298.45,88.018,296.232,88.018z"/>
		</g>
		<g>
			<path fill="#3A3847" d="M312.23,88.018c-2.203,0-4.03-1.789-4.03-4s1.749-4,3.952-4h0.078c2.219,0,4,1.789,4,4
				S314.449,88.018,312.23,88.018z"/>
		</g>
		<g>
			<path fill="#3A3847" d="M328.229,88.018c-2.202,0-4.03-1.789-4.03-4s1.749-4,3.953-4h0.077c2.219,0,4,1.789,4,4
				S330.448,88.018,328.229,88.018z"/>
		</g>
		<g>
			<path fill="#3A3847" d="M192.25,96.018c-2.207,0-4.039-1.789-4.039-4c0-2.21,1.75-4,3.96-4h0.079c2.211,0,4,1.79,4,4
				C196.25,94.229,194.461,96.018,192.25,96.018z"/>
		</g>
		<g>
			<path fill="#3A3847" d="M208.249,96.018c-2.207,0-4.039-1.789-4.039-4c0-2.21,1.75-4,3.961-4h0.078c2.211,0,4,1.79,4,4
				C212.249,94.229,210.46,96.018,208.249,96.018z"/>
		</g>
		<g>
			<path fill="#3A3847" d="M304.231,96.018c-2.203,0-4.031-1.789-4.031-4c0-2.21,1.75-4,3.953-4h0.078c2.219,0,4,1.79,4,4
				C308.231,94.229,306.45,96.018,304.231,96.018z"/>
		</g>
		<g>
			<path fill="#3A3847" d="M320.23,96.018c-2.203,0-4.031-1.789-4.031-4c0-2.21,1.75-4,3.953-4h0.078c2.219,0,4,1.79,4,4
				C324.23,94.229,322.449,96.018,320.23,96.018z"/>
		</g>
		<g>
			<path fill="#3A3847" d="M336.229,96.018c-2.203,0-4.031-1.789-4.031-4c0-2.21,1.75-4,3.953-4h0.078c2.218,0,3.999,1.79,3.999,4
				C340.229,94.229,338.447,96.018,336.229,96.018z"/>
		</g>
		<g>
			<path fill="#3A3847" d="M200.25,72.02c-2.207,0-4.039-1.789-4.039-4c0-2.211,1.75-4,3.96-4h0.078c2.211,0,4,1.789,4,4
				C204.249,70.23,202.46,72.02,200.25,72.02z"/>
		</g>
		<g>
			<path fill="#3A3847" d="M216.249,72.02c-2.207,0-4.039-1.789-4.039-4c0-2.211,1.75-4,3.96-4h0.078c2.21,0,4,1.789,4,4
				C220.249,70.23,218.459,72.02,216.249,72.02z"/>
		</g>
		<g>
			<path fill="#3A3847" d="M296.232,72.02c-2.204,0-4.031-1.789-4.031-4c0-2.211,1.75-4,3.952-4h0.079c2.218,0,4,1.789,4,4
				C300.232,70.23,298.45,72.02,296.232,72.02z"/>
		</g>
		<g>
			<path fill="#3A3847" d="M312.23,72.02c-2.203,0-4.03-1.789-4.03-4c0-2.211,1.749-4,3.952-4h0.078c2.219,0,4,1.789,4,4
				C316.23,70.23,314.449,72.02,312.23,72.02z"/>
		</g>
		<g>
			<path fill="#3A3847" d="M192.25,80.019c-2.207,0-4.039-1.789-4.039-4s1.75-4,3.96-4h0.079c2.211,0,4,1.789,4,4
				S194.461,80.019,192.25,80.019z"/>
		</g>
		<g>
			<path fill="#3A3847" d="M208.249,80.019c-2.207,0-4.039-1.789-4.039-4s1.75-4,3.961-4h0.078c2.211,0,4,1.789,4,4
				S210.46,80.019,208.249,80.019z"/>
		</g>
		<g>
			<path fill="#3A3847" d="M304.231,80.019c-2.203,0-4.031-1.789-4.031-4s1.75-4,3.953-4h0.078c2.219,0,4,1.789,4,4
				S306.45,80.019,304.231,80.019z"/>
		</g>
		<g>
			<path fill="#3A3847" d="M320.23,80.019c-2.203,0-4.031-1.789-4.031-4s1.75-4,3.953-4h0.078c2.219,0,4,1.789,4,4
				S322.449,80.019,320.23,80.019z"/>
		</g>
		<g>
			<path fill="#3A3847" d="M160.252,112.017c-2.207,0-4.039-1.789-4.039-4c0-2.211,1.75-4,3.96-4h0.078c2.211,0,4,1.789,4,4
				C164.251,110.228,162.463,112.017,160.252,112.017z"/>
		</g>
		<g>
			<path fill="#3A3847" d="M200.25,104.018c-2.207,0-4.039-1.79-4.039-4c0-2.211,1.75-4,3.96-4h0.078c2.211,0,4,1.789,4,4
				C204.249,102.228,202.46,104.018,200.25,104.018z"/>
		</g>
		<g>
			<path fill="#3A3847" d="M216.249,104.018c-2.207,0-4.039-1.79-4.039-4c0-2.211,1.75-4,3.96-4h0.078c2.21,0,4,1.789,4,4
				C220.249,102.228,218.459,104.018,216.249,104.018z"/>
		</g>
		<g>
			<path fill="#3A3847" d="M296.232,104.018c-2.204,0-4.031-1.79-4.031-4c0-2.211,1.75-4,3.952-4h0.079c2.218,0,4,1.789,4,4
				C300.232,102.228,298.45,104.018,296.232,104.018z"/>
		</g>
		<g>
			<path fill="#3A3847" d="M312.23,104.018c-2.203,0-4.03-1.79-4.03-4c0-2.211,1.749-4,3.952-4h0.078c2.219,0,4,1.789,4,4
				C316.23,102.228,314.449,104.018,312.23,104.018z"/>
		</g>
		<g>
			<path fill="#3A3847" d="M328.229,104.018c-2.202,0-4.03-1.79-4.03-4c0-2.211,1.749-4,3.953-4h0.077c2.219,0,4,1.789,4,4
				C332.229,102.228,330.448,104.018,328.229,104.018z"/>
		</g>
		<g>
			<path fill="#3A3847" d="M344.229,104.018c-2.202,0-4.031-1.79-4.031-4c0-2.211,1.75-4,3.953-4h0.078c2.219,0,4,1.789,4,4
				C348.229,102.228,346.447,104.018,344.229,104.018z"/>
		</g>
		<g>
			<path fill="#3A3847" d="M168.251,120.017c-2.207,0-4.039-1.789-4.039-4s1.75-4,3.961-4h0.078c2.211,0,4,1.789,4,4
				S170.462,120.017,168.251,120.017z"/>
		</g>
		<g>
			<path fill="#3A3847" d="M184.25,120.017c-2.207,0-4.039-1.789-4.039-4s1.75-4,3.961-4h0.078c2.21,0,4,1.789,4,4
				S186.461,120.017,184.25,120.017z"/>
		</g>
		<g>
			<path fill="#3A3847" d="M200.25,120.017c-2.207,0-4.039-1.789-4.039-4s1.75-4,3.96-4h0.078c2.211,0,4,1.789,4,4
				S202.46,120.017,200.25,120.017z"/>
		</g>
		<g>
			<path fill="#3A3847" d="M216.249,120.017c-2.207,0-4.039-1.789-4.039-4s1.75-4,3.96-4h0.078c2.21,0,4,1.789,4,4
				S218.459,120.017,216.249,120.017z"/>
		</g>
		<g>
			<path fill="#3A3847" d="M296.232,120.017c-2.204,0-4.031-1.789-4.031-4s1.75-4,3.952-4h0.079c2.218,0,4,1.789,4,4
				S298.45,120.017,296.232,120.017z"/>
		</g>
		<g>
			<path fill="#3A3847" d="M312.23,120.017c-2.203,0-4.03-1.789-4.03-4s1.749-4,3.952-4h0.078c2.219,0,4,1.789,4,4
				S314.449,120.017,312.23,120.017z"/>
		</g>
		<g>
			<path fill="#3A3847" d="M328.229,120.017c-2.202,0-4.03-1.789-4.03-4s1.749-4,3.953-4h0.077c2.219,0,4,1.789,4,4
				S330.448,120.017,328.229,120.017z"/>
		</g>
		<g>
			<path fill="#3A3847" d="M344.229,120.017c-2.202,0-4.031-1.789-4.031-4s1.75-4,3.953-4h0.078c2.219,0,4,1.789,4,4
				S346.447,120.017,344.229,120.017z"/>
		</g>
		<g>
			<path fill="#3A3847" d="M360.228,120.017c-2.203,0-4.03-1.789-4.03-4s1.75-4,3.952-4h0.078c2.219,0,4,1.789,4,4
				S362.446,120.017,360.228,120.017z"/>
		</g>
		<g>
			<path fill="#3A3847" d="M152.252,120.017c-2.207,0-4.039-1.789-4.039-4s1.75-4,3.96-4h0.078c2.211,0,4,1.789,4,4
				S154.463,120.017,152.252,120.017z"/>
		</g>
	</g>
	<g>
		<path fill="#FC6E51" d="M267.999,5.063c20.562,3.523,31.999,14.96,31.999,14.96L293.92,59.7l-9.922,64.316c0,0-15.999,8-27.998,8
			s-27.999-8-27.999-8L218.081,59.7l-6.078-39.677c0,0,8.48-8.476,23.999-13.116c5.761-1.68,12.398-2.883,19.999-2.883
			C260.32,4.023,264.32,4.422,267.999,5.063z"/>
	</g>
	<g opacity="0.3">
		<path fill="#FFFFFF" d="M244.001,124.016L234.079,59.7l-6.078-39.677c0,0,8.48-8.476,23.999-13.116
			c3.73-1.086,7.973-1.82,12.461-2.313c-2.684-0.328-5.469-0.57-8.461-0.57c-7.601,0-14.238,1.203-19.999,2.883
			c-15.518,4.641-23.999,13.116-23.999,13.116l6.078,39.677l9.921,64.316c0,0,16,8,27.999,8c2.551,0,5.281-0.406,7.999-0.976
			C253.922,128.93,244.001,124.016,244.001,124.016z"/>
	</g>
	<g opacity="0.2">
		<path d="M267.999,124.016l9.922-64.316l6.077-39.677c0,0-8.483-8.476-23.998-13.116c-3.73-1.086-7.972-1.82-12.46-2.313
			c2.684-0.328,5.469-0.57,8.46-0.57c7.602,0,14.233,1.203,19.998,2.883c15.515,4.641,24,13.116,24,13.116L293.92,59.7
			l-9.922,64.316c0,0-15.999,8-27.998,8c-2.551,0-5.281-0.406-8-0.976C258.078,128.93,267.999,124.016,267.999,124.016z"/>
	</g>
	<g>
		<polygon fill="#FC6E51" points="283.998,364.001 283.842,364.243 256,403.998 228.162,364.243 228.001,364.001 		"/>
	</g>
	<g opacity="0.3">
		<polygon fill="#FFFFFF" points="236.161,364.243 236.001,364.001 228.001,364.001 228.162,364.243 256,403.998 260,398.287 		"/>
	</g>
	<g opacity="0.2">
		<polygon points="275.843,364.243 275.998,364.001 283.998,364.001 283.842,364.243 256,403.998 252,398.287 		"/>
	</g>
	<g>
		<path fill="#EAC6BB" d="M347.994,356.002c0,4.562,5.999,10.154,15.202,15.999L256,459.995l-107.193-87.994
			c9.199-5.845,15.199-11.438,15.199-15.999v-31.92c17.198,20.24,37.037,36.317,55.997,45.919l8.159-5.758L256,403.998
			l27.842-39.755l8.156,5.758c18.96-9.602,38.795-25.679,55.996-45.919V356.002z"/>
	</g>
	<g>
		<path fill="#ED5565" d="M363.196,372.001c3.359,2.155,7.195,4.397,11.359,6.64L256,475.994l-118.552-97.354
			c4.16-2.242,8-4.484,11.359-6.64L256,459.995L363.196,372.001z"/>
	</g>
	<g opacity="0.3">
		<g>
			<path fill="#FFFFFF" d="M164.806,388c0.676-0.43,1.293-0.853,1.934-1.281l-17.933-14.718c-3.359,2.155-7.199,4.397-11.359,6.64
				l18.07,14.835C158.861,391.624,162.029,389.781,164.806,388z"/>
		</g>
	</g>
	<g opacity="0.2">
		<g>
			<path fill="#FFFFFF" d="M28.014,483.993c0-31.997,16-44.075,47.997-55.996c18.319-6.883,53.196-20.319,77.437-33.357
				c0.719-0.391,1.371-0.773,2.07-1.164l-18.07-14.835c-24.24,13.038-59.117,26.476-77.436,33.357
				c-31.999,11.921-47.997,23.998-47.997,55.997c0,31.997,0,39.997,0,39.997h15.999C28.014,502.125,28.014,494.329,28.014,483.993z"
				/>
		</g>
	</g>
	<g opacity="0.2">
		<g>
			<path d="M347.197,388c-0.68-0.43-1.297-0.853-1.938-1.281l17.937-14.718c3.359,2.155,7.195,4.397,11.359,6.64l-18.078,14.835
				C353.135,391.624,349.971,389.781,347.197,388z"/>
		</g>
	</g>
	<g opacity="0.2">
		<g>
			<path d="M483.986,483.993c0-31.997-15.999-44.075-47.998-55.996c-18.318-6.883-53.199-20.319-77.432-33.357
				c-0.719-0.391-1.375-0.773-2.079-1.164l18.078-14.835c24.232,13.038,59.112,26.476,77.433,33.357
				c31.998,11.921,47.997,23.998,47.997,55.997c0,31.997,0,39.997,0,39.997h-15.999
				C483.986,502.125,483.986,494.329,483.986,483.993z"/>
		</g>
	</g>
	<g opacity="0.2">
		<path d="M154.119,368.36c-1.625,1.203-3.378,2.414-5.312,3.641L256,459.995l107.196-87.994c-1.938-1.227-3.688-2.438-5.313-3.641
			L256,451.996L154.119,368.36z"/>
	</g>
	<g opacity="0.5">
		<path fill="#FFFFFF" d="M171.919,382.969c5.035-3.984,8.086-7.733,8.086-10.968v-31.054c-5.5-5.226-10.875-10.835-15.999-16.865
			v31.92c0,3.601-3.781,7.851-9.887,12.358L171.919,382.969z"/>
	</g>
	<g opacity="0.2">
		<path d="M340.081,382.969l17.803-14.608c-6.108-4.508-9.89-8.758-9.89-12.358v-31.92c-5.125,6.03-10.499,11.64-15.999,16.865
			v31.054C331.995,375.235,335.042,378.984,340.081,382.969z"/>
	</g>
	<g>
		<g>
			<path fill="#3A3847" d="M499.985,511.992H12.015c-2.211,0-4-1.79-4-4v-39.997c0-34.374,17.784-47.521,50.602-59.747
				c33.751-12.679,59.645-23.826,76.937-33.131c4.059-2.188,7.812-4.375,11.093-6.483c12.984-8.25,13.359-12.211,13.359-12.632
				c0-2.211,1.789-4,4-4c2.21,0,4,1.789,4,4c0,5.827-5.417,11.983-17.054,19.374c-3.421,2.194-7.347,4.491-11.604,6.788
				c-17.859,9.601-43.349,20.584-77.929,33.576c-30.768,11.468-45.404,22.201-45.404,52.255v35.997h479.971v-35.997
				c0-30.054-14.64-40.787-45.388-52.247c-34.592-13-60.09-23.983-77.94-33.584c-4.258-2.297-8.188-4.594-11.624-6.797
				c-11.617-7.382-17.039-13.538-17.039-19.365c0-2.211,1.789-4,4-4s4,1.789,4,4c0,0.421,0.375,4.382,13.343,12.624
				c3.297,2.116,7.046,4.304,11.109,6.491c17.296,9.305,43.185,20.452,76.947,33.14c32.811,12.217,50.591,25.364,50.591,59.738
				v39.997C503.984,510.202,502.196,511.992,499.985,511.992z"/>
		</g>
		<g>
			<path fill="#3A3847" d="M291.998,374c-1.453,0-2.859-0.804-3.57-2.194c-0.992-1.969-0.211-4.375,1.758-5.375
				c18.764-9.499,38.208-25.459,54.762-44.942c1.422-1.688,3.953-1.883,5.641-0.453c1.68,1.43,1.891,3.952,0.453,5.64
				c-17.226,20.272-37.553,36.928-57.23,46.896C293.224,373.859,292.607,374,291.998,374z"/>
		</g>
		<g>
			<path fill="#3A3847" d="M347.994,328.003c-0.914,0-1.827-0.312-2.586-0.945c-1.68-1.43-1.898-3.952-0.469-5.64
				c29.904-35.318,47.053-78.112,47.053-117.407c0-64.309-32.757-117.352-85.479-138.437c-2.047-0.82-3.047-3.148-2.235-5.195
				c0.82-2.054,3.141-3.047,5.204-2.227c55.824,22.319,90.51,78.214,90.51,145.858c0,56.348-30.67,100.985-48.942,122.578
				C350.26,327.519,349.128,328.003,347.994,328.003z"/>
		</g>
		<g>
			<path fill="#3A3847" d="M164.01,328.003c-1.137,0-2.266-0.484-3.059-1.414c-18.276-21.593-48.942-66.229-48.942-122.578
				c0-67.644,34.682-123.539,90.51-145.858c2.024-0.813,4.375,0.172,5.199,2.227c0.82,2.047-0.179,4.375-2.23,5.195
				c-52.724,21.084-85.479,74.128-85.479,138.437c0,39.294,17.147,82.088,47.052,117.407c1.426,1.688,1.215,4.21-0.469,5.64
				C165.837,327.691,164.92,328.003,164.01,328.003z"/>
		</g>
		<g>
			<path fill="#3A3847" d="M219.999,374c-0.605,0-1.223-0.141-1.805-0.429c-19.683-9.969-40.009-26.624-57.235-46.896
				c-1.434-1.688-1.227-4.21,0.457-5.64c1.691-1.43,4.21-1.234,5.636,0.453c16.554,19.483,36.001,35.443,54.758,44.942
				c1.969,1,2.758,3.406,1.762,5.375C222.865,373.196,221.459,374,219.999,374z"/>
		</g>
		<g>
			<path fill="#3A3847" d="M164.006,360.002c-2.211,0-4-1.79-4-4v-31.92c0-2.211,1.789-4.04,4-4.04c2.21,0,4,1.75,4,3.961v31.999
				C168.005,358.212,166.216,360.002,164.006,360.002z"/>
		</g>
		<g>
			<path fill="#3A3847" d="M347.994,360.002c-2.211,0-4-1.79-4-4v-31.92c0-2.211,1.789-4.04,4-4.04s4,1.75,4,3.961v31.999
				C351.994,358.212,350.205,360.002,347.994,360.002z"/>
		</g>
		<g>
			<path fill="#3A3847" d="M256,136.015c-12.796,0-29.1-8.077-29.787-8.421c-1.16-0.579-1.965-1.688-2.164-2.969L208.05,20.632
				c-0.195-1.266,0.223-2.539,1.125-3.437c0.375-0.375,9.382-9.25,25.682-14.125c11.19-3.265,22.53-3.93,33.83-1.945
				c21.546,3.688,33.639,15.562,34.139,16.07c0.906,0.898,1.32,2.171,1.125,3.437l-15.999,103.994c-0.203,1.281-1,2.39-2.164,2.969
				C285.1,127.938,268.796,136.015,256,136.015z M231.63,121.305c4.386,1.984,15.722,6.71,24.37,6.71
				c8.672,0,19.991-4.726,24.373-6.71l15.344-99.728c-3.555-2.922-13.438-10.007-28.389-12.57
				c-10.133-1.773-20.23-1.171-30.206,1.742c-10.82,3.234-17.948,8.421-20.838,10.812L231.63,121.305z"/>
		</g>
		<g>
			<path fill="#3A3847" d="M236.001,31.702c-2.21,0-4-1.789-4-4V6.906c0-2.211,1.789-4,4-4c2.211,0,4,1.789,4,4v20.796
				C240.001,29.913,238.212,31.702,236.001,31.702z"/>
		</g>
		<g>
			<path fill="#3A3847" d="M267.999,40.021c-2.211,0-4-1.789-4-4V5.063c0-2.211,1.789-4,4-4s4,1.789,4,4v30.959
				C271.999,38.232,270.21,40.021,267.999,40.021z"/>
		</g>
		<g>
			<path fill="#3A3847" d="M256.004,407.998c-1.262,0-2.504-0.594-3.281-1.702l-27.838-39.756l6.453-4.742l0.16,0.242l27.78,39.661
				c1.266,1.813,0.828,4.306-0.984,5.57C257.598,407.764,256.796,407.998,256.004,407.998z"/>
		</g>
		<g>
			<path fill="#3A3847" d="M255.996,407.998c-0.792,0-1.594-0.234-2.289-0.727c-1.813-1.265-2.25-3.757-0.984-5.57l27.837-39.755
				c1.25-1.797,3.797-2.367,5.609-1.133s2.375,3.57,1.164,5.391l-28.057,40.092C258.5,407.404,257.258,407.998,255.996,407.998z"/>
		</g>
		<g>
			<path fill="#3A3847" d="M283.998,368.001h-55.997c-2.21,0-4-1.789-4-4s1.79-3.999,4-3.999h55.997c2.211,0,4,1.788,4,3.999
				S286.209,368.001,283.998,368.001z"/>
		</g>
		<g>
			<path fill="#3A3847" d="M256.004,463.995c-1.156,0-2.305-0.5-3.094-1.461c-1.402-1.711-1.156-4.227,0.551-5.632l107.188-87.996
				c1.719-1.397,4.234-1.147,5.634,0.556c1.397,1.71,1.154,4.226-0.556,5.632l-107.188,87.994
				C257.793,463.697,256.895,463.995,256.004,463.995z"/>
		</g>
		<g>
			<path fill="#3A3847" d="M256.004,479.993c-1.156,0-2.305-0.499-3.094-1.461c-1.402-1.71-1.156-4.226,0.551-5.632l118.547-97.354
				c1.72-1.398,4.234-1.148,5.633,0.555c1.398,1.711,1.157,4.227-0.554,5.633l-118.548,97.354
				C257.793,479.697,256.895,479.993,256.004,479.993z"/>
		</g>
		<g>
			<path fill="#3A3847" d="M255.996,463.995c-0.891,0-1.789-0.298-2.535-0.907l-107.192-87.994
				c-1.708-1.406-1.953-3.922-0.551-5.632c1.398-1.703,3.914-1.953,5.628-0.556l107.193,87.996c1.707,1.405,1.953,3.921,0.551,5.632
				C258.301,463.495,257.152,463.995,255.996,463.995z"/>
		</g>
		<g>
			<path fill="#3A3847" d="M255.996,479.993c-0.891,0-1.789-0.296-2.535-0.905L134.91,381.734c-1.707-1.406-1.953-3.922-0.551-5.633
				c1.395-1.703,3.914-1.953,5.629-0.555L258.539,472.9c1.707,1.406,1.953,3.922,0.551,5.632
				C258.301,479.494,257.152,479.993,255.996,479.993z"/>
		</g>
		<g>
			<path fill="#3A3847" d="M387.992,487.993h-31.999c-2.21,0-3.999-1.789-3.999-4v-4.538c-5.172-5.273-8-12.117-8-19.46
				c0-15.437,12.563-27.998,27.998-27.998c15.438,0,27.999,12.562,27.999,27.998c0,7.343-2.828,14.187-7.999,19.46v4.538
				C391.992,486.204,390.203,487.993,387.992,487.993z M359.993,479.993h23.999v-2.241c0-1.133,0.484-2.211,1.32-2.969
				c4.305-3.883,6.68-9.132,6.68-14.788c0-11.03-8.969-19.998-20-19.998c-11.029,0-19.998,8.968-19.998,19.998
				c0,5.656,2.375,10.905,6.679,14.788c0.836,0.758,1.32,1.836,1.32,2.969V479.993z"/>
		</g>
		<g>
			<path fill="#3A3847" d="M371.992,487.993c-2.21,0-3.999-1.789-3.999-4v-4c0-2.211,1.789-3.999,3.999-3.999
				c2.211,0,4,1.788,4,3.999v4C375.992,486.204,374.203,487.993,371.992,487.993z"/>
		</g>
	</g>
</g>
</svg>
