<svg width="82" height="96" viewBox="0 0 82 96" fill="none" xmlns="http://www.w3.org/2000/svg">
<path d="M27.2076 0.926472C21.7769 3.36511 16.628 5.46298 14.3083 6.17642C11.3165 7.09223 9.72324 7.98684 8.0213 9.68006C4.5202 13.1409 2.04869 19.4558 0.379353 29.1677C0.173471 30.3711 0 31.4786 0 31.6383C0 32.4158 2.61238 33.832 5.28977 34.4923C7.26259 34.9822 10.0809 35.2271 12.4006 35.0887C13.4845 35.0355 13.8313 34.9715 13.9724 34.8331C14.1024 34.7053 14.2217 34.1515 14.4059 32.799C14.536 31.7767 14.6878 30.7439 14.7311 30.5095L14.8178 30.0837L15.1104 30.6907C15.4791 31.4574 15.8909 33.0334 16.1185 34.5988C16.2811 35.7064 16.3028 37.7403 16.3463 54.6829C16.3787 73.0632 16.2811 84.8624 16.0319 90.3892C15.9017 93.1899 15.9126 93.2006 16.4763 93.4136C18.2106 94.0631 21.8311 94.7447 25.6358 95.1387C29.7332 95.5647 32.6923 95.7245 38.4265 95.7989C49.4397 95.9587 59.4121 95.1494 64.6584 93.6585C66.1327 93.2432 66.046 93.4562 65.9158 90.4532C65.6666 84.9582 65.569 73.2335 65.6014 54.7361C65.6449 33.9599 65.6232 34.8757 66.2845 32.3306C66.5553 31.2444 67.1082 29.9665 67.1732 30.2433C67.1949 30.3286 67.3466 31.3828 67.5201 32.5755C67.7586 34.258 67.8671 34.7799 68.0079 34.8864C68.2681 35.0673 70.6527 35.1845 72.2462 35.0992C73.7962 35.0141 75.509 34.7799 76.6579 34.4923C79.3245 33.832 81.9477 32.4158 81.9477 31.6383C81.9477 31.4893 81.796 30.4988 81.6225 29.4446C79.3788 16.357 75.8234 9.47774 70.024 7.01778C69.5147 6.80477 68.4414 6.42131 67.6395 6.17642C65.1029 5.38842 59.7264 3.18407 53.5045 0.383366C53.0384 0.170391 52.5723 0 52.4638 0C52.1495 0 52.0195 0.266227 51.911 1.05426C51.6075 3.4929 49.613 6.12317 45.7325 9.22216C44.7027 10.0526 42.6973 11.4584 41.6567 12.0761L40.9847 12.4807L40.4102 12.14C37.6678 10.4894 34.1123 7.5715 32.3997 5.55882C30.9363 3.84431 30.2102 2.44929 30.0258 1.04361C29.9282 0.234276 29.7873 -0.0106506 29.4404 0.0106505C29.3213 0.0213011 28.3132 0.425968 27.2076 0.926472Z" fill="black"/>
<path d="M27.2249 0.932799C21.7907 3.37593 16.6387 5.47765 14.3175 6.19237C11.3239 7.10998 9.72931 8.00604 8.02645 9.70252C4.52296 13.1698 2.04998 19.4963 0.379724 29.2262C0.173473 30.4316 0 31.5413 0 31.7012C0 32.4801 2.61404 33.8991 5.29309 34.5605C7.2672 35.0512 10.0873 35.2967 12.4085 35.1579C13.4932 35.1045 13.8401 35.0405 13.9812 34.9018C14.1114 34.7739 14.2307 34.2191 14.4151 32.8642C14.5453 31.8399 14.697 30.8051 14.7405 30.5704L14.8272 30.1436L15.1202 30.7517C15.4889 31.5199 15.901 33.0988 16.1288 34.6672C16.2916 35.7767 16.3133 37.8144 16.3566 54.7883C16.3892 73.2023 16.2916 85.0234 16.042 90.5604C15.9119 93.3661 15.9227 93.3768 16.4868 93.5902C18.2222 94.241 21.845 94.9239 25.652 95.3186C29.7522 95.7453 32.7132 95.9054 38.451 95.9801C49.4712 96.14 59.45 95.3293 64.6998 93.8356C66.1749 93.4196 66.0882 93.633 65.958 90.6244C65.7084 85.1194 65.6108 73.3732 65.6434 54.8415C65.6867 34.0271 65.6651 34.9445 66.3266 32.3947C66.5979 31.3065 67.1511 30.0263 67.2161 30.3036C67.2378 30.3891 67.3897 31.4453 67.5632 32.6402C67.8019 34.3258 67.9103 34.8485 68.0514 34.9552C68.3116 35.1365 70.6978 35.2539 72.2922 35.1686C73.8434 35.0833 75.5571 34.8485 76.7069 34.5605C79.3751 33.8991 82 32.4801 82 31.7012C82 31.5519 81.8481 30.5597 81.6746 29.5035C79.4294 16.3917 75.8716 9.49966 70.0688 7.03536C69.5591 6.82198 68.4853 6.4378 67.6825 6.19237C65.1444 5.40297 59.7645 3.19456 53.5385 0.388696C53.0723 0.175322 52.6058 0.00462341 52.4974 0.00462341C52.1828 0.00462341 52.0526 0.27134 51.9442 1.06082C51.6405 3.50395 49.6447 6.13911 45.7616 9.24372C44.7313 10.0758 42.7246 11.4841 41.6834 12.1029L41.0109 12.5083L40.4359 12.1668C37.6917 10.5133 34.1341 7.58998 32.4204 5.57367C30.9562 3.85602 30.2293 2.45842 30.045 1.05015C29.9474 0.239335 29.8063 -0.00604546 29.4592 0.0152919C29.3399 0.0259606 28.3313 0.431372 27.2249 0.932799ZM29.1338 2.03167C29.6546 4.06939 31.7154 6.77923 34.6549 9.26509C36.8566 11.1213 40.5118 13.6604 41 13.6604C41.5206 13.6604 45.3821 11.0253 47.5188 9.21166C50.3498 6.80061 52.3346 4.16541 52.8662 2.10635C52.9529 1.75429 53.0505 1.45556 53.0723 1.42356C53.1047 1.40222 53.517 1.55158 53.9941 1.76496L54.8619 2.1597L54.7534 2.49041C54.6884 2.67178 54.3739 3.31191 54.0593 3.92003C52.2046 7.48329 49.0806 10.7266 44.7963 13.5538C43.5706 14.3647 41.1302 15.7942 40.9783 15.7942C40.8481 15.7942 38.2016 14.2152 36.9109 13.3724C32.2469 10.332 28.8953 6.87523 27.5068 3.6853C26.856 2.20235 26.8452 2.25571 27.8974 1.79696C28.3963 1.58359 28.841 1.42356 28.8953 1.43423C28.9494 1.4449 29.0579 1.72228 29.1338 2.03167ZM58.4956 3.72799C62.7581 5.563 64.7431 6.3418 67.2052 7.16323C68.4092 7.5581 69.6999 8.0381 70.0796 8.2301C73.659 9.99052 76.1429 13.4152 78.1387 19.3469C78.9412 21.7581 79.809 25.2467 80.3839 28.4153L80.6334 29.7808L80.308 30.0476C79.809 30.453 77.9109 31.3279 76.8587 31.6373C75.0147 32.1921 73.8868 32.3413 71.186 32.4054L68.6696 32.4587L68.6153 32.2134C68.5611 31.968 68.1164 29.0875 68.1164 28.9808C68.1164 28.9594 68.0405 28.8527 67.9429 28.7674C67.1944 28.0313 65.8495 29.749 65.2528 32.2239C64.5805 34.9978 64.602 34.0057 64.5588 54.5749C64.5262 71.6234 64.6346 85.9088 64.8298 89.4294L64.895 90.6778L64.5805 90.795C62.0749 91.734 55.3392 92.6193 48.3431 92.9287C45.1867 93.0675 36.7807 93.0675 33.6785 92.9287C26.9429 92.63 21.0641 91.8939 18.0053 90.9765L17.1917 90.731V89.8348C17.1917 89.3334 17.2569 85.258 17.3436 80.7664C17.4304 75.2082 17.463 66.7479 17.4412 54.2014C17.398 34.0483 17.4195 34.9873 16.7472 32.2239C16.2481 30.165 15.2502 28.5968 14.4259 28.5968C13.9921 28.5968 13.9162 28.7781 13.6558 30.4851C13.5365 31.2958 13.4171 32.064 13.3847 32.1921C13.3413 32.4373 13.3195 32.4373 11.4648 32.4373C8.48205 32.4373 6.19341 32.0747 4.09996 31.2638C2.88511 30.8051 1.41006 29.941 1.41006 29.6955C1.41006 29.3648 2.08258 25.9401 2.49471 24.2119C4.06737 17.5119 6.1934 12.9564 8.97005 10.2785C10.4777 8.82766 11.7577 8.15548 14.8489 7.14204C16.9856 6.44849 19.6431 5.39231 23.7431 3.63197C25.1314 3.03453 26.3028 2.58644 26.3463 2.63979C26.3897 2.68246 26.5199 2.95985 26.6284 3.25857C27.3333 5.17893 28.7325 7.22736 30.6849 9.22234C32.8433 11.4095 35.631 13.4684 39.4273 15.6875L40.9457 16.573L41.7049 16.1677C43.0934 15.4316 45.4471 13.9379 46.7813 12.9564C50.5232 10.1825 53.1482 7.20598 54.8077 3.82401C55.1764 3.0772 55.4909 2.4584 55.5127 2.4584C55.5235 2.4584 56.8686 3.03453 58.4956 3.72799ZM2.02825 31.0185C4.09996 32.3201 7.50586 33.0881 11.313 33.1095L13.2328 33.1202V33.4402C13.2328 34.0271 13.1461 34.059 11.7469 34.1231C8.37358 34.251 4.44709 33.5042 2.25605 32.2987C1.16053 31.6905 1.08466 31.6052 1.16053 31.0718C1.19312 30.8265 1.25813 30.6236 1.31245 30.6236C1.3666 30.6236 1.69199 30.8051 2.02825 31.0185ZM80.8395 31.0718C80.9153 31.6052 80.8503 31.6693 79.744 32.2987C77.5964 33.4937 73.6373 34.2617 70.2531 34.1231C68.8539 34.059 68.7672 34.0271 68.7672 33.4402V33.1095L70.6978 33.0988C71.7499 33.0988 73.1817 33.0135 73.876 32.9282C76.2622 32.6081 78.6376 31.8613 79.9392 31.0292C80.2646 30.8158 80.5899 30.6343 80.655 30.6343C80.7201 30.6236 80.8069 30.8265 80.8395 31.0718ZM18.1681 91.7019C20.8797 92.4701 25.6087 93.0995 31.5635 93.4835C34.4379 93.6755 47.5621 93.6755 50.4365 93.4835C56.4021 93.0995 61.1203 92.4701 63.8428 91.7019C64.3636 91.5525 64.8081 91.4565 64.8407 91.4885C64.8842 91.5206 64.9059 91.7979 64.9166 92.0966V92.6514L64.2658 92.8434C63.3222 93.1209 60.7081 93.633 58.951 93.8784C51.0438 94.9985 38.6138 95.2653 28.6891 94.529C25.0881 94.2517 20.8145 93.6543 18.6561 93.0995C17.0941 92.7048 17.0291 92.6728 17.0291 92.2674C17.0291 91.9046 17.1267 91.4351 17.2026 91.4351C17.2243 91.4351 17.6582 91.5525 18.1681 91.7019Z" fill="white"/>
</svg>
